<svg xmlns="http://www.w3.org/2000/svg" width="1008" height="661" viewBox="0 0 1008 661">
  <g id="Grupo_31008" data-name="Grupo 31008" transform="translate(-179 -5708)">
    <path id="Trazado_29778" data-name="Trazado 29778" d="M10,0H998a10,10,0,0,1,10,10V661H0V10A10,10,0,0,1,10,0Z" transform="translate(179 5708)" fill="#ecfafc"/>
    <g id="Grupo_20765" data-name="Grupo 20765" transform="translate(204 5779.674)">
      <rect id="Rectángulo_4913" data-name="Rectángulo 4913" width="472.758" height="25" transform="translate(0.001 36)" fill="#dbf6f9"/>
      <rect id="Rectángulo_4915" data-name="Rectángulo 4915" width="472.758" height="36" transform="translate(0.001 0)" fill="#fff6e8"/>
      <rect id="Rectángulo_4914" data-name="Rectángulo 4914" width="472.758" height="24" transform="translate(0.001 86)" fill="#dbf6f9"/>
      <rect id="Rectángulo_6684" data-name="Rectángulo 6684" width="178.471" height="74" transform="translate(294.288 61)" fill="#dbf6f9"/>
      <g id="Rectángulo_4912" data-name="Rectángulo 4912" transform="translate(0 0)" fill="none" stroke="#707070" stroke-width="1">
        <rect width="472.758" height="135" stroke="none"/>
        <rect x="0.5" y="0.5" width="471.758" height="134" fill="none"/>
      </g>
      <line id="Línea_124" data-name="Línea 124" y2="135.377" transform="translate(99.686 0.074)" fill="none" stroke="#707070" stroke-width="1"/>
      <line id="Línea_125" data-name="Línea 125" y2="135.377" transform="translate(196.035 0.074)" fill="none" stroke="#707070" stroke-width="1"/>
      <line id="Línea_227" data-name="Línea 227" y2="135.377" transform="translate(294.288 0.074)" fill="none" stroke="#707070" stroke-width="1"/>
      <line id="Línea_126" data-name="Línea 126" x2="471.983" transform="translate(0.776 36.549)" fill="none" stroke="#707070" stroke-width="1"/>
      <line id="Línea_127" data-name="Línea 127" x2="293.512" transform="translate(0.775 61.099)" fill="none" stroke="#707070" stroke-width="1"/>
      <line id="Línea_128" data-name="Línea 128" x2="293.512" transform="translate(0.775 85.649)" fill="none" stroke="#707070" stroke-width="1"/>
      <line id="Línea_129" data-name="Línea 129" x2="293.512" transform="translate(0.775 110.199)" fill="none" stroke="#707070" stroke-width="1"/>
      <text id="Número" transform="translate(20.225 25)" fill="#00104e" font-size="17" font-family="Roboto-Black, Roboto" font-weight="800"><tspan x="0" y="0">Número</tspan></text>
      <text id="Cuadrado" transform="translate(113.031 24)" fill="#00104e" font-size="16" font-family="Roboto-Black, Roboto" font-weight="800"><tspan x="0" y="0">Cuadrado</tspan></text>
      <text id="Cubo" transform="translate(224.831 24)" fill="#00104e" font-size="16" font-family="Roboto-Black, Roboto" font-weight="800"><tspan x="0" y="0">Cubo</tspan></text>
      <text id="Salida" transform="translate(359.583 24)" fill="#00104e" font-size="16" font-family="Roboto-Black, Roboto" font-weight="800"><tspan x="0" y="0">Salida</tspan></text>
      <text id="Por_favor_ingrese_un_número" data-name="Por favor ingrese un número" transform="translate(301 53.326)" fill="#00104e" font-size="13" font-family="Roboto-Regular, Roboto"><tspan x="0" y="0">Por favor ingrese un número</tspan></text>
    </g>
    <g id="Grupo_30453" data-name="Grupo 30453" transform="translate(204 5991.674)">
      <rect id="Rectángulo_4913-2" data-name="Rectángulo 4913" width="472.758" height="25" transform="translate(0.001 36)" fill="#dbf6f9"/>
      <rect id="Rectángulo_4915-2" data-name="Rectángulo 4915" width="472.758" height="36" transform="translate(0.001 0)" fill="#fff6e8"/>
      <rect id="Rectángulo_4914-2" data-name="Rectángulo 4914" width="472.758" height="24" transform="translate(0.001 86)" fill="#dbf6f9"/>
      <rect id="Rectángulo_6684-2" data-name="Rectángulo 6684" width="178.471" height="74" transform="translate(294.288 61)" fill="#dbf6f9"/>
      <g id="Rectángulo_4912-2" data-name="Rectángulo 4912" transform="translate(0 0)" fill="none" stroke="#707070" stroke-width="1">
        <rect width="472.758" height="135" stroke="none"/>
        <rect x="0.5" y="0.5" width="471.758" height="134" fill="none"/>
      </g>
      <line id="Línea_124-2" data-name="Línea 124" y2="135.377" transform="translate(99.686 0.074)" fill="none" stroke="#707070" stroke-width="1"/>
      <line id="Línea_125-2" data-name="Línea 125" y2="135.377" transform="translate(196.035 0.074)" fill="none" stroke="#707070" stroke-width="1"/>
      <line id="Línea_227-2" data-name="Línea 227" y2="135.377" transform="translate(294.288 0.074)" fill="none" stroke="#707070" stroke-width="1"/>
      <line id="Línea_126-2" data-name="Línea 126" x2="471.983" transform="translate(0.776 36.549)" fill="none" stroke="#707070" stroke-width="1"/>
      <line id="Línea_127-2" data-name="Línea 127" x2="293.512" transform="translate(0.775 61.099)" fill="none" stroke="#707070" stroke-width="1"/>
      <line id="Línea_128-2" data-name="Línea 128" x2="293.512" transform="translate(0.775 85.649)" fill="none" stroke="#707070" stroke-width="1"/>
      <line id="Línea_129-2" data-name="Línea 129" x2="293.512" transform="translate(0.775 110.199)" fill="none" stroke="#707070" stroke-width="1"/>
      <text id="Número-2" data-name="Número" transform="translate(20.225 25)" fill="#00104e" font-size="17" font-family="Roboto-Black, Roboto" font-weight="800"><tspan x="0" y="0">Número</tspan></text>
      <text id="Cuadrado-2" data-name="Cuadrado" transform="translate(113.031 24)" fill="#00104e" font-size="16" font-family="Roboto-Black, Roboto" font-weight="800"><tspan x="0" y="0">Cuadrado</tspan></text>
      <text id="Cubo-2" data-name="Cubo" transform="translate(225.831 24)" fill="#00104e" font-size="16" font-family="Roboto-Black, Roboto" font-weight="800"><tspan x="0" y="0">Cubo</tspan></text>
      <text id="Salida-2" data-name="Salida" transform="translate(359.583 24)" fill="#00104e" font-size="16" font-family="Roboto-Black, Roboto" font-weight="800"><tspan x="0" y="0">Salida</tspan></text>
      <text id="Por_favor_ingrese_un_número_3" data-name="Por favor ingrese un número
3" transform="translate(301 42.326)" fill="#00104e" font-size="13" font-family="Roboto-Regular, Roboto"><tspan x="0" y="12">Por favor ingrese un número</tspan><tspan x="0" y="34">3</tspan></text>
      <text id="_3" data-name="3" transform="translate(40.727 54.5)" fill="#00104e" font-size="17" font-family="Roboto-Black, Roboto" font-weight="800"><tspan x="0" y="0">3</tspan></text>
      <text id="_9" data-name="9" transform="translate(142.529 54.5)" fill="#00104e" font-size="17" font-family="Roboto-Regular, Roboto"><tspan x="0" y="0">9</tspan></text>
    </g>
    <g id="Grupo_30455" data-name="Grupo 30455" transform="translate(204 6203.674)">
      <rect id="Rectángulo_4913-3" data-name="Rectángulo 4913" width="472.758" height="25" transform="translate(0.001 36)" fill="#dbf6f9"/>
      <rect id="Rectángulo_4915-3" data-name="Rectángulo 4915" width="472.758" height="36" transform="translate(0.001 0)" fill="#fff6e8"/>
      <rect id="Rectángulo_4914-3" data-name="Rectángulo 4914" width="472.758" height="24" transform="translate(0.001 86)" fill="#dbf6f9"/>
      <rect id="Rectángulo_6684-3" data-name="Rectángulo 6684" width="178.471" height="74" transform="translate(294.288 61)" fill="#dbf6f9"/>
      <g id="Rectángulo_4912-3" data-name="Rectángulo 4912" transform="translate(0 0)" fill="none" stroke="#707070" stroke-width="1">
        <rect width="472.758" height="135" stroke="none"/>
        <rect x="0.5" y="0.5" width="471.758" height="134" fill="none"/>
      </g>
      <line id="Línea_124-3" data-name="Línea 124" y2="135.377" transform="translate(99.686 0.074)" fill="none" stroke="#707070" stroke-width="1"/>
      <line id="Línea_125-3" data-name="Línea 125" y2="135.377" transform="translate(196.035 0.074)" fill="none" stroke="#707070" stroke-width="1"/>
      <line id="Línea_227-3" data-name="Línea 227" y2="135.377" transform="translate(294.288 0.074)" fill="none" stroke="#707070" stroke-width="1"/>
      <line id="Línea_126-3" data-name="Línea 126" x2="471.983" transform="translate(0.776 36.549)" fill="none" stroke="#707070" stroke-width="1"/>
      <line id="Línea_127-3" data-name="Línea 127" x2="293.512" transform="translate(0.775 61.099)" fill="none" stroke="#707070" stroke-width="1"/>
      <line id="Línea_128-3" data-name="Línea 128" x2="293.512" transform="translate(0.775 85.649)" fill="none" stroke="#707070" stroke-width="1"/>
      <line id="Línea_129-3" data-name="Línea 129" x2="293.512" transform="translate(0.775 110.199)" fill="none" stroke="#707070" stroke-width="1"/>
      <text id="Número-3" data-name="Número" transform="translate(20.225 25)" fill="#00104e" font-size="17" font-family="Roboto-Black, Roboto" font-weight="800"><tspan x="0" y="0">Número</tspan></text>
      <text id="Cuadrado-3" data-name="Cuadrado" transform="translate(113.031 24)" fill="#00104e" font-size="16" font-family="Roboto-Black, Roboto" font-weight="800"><tspan x="0" y="0">Cuadrado</tspan></text>
      <text id="Cubo-3" data-name="Cubo" transform="translate(224.04 24)" fill="#00104e" font-size="16" font-family="Roboto-Black, Roboto" font-weight="800"><tspan x="0" y="0">Cubo</tspan></text>
      <text id="Salida-3" data-name="Salida" transform="translate(359.583 24)" fill="#00104e" font-size="16" font-family="Roboto-Black, Roboto" font-weight="800"><tspan x="0" y="0">Salida</tspan></text>
      <text id="Por_favor_ingrese_un_número_3_El_Cuadrado_9" data-name="Por favor ingrese un número
3
El Cuadrado 9" transform="translate(301 42.326)" fill="#00104e" font-size="13" font-family="Roboto-Regular, Roboto"><tspan x="0" y="12">Por favor ingrese un número</tspan><tspan x="0" y="34">3</tspan><tspan x="0" y="56">El Cuadrado 9</tspan></text>
      <text id="_3-2" data-name="3" transform="translate(40.727 54.5)" fill="#00104e" font-size="17" font-family="Roboto-Black, Roboto" font-weight="800"><tspan x="0" y="0">3</tspan></text>
      <text id="_9-2" data-name="9" transform="translate(142.529 54.5)" fill="#00104e" font-size="17" font-family="Roboto-Regular, Roboto"><tspan x="0" y="0">9</tspan></text>
      <text id="_27" data-name="27" transform="translate(233.541 54.5)" fill="#00104e" font-size="17" font-family="Roboto-Regular, Roboto"><tspan x="0" y="0">27</tspan></text>
    </g>
    <g id="Grupo_30451" data-name="Grupo 30451" transform="translate(696.059 5779.674)">
      <rect id="Rectángulo_4913-4" data-name="Rectángulo 4913" width="472.758" height="25" transform="translate(0.001 36)" fill="#dbf6f9"/>
      <rect id="Rectángulo_4915-4" data-name="Rectángulo 4915" width="472.758" height="36" transform="translate(0.001 0)" fill="#fff6e8"/>
      <rect id="Rectángulo_4914-4" data-name="Rectángulo 4914" width="294.287" height="24" transform="translate(0.001 86)" fill="#dbf6f9"/>
      <g id="Rectángulo_4912-4" data-name="Rectángulo 4912" transform="translate(0 0)" fill="none" stroke="#707070" stroke-width="1">
        <rect width="472.758" height="135" stroke="none"/>
        <rect x="0.5" y="0.5" width="471.758" height="134" fill="none"/>
      </g>
      <line id="Línea_124-4" data-name="Línea 124" y2="135.377" transform="translate(99.686 0.074)" fill="none" stroke="#707070" stroke-width="1"/>
      <line id="Línea_125-4" data-name="Línea 125" y2="135.377" transform="translate(196.035 0.074)" fill="none" stroke="#707070" stroke-width="1"/>
      <line id="Línea_227-4" data-name="Línea 227" y2="135.377" transform="translate(294.288 0.074)" fill="none" stroke="#707070" stroke-width="1"/>
      <line id="Línea_126-4" data-name="Línea 126" x2="471.983" transform="translate(0.776 36.549)" fill="none" stroke="#707070" stroke-width="1"/>
      <line id="Línea_127-4" data-name="Línea 127" x2="293.666" transform="translate(0.775 61.099)" fill="none" stroke="#707070" stroke-width="1"/>
      <line id="Línea_128-4" data-name="Línea 128" x2="293.512" transform="translate(0.775 85.649)" fill="none" stroke="#707070" stroke-width="1"/>
      <line id="Línea_129-4" data-name="Línea 129" x2="293.512" transform="translate(0.775 110.199)" fill="none" stroke="#707070" stroke-width="1"/>
      <text id="Número-4" data-name="Número" transform="translate(20.225 25)" fill="#00104e" font-size="17" font-family="Roboto-Black, Roboto" font-weight="800"><tspan x="0" y="0">Número</tspan></text>
      <text id="_3-3" data-name="3" transform="translate(40.725 54.5)" fill="#00104e" font-size="17" font-family="Roboto-Black, Roboto" font-weight="800"><tspan x="0" y="0">3</tspan></text>
      <text id="Cuadrado-4" data-name="Cuadrado" transform="translate(113.108 24)" fill="#00104e" font-size="16" font-family="Roboto-Black, Roboto" font-weight="800"><tspan x="0" y="0">Cuadrado</tspan></text>
      <text id="Cubo-4" data-name="Cubo" transform="translate(224.831 24)" fill="#00104e" font-size="16" font-family="Roboto-Black, Roboto" font-weight="800"><tspan x="0" y="0">Cubo</tspan></text>
      <text id="Salida-4" data-name="Salida" transform="translate(359.583 24)" fill="#00104e" font-size="16" font-family="Roboto-Black, Roboto" font-weight="800"><tspan x="0" y="0">Salida</tspan></text>
      <rect id="Rectángulo_6685" data-name="Rectángulo 6685" width="175.82" height="72.326" transform="translate(295.497 61)" fill="#dbf6f9"/>
      <text id="Por_favor_ingrese_un_número_3-2" data-name="Por favor ingrese un número
3" transform="translate(300.857 42.326)" fill="#00104e" font-size="13" font-family="Roboto-Regular, Roboto"><tspan x="0" y="12">Por favor ingrese un número</tspan><tspan x="0" y="34">3</tspan></text>
    </g>
    <g id="Grupo_30452" data-name="Grupo 30452" transform="translate(696.059 5991.674)">
      <rect id="Rectángulo_4913-5" data-name="Rectángulo 4913" width="472.758" height="25" transform="translate(0.001 36)" fill="#dbf6f9"/>
      <rect id="Rectángulo_4915-5" data-name="Rectángulo 4915" width="472.758" height="36" transform="translate(0.001 0)" fill="#fff6e8"/>
      <rect id="Rectángulo_4914-5" data-name="Rectángulo 4914" width="294.287" height="24" transform="translate(0.001 86)" fill="#dbf6f9"/>
      <g id="Rectángulo_4912-5" data-name="Rectángulo 4912" transform="translate(0 0)" fill="none" stroke="#707070" stroke-width="1">
        <rect width="472.758" height="135" stroke="none"/>
        <rect x="0.5" y="0.5" width="471.758" height="134" fill="none"/>
      </g>
      <line id="Línea_124-5" data-name="Línea 124" y2="135.377" transform="translate(99.686 0.074)" fill="none" stroke="#707070" stroke-width="1"/>
      <line id="Línea_125-5" data-name="Línea 125" y2="135.377" transform="translate(196.035 0.074)" fill="none" stroke="#707070" stroke-width="1"/>
      <line id="Línea_227-5" data-name="Línea 227" y2="135.377" transform="translate(294.288 0.074)" fill="none" stroke="#707070" stroke-width="1"/>
      <line id="Línea_126-5" data-name="Línea 126" x2="471.983" transform="translate(0.776 36.549)" fill="none" stroke="#707070" stroke-width="1"/>
      <line id="Línea_127-5" data-name="Línea 127" x2="293.666" transform="translate(0.775 61.099)" fill="none" stroke="#707070" stroke-width="1"/>
      <line id="Línea_128-5" data-name="Línea 128" x2="293.512" transform="translate(0.775 85.649)" fill="none" stroke="#707070" stroke-width="1"/>
      <line id="Línea_129-5" data-name="Línea 129" x2="293.512" transform="translate(0.775 110.199)" fill="none" stroke="#707070" stroke-width="1"/>
      <text id="Número-5" data-name="Número" transform="translate(20.225 25)" fill="#00104e" font-size="17" font-family="Roboto-Black, Roboto" font-weight="800"><tspan x="0" y="0">Número</tspan></text>
      <text id="Cuadrado-5" data-name="Cuadrado" transform="translate(113.108 24)" fill="#00104e" font-size="16" font-family="Roboto-Black, Roboto" font-weight="800"><tspan x="0" y="0">Cuadrado</tspan></text>
      <text id="Cubo-5" data-name="Cubo" transform="translate(224.831 24)" fill="#00104e" font-size="16" font-family="Roboto-Black, Roboto" font-weight="800"><tspan x="0" y="0">Cubo</tspan></text>
      <text id="Salida-5" data-name="Salida" transform="translate(359.583 24)" fill="#00104e" font-size="16" font-family="Roboto-Black, Roboto" font-weight="800"><tspan x="0" y="0">Salida</tspan></text>
      <rect id="Rectángulo_6685-2" data-name="Rectángulo 6685" width="175.82" height="72.326" transform="translate(295.497 61)" fill="#dbf6f9"/>
      <text id="_3-4" data-name="3" transform="translate(43.785 54.748)" fill="#00104e" font-size="17" font-family="Roboto-Black, Roboto" font-weight="800"><tspan x="0" y="0">3</tspan></text>
      <text id="_9-3" data-name="9" transform="translate(145.586 54.748)" fill="#00104e" font-size="17" font-family="Roboto-Regular, Roboto"><tspan x="0" y="0">9</tspan></text>
      <text id="_27-2" data-name="27" transform="translate(236.484 54.748)" fill="#00104e" font-size="17" font-family="Roboto-Regular, Roboto"><tspan x="0" y="0">27</tspan></text>
      <text id="Por_favor_ingrese_un_número_3-3" data-name="Por favor ingrese un número
3" transform="translate(300.857 42.326)" fill="#00104e" font-size="13" font-family="Roboto-Regular, Roboto"><tspan x="0" y="12">Por favor ingrese un número</tspan><tspan x="0" y="34">3</tspan></text>
    </g>
    <g id="Grupo_30454" data-name="Grupo 30454" transform="translate(696.059 6203.674)">
      <rect id="Rectángulo_4913-6" data-name="Rectángulo 4913" width="472.758" height="25" transform="translate(0.001 36)" fill="#dbf6f9"/>
      <rect id="Rectángulo_4915-6" data-name="Rectángulo 4915" width="472.758" height="36" transform="translate(0.001 0)" fill="#fff6e8"/>
      <rect id="Rectángulo_4914-6" data-name="Rectángulo 4914" width="294.287" height="24" transform="translate(0.001 86)" fill="#dbf6f9"/>
      <g id="Rectángulo_4912-6" data-name="Rectángulo 4912" transform="translate(0 0)" fill="none" stroke="#707070" stroke-width="1">
        <rect width="472.758" height="135" stroke="none"/>
        <rect x="0.5" y="0.5" width="471.758" height="134" fill="none"/>
      </g>
      <line id="Línea_124-6" data-name="Línea 124" y2="135.377" transform="translate(99.686 0.074)" fill="none" stroke="#707070" stroke-width="1"/>
      <line id="Línea_125-6" data-name="Línea 125" y2="135.377" transform="translate(196.035 0.074)" fill="none" stroke="#707070" stroke-width="1"/>
      <line id="Línea_227-6" data-name="Línea 227" y2="135.377" transform="translate(294.288 0.074)" fill="none" stroke="#707070" stroke-width="1"/>
      <line id="Línea_126-6" data-name="Línea 126" x2="471.983" transform="translate(0.776 36.549)" fill="none" stroke="#707070" stroke-width="1"/>
      <line id="Línea_127-6" data-name="Línea 127" x2="293.666" transform="translate(0.775 61.099)" fill="none" stroke="#707070" stroke-width="1"/>
      <line id="Línea_128-6" data-name="Línea 128" x2="293.512" transform="translate(0.775 85.649)" fill="none" stroke="#707070" stroke-width="1"/>
      <line id="Línea_129-6" data-name="Línea 129" x2="293.512" transform="translate(0.775 110.199)" fill="none" stroke="#707070" stroke-width="1"/>
      <text id="Número-6" data-name="Número" transform="translate(20.225 25)" fill="#00104e" font-size="17" font-family="Roboto-Black, Roboto" font-weight="800"><tspan x="0" y="0">Número</tspan></text>
      <text id="Cuadrado-6" data-name="Cuadrado" transform="translate(113.108 24)" fill="#00104e" font-size="16" font-family="Roboto-Black, Roboto" font-weight="800"><tspan x="0" y="0">Cuadrado</tspan></text>
      <text id="Cubo-6" data-name="Cubo" transform="translate(229.831 24)" fill="#00104e" font-size="16" font-family="Roboto-Black, Roboto" font-weight="800"><tspan x="0" y="0">Cubo</tspan></text>
      <text id="Salida-6" data-name="Salida" transform="translate(359.583 24)" fill="#00104e" font-size="16" font-family="Roboto-Black, Roboto" font-weight="800"><tspan x="0" y="0">Salida</tspan></text>
      <rect id="Rectángulo_6685-3" data-name="Rectángulo 6685" width="175.82" height="72.326" transform="translate(295.497 61)" fill="#dbf6f9"/>
      <text id="_3-5" data-name="3" transform="translate(43.785 54.748)" fill="#00104e" font-size="17" font-family="Roboto-Black, Roboto" font-weight="800"><tspan x="0" y="0">3</tspan></text>
      <text id="_9-4" data-name="9" transform="translate(145.586 54.748)" fill="#00104e" font-size="17" font-family="Roboto-Regular, Roboto"><tspan x="0" y="0">9</tspan></text>
      <text id="_27-3" data-name="27" transform="translate(243.83 54.748)" fill="#00104e" font-size="17" font-family="Roboto-Regular, Roboto"><tspan x="0" y="0">27</tspan></text>
      <text id="Por_favor_ingrese_un_número_3_El_Cuadrado_9_El_Cubo_27" data-name="Por favor ingrese un número
3
El Cuadrado 9
El Cubo 27" transform="translate(300.857 42.326)" fill="#00104e" font-size="13" font-family="Roboto-Regular, Roboto"><tspan x="0" y="12">Por favor ingrese un número</tspan><tspan x="0" y="34">3</tspan><tspan x="0" y="56">El Cuadrado 9</tspan><tspan x="0" y="78">El Cubo 27</tspan></text>
    </g>
    <path id="Trazado_29780" data-name="Trazado 29780" d="M7.539-5.273H2.867V-1.2H8.336V0H1.328V-11.375H8.25v1.211H2.867v3.68H7.539Zm8.68,2.406a1.711,1.711,0,0,0-.555-1.3,4.62,4.62,0,0,0-1.953-.891A6.5,6.5,0,0,1,11-6.32a2.655,2.655,0,0,1-.973-2.1,2.8,2.8,0,0,1,1.047-2.227,4.05,4.05,0,0,1,2.719-.891,3.971,3.971,0,0,1,2.863,1.02A3.088,3.088,0,0,1,17.7-8.141l-.023.047H16.2a2.1,2.1,0,0,0-.676-1.6,2.431,2.431,0,0,0-1.73-.633,2.37,2.37,0,0,0-1.652.523,1.754,1.754,0,0,0-.574,1.359A1.518,1.518,0,0,0,12.2-7.207a5.8,5.8,0,0,0,2.043.871,5.8,5.8,0,0,1,2.617,1.313,2.857,2.857,0,0,1,.9,2.141A2.657,2.657,0,0,1,16.676-.672a4.491,4.491,0,0,1-2.824.836,4.8,4.8,0,0,1-2.91-.922A2.81,2.81,0,0,1,9.719-3.227l.016-.047H11.2a1.912,1.912,0,0,0,.813,1.652,3.076,3.076,0,0,0,1.836.582,2.761,2.761,0,0,0,1.73-.492A1.6,1.6,0,0,0,16.219-2.867Zm11.836-.773.016.047a3.417,3.417,0,0,1-1.125,2.68A4.3,4.3,0,0,1,23.891.164,4.012,4.012,0,0,1,20.746-1.2a5.028,5.028,0,0,1-1.215-3.469V-6.7a5.043,5.043,0,0,1,1.215-3.473,4.006,4.006,0,0,1,3.145-1.371,4.416,4.416,0,0,1,3.07,1.027A3.4,3.4,0,0,1,28.07-7.789l-.016.047H26.578a2.539,2.539,0,0,0-.7-1.891,2.7,2.7,0,0,0-1.984-.7,2.424,2.424,0,0,0-2.055,1.039,4.227,4.227,0,0,0-.766,2.578v2.039a4.254,4.254,0,0,0,.766,2.594,2.424,2.424,0,0,0,2.055,1.039,2.71,2.71,0,0,0,1.984-.691,2.557,2.557,0,0,0,.7-1.91ZM31.609-4.93V0H30.07V-11.367h3.891a4.32,4.32,0,0,1,2.852.828A2.968,2.968,0,0,1,37.8-8.133a2.576,2.576,0,0,1-.457,1.523,3.1,3.1,0,0,1-1.332,1.031,2.331,2.331,0,0,1,1.348.988,3.236,3.236,0,0,1,.41,1.691v1.07a3.564,3.564,0,0,0,.117.953,1.429,1.429,0,0,0,.406.688V0H36.7a1.273,1.273,0,0,1-.391-.781,6.453,6.453,0,0,1-.086-1.062V-2.883a2.056,2.056,0,0,0-.539-1.484,1.908,1.908,0,0,0-1.445-.562Zm0-1.211h2.2a2.858,2.858,0,0,0,1.879-.5,1.89,1.89,0,0,0,.574-1.512A1.948,1.948,0,0,0,35.7-9.637a2.461,2.461,0,0,0-1.738-.527H31.609ZM41.953,0H40.406V-11.375h1.547Zm2.82,0V-11.375h3.711a4.5,4.5,0,0,1,2.789.77A2.722,2.722,0,0,1,52.281-8.3a2.087,2.087,0,0,1-.453,1.316,2.845,2.845,0,0,1-1.2.887,2.646,2.646,0,0,1,1.77.969,2.965,2.965,0,0,1,.652,1.914A2.9,2.9,0,0,1,52.031-.824,4.238,4.238,0,0,1,49.281,0Zm1.539-5.336V-1.2h2.969a2.374,2.374,0,0,0,1.637-.52A1.871,1.871,0,0,0,51.5-3.2a2.03,2.03,0,0,0-.594-1.523,2.334,2.334,0,0,0-1.6-.617H46.313Zm0-1.2H48.8a2.044,2.044,0,0,0,1.4-.473,1.659,1.659,0,0,0,.539-1.316,1.645,1.645,0,0,0-.582-1.379,2.664,2.664,0,0,0-1.676-.457H46.313ZM56.648,0H55.1V-11.375h1.547Zm4.359-4.93V0H59.469V-11.367h3.891a4.32,4.32,0,0,1,2.852.828A2.968,2.968,0,0,1,67.2-8.133a2.576,2.576,0,0,1-.457,1.523,3.1,3.1,0,0,1-1.332,1.031,2.331,2.331,0,0,1,1.348.988,3.236,3.236,0,0,1,.41,1.691v1.07a3.564,3.564,0,0,0,.117.953,1.429,1.429,0,0,0,.406.688V0H66.1a1.273,1.273,0,0,1-.391-.781,6.454,6.454,0,0,1-.086-1.062V-2.883a2.056,2.056,0,0,0-.539-1.484,1.908,1.908,0,0,0-1.445-.562Zm0-1.211h2.2a2.858,2.858,0,0,0,1.879-.5,1.89,1.89,0,0,0,.574-1.512A1.948,1.948,0,0,0,65.1-9.637a2.461,2.461,0,0,0-1.738-.527H61.008Zm8.344,1.523a10.458,10.458,0,0,1,1.242-5.258A7.19,7.19,0,0,1,73.2-12.781l.047.008.3.906a6.665,6.665,0,0,0-1.863,2.68,11.54,11.54,0,0,0-.793,4.555v.1A11.591,11.591,0,0,0,71.68.023a7.25,7.25,0,0,0,1.867,2.75l-.3.844H73.2a7.193,7.193,0,0,1-2.609-2.9,10.452,10.452,0,0,1-1.242-5.262ZM78.57-9.266l-.789,1.953h-.758v-4.062H78.57Zm-2.414,0-.789,1.953h-.758l.008-1.875v-2.187h1.539Zm6.063,4.7V0H80.68V-11.375h4.352a4.009,4.009,0,0,1,2.832.938,3.207,3.207,0,0,1,1.012,2.469,3.2,3.2,0,0,1-1.012,2.477,4.031,4.031,0,0,1-2.832.93Zm0-1.2h2.813a2.231,2.231,0,0,0,1.727-.621,2.227,2.227,0,0,0,.57-1.566,2.26,2.26,0,0,0-.574-1.578,2.21,2.21,0,0,0-1.723-.633H82.219ZM90.18-4.3A4.654,4.654,0,0,1,91.2-7.395a3.406,3.406,0,0,1,2.758-1.215A3.439,3.439,0,0,1,96.73-7.4,4.639,4.639,0,0,1,97.75-4.3v.172a4.631,4.631,0,0,1-1.016,3.094,3.429,3.429,0,0,1-2.766,1.2A3.436,3.436,0,0,1,91.2-1.043a4.623,4.623,0,0,1-1.02-3.09Zm1.539.172a4.009,4.009,0,0,0,.566,2.219,1.875,1.875,0,0,0,1.684.875,1.87,1.87,0,0,0,1.672-.875,3.988,3.988,0,0,0,.57-2.219V-4.3a3.976,3.976,0,0,0-.574-2.211A1.882,1.882,0,0,0,93.953-7.4a1.856,1.856,0,0,0-1.668.883A4.018,4.018,0,0,0,91.719-4.3Zm11.914-2.961-.789-.047a1.762,1.762,0,0,0-1.027.289,1.854,1.854,0,0,0-.645.813V0H99.633V-8.453h1.375l.148,1.234a2.934,2.934,0,0,1,.887-1.023,2.073,2.073,0,0,1,1.215-.367,1.9,1.9,0,0,1,.328.027,2.175,2.175,0,0,1,.258.059ZM109.852,0V-7.312h-1.32V-8.453h1.32v-1.07a2.9,2.9,0,0,1,.707-2.09,2.6,2.6,0,0,1,1.973-.738,3.4,3.4,0,0,1,.535.043q.27.043.6.121l-.187,1.172q-.141-.031-.34-.055a3.579,3.579,0,0,0-.418-.023,1.215,1.215,0,0,0-1,.4,1.809,1.809,0,0,0-.328,1.168v1.07h1.531v1.141h-1.531V0Zm9.82,0q-.078-.383-.121-.676a4.96,4.96,0,0,1-.051-.59,3.589,3.589,0,0,1-1.121,1.02,2.867,2.867,0,0,1-1.488.41,2.763,2.763,0,0,1-2.012-.676,2.486,2.486,0,0,1-.691-1.863,2.183,2.183,0,0,1,.98-1.895,4.579,4.579,0,0,1,2.66-.684H119.5v-.836a1.551,1.551,0,0,0-.453-1.176,1.779,1.779,0,0,0-1.281-.434,1.859,1.859,0,0,0-1.211.375,1.125,1.125,0,0,0-.461.9l-1.461.016-.016-.047a2.023,2.023,0,0,1,.863-1.687,3.578,3.578,0,0,1,2.371-.766,3.49,3.49,0,0,1,2.313.73,2.588,2.588,0,0,1,.875,2.105V-1.7a7.923,7.923,0,0,0,.047.875,4.5,4.5,0,0,0,.172.828Zm-2.555-1.125a2.739,2.739,0,0,0,1.508-.43,2.042,2.042,0,0,0,.875-.984V-3.914h-1.727a2.24,2.24,0,0,0-1.488.469,1.4,1.4,0,0,0-.559,1.1,1.159,1.159,0,0,0,.352.891A1.472,1.472,0,0,0,117.117-1.125Zm8.859-1.367.133.594h.047l.148-.594,1.945-5.961h1.57L126.711,0h-1.164L122.4-8.453h1.578Zm4.75-1.812a4.654,4.654,0,0,1,1.016-3.09A3.406,3.406,0,0,1,134.5-8.609,3.439,3.439,0,0,1,137.277-7.4,4.639,4.639,0,0,1,138.3-4.3v.172a4.631,4.631,0,0,1-1.016,3.094,3.429,3.429,0,0,1-2.766,1.2,3.436,3.436,0,0,1-2.77-1.207,4.623,4.623,0,0,1-1.02-3.09Zm1.539.172a4.009,4.009,0,0,0,.566,2.219,1.875,1.875,0,0,0,1.684.875,1.87,1.87,0,0,0,1.672-.875,3.988,3.988,0,0,0,.57-2.219V-4.3a3.976,3.976,0,0,0-.574-2.211A1.882,1.882,0,0,0,134.5-7.4a1.856,1.856,0,0,0-1.668.883,4.018,4.018,0,0,0-.566,2.211ZM144.18-7.094l-.789-.047a1.762,1.762,0,0,0-1.027.289,1.855,1.855,0,0,0-.645.813V0H140.18V-8.453h1.375l.148,1.234a2.934,2.934,0,0,1,.887-1.023,2.073,2.073,0,0,1,1.215-.367,1.9,1.9,0,0,1,.328.027,2.174,2.174,0,0,1,.258.059ZM151.422,0h-1.539V-8.453h1.539Zm0-10.617h-1.539v-1.57h1.539Zm3.742,2.164.109,1.258a3.069,3.069,0,0,1,1.059-1.043,2.824,2.824,0,0,1,1.449-.371,2.759,2.759,0,0,1,2.117.8,3.515,3.515,0,0,1,.75,2.473V0h-1.539V-5.3a2.287,2.287,0,0,0-.441-1.586,1.768,1.768,0,0,0-1.348-.469,2.386,2.386,0,0,0-1.207.285,2.072,2.072,0,0,0-.785.8V0h-1.539V-8.453Zm7.445,4.383a5.641,5.641,0,0,1,.871-3.289,2.8,2.8,0,0,1,2.434-1.25,2.966,2.966,0,0,1,1.414.324,2.845,2.845,0,0,1,1.023.934l.188-1.1h1.227v8.5a3.225,3.225,0,0,1-.945,2.5,3.884,3.884,0,0,1-2.727.871,5.717,5.717,0,0,1-1.316-.168,5.147,5.147,0,0,1-1.246-.457l.234-1.2a4.451,4.451,0,0,0,1.074.379,5.517,5.517,0,0,0,1.238.145,2.242,2.242,0,0,0,1.637-.512,2.12,2.12,0,0,0,.512-1.559V-.914a2.725,2.725,0,0,1-.992.8A3.091,3.091,0,0,1,165.9.164,2.89,2.89,0,0,1,163.48-.957a4.674,4.674,0,0,1-.871-2.949Zm1.539.164a3.592,3.592,0,0,0,.523,2.047,1.817,1.817,0,0,0,1.617.773,2.034,2.034,0,0,0,1.164-.316,2.4,2.4,0,0,0,.773-.895V-6.187a2.388,2.388,0,0,0-.773-.855,2.029,2.029,0,0,0-1.148-.316,1.752,1.752,0,0,0-1.629.914,4.718,4.718,0,0,0-.527,2.375Zm11.828-3.187-.789-.047a1.762,1.762,0,0,0-1.027.289,1.855,1.855,0,0,0-.645.813V0h-1.539V-8.453h1.375l.148,1.234a2.934,2.934,0,0,1,.887-1.023,2.073,2.073,0,0,1,1.215-.367,1.9,1.9,0,0,1,.328.027,2.174,2.174,0,0,1,.258.059ZM180.93.164A3.576,3.576,0,0,1,178.09-1a4.48,4.48,0,0,1-1.02-3.062v-.344a4.386,4.386,0,0,1,1.051-3.012,3.3,3.3,0,0,1,2.566-1.191,3.067,3.067,0,0,1,2.543,1.055,4.345,4.345,0,0,1,.848,2.8v.813h-5.406l-.023.039a3.494,3.494,0,0,0,.563,2.066,1.965,1.965,0,0,0,1.719.793,3.872,3.872,0,0,0,1.371-.223,3.061,3.061,0,0,0,1.012-.613l.6,1a3.7,3.7,0,0,1-1.2.738A4.762,4.762,0,0,1,180.93.164ZM180.688-7.4a1.673,1.673,0,0,0-1.332.621,2.938,2.938,0,0,0-.645,1.59l.016.039h3.813v-.125a2.462,2.462,0,0,0-.453-1.523A1.638,1.638,0,0,0,180.688-7.4Zm10.031,5.125a1.026,1.026,0,0,0-.387-.828,3.732,3.732,0,0,0-1.465-.562,6.146,6.146,0,0,1-2.293-.9,1.814,1.814,0,0,1-.8-1.547,2.229,2.229,0,0,1,.879-1.766,3.433,3.433,0,0,1,2.277-.734,3.4,3.4,0,0,1,2.328.781,2.239,2.239,0,0,1,.852,1.82l-.016.047h-1.469a1.331,1.331,0,0,0-.48-.992A1.717,1.717,0,0,0,188.93-7.4a1.751,1.751,0,0,0-1.215.367,1.146,1.146,0,0,0-.4.875.927.927,0,0,0,.348.773,3.848,3.848,0,0,0,1.434.5,6.058,6.058,0,0,1,2.359.93,1.872,1.872,0,0,1,.8,1.57,2.226,2.226,0,0,1-.91,1.836,3.754,3.754,0,0,1-2.379.711,3.715,3.715,0,0,1-2.547-.82,2.341,2.341,0,0,1-.883-1.914l.016-.047h1.469a1.424,1.424,0,0,0,.609,1.2,2.358,2.358,0,0,0,1.336.379,2.1,2.1,0,0,0,1.285-.348A1.063,1.063,0,0,0,190.719-2.273ZM197.672.164A3.576,3.576,0,0,1,194.832-1a4.48,4.48,0,0,1-1.02-3.062v-.344a4.386,4.386,0,0,1,1.051-3.012,3.3,3.3,0,0,1,2.566-1.191,3.067,3.067,0,0,1,2.543,1.055,4.345,4.345,0,0,1,.848,2.8v.813h-5.406l-.023.039a3.494,3.494,0,0,0,.563,2.066,1.965,1.965,0,0,0,1.719.793,3.872,3.872,0,0,0,1.371-.223,3.061,3.061,0,0,0,1.012-.613l.6,1a3.7,3.7,0,0,1-1.2.738A4.762,4.762,0,0,1,197.672.164ZM197.43-7.4a1.673,1.673,0,0,0-1.332.621,2.938,2.938,0,0,0-.645,1.59l.016.039h3.813v-.125a2.462,2.462,0,0,0-.453-1.523A1.638,1.638,0,0,0,197.43-7.4ZM211.891-1.25A2.863,2.863,0,0,1,210.867-.2a2.8,2.8,0,0,1-1.445.367,2.716,2.716,0,0,1-2.156-.883,4.1,4.1,0,0,1-.773-2.75V-8.453h1.539v5a3.147,3.147,0,0,0,.4,1.859,1.481,1.481,0,0,0,1.242.508,2.531,2.531,0,0,0,1.355-.332,2.077,2.077,0,0,0,.809-.941V-8.453h1.539V0h-1.383Zm5.1-7.2L217.1-7.2a3.069,3.069,0,0,1,1.059-1.043,2.824,2.824,0,0,1,1.449-.371,2.759,2.759,0,0,1,2.117.8,3.515,3.515,0,0,1,.75,2.473V0h-1.539V-5.3a2.287,2.287,0,0,0-.441-1.586,1.768,1.768,0,0,0-1.348-.469,2.386,2.386,0,0,0-1.207.285,2.072,2.072,0,0,0-.785.8V0h-1.539V-8.453Zm13.07,0,.109,1.258a3.069,3.069,0,0,1,1.059-1.043,2.824,2.824,0,0,1,1.449-.371,2.759,2.759,0,0,1,2.117.8,3.515,3.515,0,0,1,.75,2.473V0h-1.539V-5.3a2.287,2.287,0,0,0-.441-1.586,1.768,1.768,0,0,0-1.348-.469,2.386,2.386,0,0,0-1.207.285,2.072,2.072,0,0,0-.785.8V0h-1.539V-8.453Zm13.086,7.2A2.863,2.863,0,0,1,242.125-.2a2.8,2.8,0,0,1-1.445.367,2.716,2.716,0,0,1-2.156-.883,4.1,4.1,0,0,1-.773-2.75V-8.453h1.539v5a3.147,3.147,0,0,0,.4,1.859,1.481,1.481,0,0,0,1.242.508,2.531,2.531,0,0,0,1.355-.332,2.077,2.077,0,0,0,.809-.941V-8.453h1.539V0H243.25Zm-1.211-10.625h1.8l.016.047-2.1,2.031h-1.156Zm6.313,3.422.109,1.109a2.871,2.871,0,0,1,1.051-.934,3.158,3.158,0,0,1,1.48-.332,2.615,2.615,0,0,1,1.449.391,2.363,2.363,0,0,1,.91,1.172,3.162,3.162,0,0,1,1.059-1.145,2.769,2.769,0,0,1,1.527-.418,2.531,2.531,0,0,1,2.039.887,4.051,4.051,0,0,1,.75,2.668V0h-1.539V-5.07a2.81,2.81,0,0,0-.43-1.77,1.567,1.567,0,0,0-1.281-.52,1.631,1.631,0,0,0-1.277.547,2.381,2.381,0,0,0-.574,1.383V0h-1.547V-5.07a2.772,2.772,0,0,0-.441-1.738,1.532,1.532,0,0,0-1.27-.551,2.115,2.115,0,0,0-1.156.289,1.867,1.867,0,0,0-.7.813V0h-1.539V-8.453ZM264.359.164A3.576,3.576,0,0,1,261.52-1a4.48,4.48,0,0,1-1.02-3.062v-.344a4.386,4.386,0,0,1,1.051-3.012,3.3,3.3,0,0,1,2.566-1.191,3.067,3.067,0,0,1,2.543,1.055,4.345,4.345,0,0,1,.848,2.8v.813H262.1l-.023.039a3.494,3.494,0,0,0,.563,2.066,1.965,1.965,0,0,0,1.719.793,3.872,3.872,0,0,0,1.371-.223,3.061,3.061,0,0,0,1.012-.613l.6,1a3.7,3.7,0,0,1-1.2.738A4.762,4.762,0,0,1,264.359.164ZM264.117-7.4a1.673,1.673,0,0,0-1.332.621,2.938,2.938,0,0,0-.645,1.59l.016.039h3.813v-.125a2.461,2.461,0,0,0-.453-1.523A1.638,1.638,0,0,0,264.117-7.4Zm9.117.3-.789-.047a1.762,1.762,0,0,0-1.027.289,1.854,1.854,0,0,0-.645.813V0h-1.539V-8.453h1.375l.148,1.234a2.934,2.934,0,0,1,.887-1.023,2.073,2.073,0,0,1,1.215-.367,1.9,1.9,0,0,1,.328.027,2.176,2.176,0,0,1,.258.059ZM274.32-4.3a4.654,4.654,0,0,1,1.016-3.09,3.406,3.406,0,0,1,2.758-1.215A3.439,3.439,0,0,1,280.871-7.4a4.639,4.639,0,0,1,1.02,3.094v.172a4.631,4.631,0,0,1-1.016,3.094,3.429,3.429,0,0,1-2.766,1.2,3.436,3.436,0,0,1-2.77-1.207,4.623,4.623,0,0,1-1.02-3.09Zm1.539.172a4.009,4.009,0,0,0,.566,2.219,1.875,1.875,0,0,0,1.684.875,1.87,1.87,0,0,0,1.672-.875,3.988,3.988,0,0,0,.57-2.219V-4.3a3.976,3.976,0,0,0-.574-2.211,1.882,1.882,0,0,0-1.684-.883,1.856,1.856,0,0,0-1.668.883,4.018,4.018,0,0,0-.566,2.211Zm11.586-5.133-.789,1.953H285.9v-4.062h1.547Zm-2.414,0-.789,1.953h-.758l.008-1.875v-2.187h1.539Zm7.438,4.719A10.426,10.426,0,0,1,291.223.715a7.244,7.244,0,0,1-2.605,2.9h-.047l-.3-.844a6.653,6.653,0,0,0,1.855-2.7,11.749,11.749,0,0,0,.8-4.605v-.1a11.354,11.354,0,0,0-.824-4.559,7.532,7.532,0,0,0-1.832-2.746l.3-.844h.047a7.241,7.241,0,0,1,2.605,2.906,10.431,10.431,0,0,1,1.246,5.258Zm3.93-2.3h-1.539V-8.422H296.4Zm.055,6.469-1.172,2.391h-.914l.547-2.469V-1.727h1.539Z" transform="translate(204 5759)" fill="#00104e"/>
    <path id="Trazado_29781" data-name="Trazado 29781" d="M4.477-1.039a1.81,1.81,0,0,0,1.242-.473,1.494,1.494,0,0,0,.531-1.16H7.641l.023.047A2.428,2.428,0,0,1,6.727-.684a3.313,3.313,0,0,1-2.25.848,3.319,3.319,0,0,1-2.75-1.211A4.674,4.674,0,0,1,.758-4.062v-.328a4.654,4.654,0,0,1,.973-3A3.317,3.317,0,0,1,4.477-8.609a3.189,3.189,0,0,1,2.316.875,2.775,2.775,0,0,1,.871,2.148l-.016.047H6.25a1.865,1.865,0,0,0-.5-1.316A1.658,1.658,0,0,0,4.477-7.4a1.777,1.777,0,0,0-1.652.879A4.114,4.114,0,0,0,2.3-4.391v.328a4.192,4.192,0,0,0,.512,2.148A1.776,1.776,0,0,0,4.477-1.039ZM14.859-1.25A2.863,2.863,0,0,1,13.836-.2a2.8,2.8,0,0,1-1.445.367,2.716,2.716,0,0,1-2.156-.883,4.1,4.1,0,0,1-.773-2.75V-8.453H11v5a3.147,3.147,0,0,0,.4,1.859,1.481,1.481,0,0,0,1.242.508A2.531,2.531,0,0,0,14-1.418a2.077,2.077,0,0,0,.809-.941V-8.453h1.539V0H14.961ZM23.781,0Q23.7-.383,23.66-.676a4.96,4.96,0,0,1-.051-.59,3.589,3.589,0,0,1-1.121,1.02A2.867,2.867,0,0,1,21,.164a2.763,2.763,0,0,1-2.012-.676A2.486,2.486,0,0,1,18.3-2.375a2.183,2.183,0,0,1,.98-1.895,4.579,4.579,0,0,1,2.66-.684h1.672v-.836a1.551,1.551,0,0,0-.453-1.176A1.779,1.779,0,0,0,21.875-7.4a1.859,1.859,0,0,0-1.211.375,1.125,1.125,0,0,0-.461.9l-1.461.016-.016-.047a2.023,2.023,0,0,1,.863-1.687,3.578,3.578,0,0,1,2.371-.766,3.49,3.49,0,0,1,2.313.73,2.588,2.588,0,0,1,.875,2.105V-1.7a7.923,7.923,0,0,0,.047.875A4.5,4.5,0,0,0,25.367,0ZM21.227-1.125a2.739,2.739,0,0,0,1.508-.43,2.042,2.042,0,0,0,.875-.984V-3.914H21.883a2.24,2.24,0,0,0-1.488.469,1.4,1.4,0,0,0-.559,1.1,1.159,1.159,0,0,0,.352.891A1.472,1.472,0,0,0,21.227-1.125Zm5.8-2.945A5.641,5.641,0,0,1,27.9-7.359a2.807,2.807,0,0,1,2.441-1.25,3.027,3.027,0,0,1,1.316.273,2.7,2.7,0,0,1,.98.8v-4.648H34.18V0H33l-.234-1.07a2.743,2.743,0,0,1-1.023.922,3.058,3.058,0,0,1-1.414.313A2.9,2.9,0,0,1,27.906-.957a4.659,4.659,0,0,1-.875-2.949Zm1.539.164a3.588,3.588,0,0,0,.523,2.051,1.828,1.828,0,0,0,1.625.77A2.039,2.039,0,0,0,31.875-1.4a2.334,2.334,0,0,0,.766-.875V-6.219a2.37,2.37,0,0,0-.77-.832,2.033,2.033,0,0,0-1.137-.309,1.759,1.759,0,0,0-1.637.914A4.718,4.718,0,0,0,28.57-4.07ZM40.477-7.094l-.789-.047a1.762,1.762,0,0,0-1.027.289,1.855,1.855,0,0,0-.645.813V0H36.477V-8.453h1.375L38-7.219a2.934,2.934,0,0,1,.887-1.023A2.073,2.073,0,0,1,40.1-8.609a1.9,1.9,0,0,1,.328.027,2.175,2.175,0,0,1,.258.059ZM47.273,0q-.078-.383-.121-.676a4.96,4.96,0,0,1-.051-.59A3.589,3.589,0,0,1,45.98-.246a2.867,2.867,0,0,1-1.488.41A2.763,2.763,0,0,1,42.48-.512a2.486,2.486,0,0,1-.691-1.863,2.183,2.183,0,0,1,.98-1.895,4.579,4.579,0,0,1,2.66-.684H47.1v-.836a1.551,1.551,0,0,0-.453-1.176A1.779,1.779,0,0,0,45.367-7.4a1.859,1.859,0,0,0-1.211.375,1.125,1.125,0,0,0-.461.9l-1.461.016-.016-.047a2.023,2.023,0,0,1,.863-1.687,3.578,3.578,0,0,1,2.371-.766,3.49,3.49,0,0,1,2.313.73,2.588,2.588,0,0,1,.875,2.105V-1.7a7.923,7.923,0,0,0,.047.875A4.5,4.5,0,0,0,48.859,0ZM44.719-1.125a2.739,2.739,0,0,0,1.508-.43,2.042,2.042,0,0,0,.875-.984V-3.914H45.375a2.24,2.24,0,0,0-1.488.469,1.4,1.4,0,0,0-.559,1.1,1.159,1.159,0,0,0,.352.891A1.472,1.472,0,0,0,44.719-1.125Zm5.8-2.945a5.641,5.641,0,0,1,.871-3.289,2.807,2.807,0,0,1,2.441-1.25,3.027,3.027,0,0,1,1.316.273,2.7,2.7,0,0,1,.98.8v-4.648h1.539V0h-1.18l-.234-1.07a2.743,2.743,0,0,1-1.023.922A3.058,3.058,0,0,1,53.82.164,2.9,2.9,0,0,1,51.4-.957a4.659,4.659,0,0,1-.875-2.949Zm1.539.164a3.588,3.588,0,0,0,.523,2.051,1.828,1.828,0,0,0,1.625.77A2.039,2.039,0,0,0,55.367-1.4a2.334,2.334,0,0,0,.766-.875V-6.219a2.37,2.37,0,0,0-.77-.832,2.033,2.033,0,0,0-1.137-.309,1.759,1.759,0,0,0-1.637.914,4.718,4.718,0,0,0-.527,2.375Zm7.547-.4a4.654,4.654,0,0,1,1.016-3.09,3.406,3.406,0,0,1,2.758-1.215A3.439,3.439,0,0,1,66.16-7.4,4.639,4.639,0,0,1,67.18-4.3v.172a4.631,4.631,0,0,1-1.016,3.094A3.429,3.429,0,0,1,63.4.164a3.436,3.436,0,0,1-2.77-1.207,4.623,4.623,0,0,1-1.02-3.09Zm1.539.172a4.009,4.009,0,0,0,.566,2.219,1.875,1.875,0,0,0,1.684.875,1.87,1.87,0,0,0,1.672-.875,3.988,3.988,0,0,0,.57-2.219V-4.3a3.976,3.976,0,0,0-.574-2.211A1.882,1.882,0,0,0,63.383-7.4a1.856,1.856,0,0,0-1.668.883A4.018,4.018,0,0,0,61.148-4.3Zm13.336-.391-.664.141v.047l.664.148,4.367,1.781v1.57L72.477-3.8V-4.961l6.375-2.953v1.57ZM87.75-6.43H81.234V-7.711H87.75Zm0,3.25H81.234V-4.461H87.75Zm9.9,3.344A3.576,3.576,0,0,1,94.809-1a4.48,4.48,0,0,1-1.02-3.062v-.344A4.386,4.386,0,0,1,94.84-7.418a3.3,3.3,0,0,1,2.566-1.191,3.067,3.067,0,0,1,2.543,1.055,4.345,4.345,0,0,1,.848,2.8v.813H95.391l-.023.039a3.494,3.494,0,0,0,.563,2.066,1.965,1.965,0,0,0,1.719.793,3.872,3.872,0,0,0,1.371-.223,3.061,3.061,0,0,0,1.012-.613l.6,1a3.7,3.7,0,0,1-1.2.738A4.762,4.762,0,0,1,97.648.164ZM97.406-7.4a1.673,1.673,0,0,0-1.332.621,2.938,2.938,0,0,0-.645,1.59l.016.039h3.813v-.125A2.462,2.462,0,0,0,98.8-6.8,1.638,1.638,0,0,0,97.406-7.4ZM103.9-8.453l.109,1.258a3.069,3.069,0,0,1,1.059-1.043,2.824,2.824,0,0,1,1.449-.371,2.759,2.759,0,0,1,2.117.8,3.515,3.515,0,0,1,.75,2.473V0h-1.539V-5.3a2.287,2.287,0,0,0-.441-1.586,1.768,1.768,0,0,0-1.348-.469,2.386,2.386,0,0,0-1.207.285,2.072,2.072,0,0,0-.785.8V0h-1.539V-8.453Zm9.859-2.039v2.039h1.6v1.141h-1.6V-2.18a1.149,1.149,0,0,0,.246.836.89.89,0,0,0,.652.242,1.43,1.43,0,0,0,.3-.035,2.2,2.2,0,0,0,.273-.074l.211,1.055a1.36,1.36,0,0,1-.508.23,2.562,2.562,0,0,1-.664.09A1.993,1.993,0,0,1,112.773-.4a2.46,2.46,0,0,1-.555-1.777V-7.312h-1.344V-8.453h1.344v-2.039Zm7.25,3.4-.789-.047a1.762,1.762,0,0,0-1.027.289,1.854,1.854,0,0,0-.645.813V0h-1.539V-8.453h1.375l.148,1.234a2.934,2.934,0,0,1,.887-1.023,2.073,2.073,0,0,1,1.215-.367,1.9,1.9,0,0,1,.328.027,2.175,2.175,0,0,1,.258.059ZM127.8,0q-.078-.383-.121-.676a4.96,4.96,0,0,1-.051-.59,3.589,3.589,0,0,1-1.121,1.02,2.867,2.867,0,0,1-1.488.41,2.763,2.763,0,0,1-2.012-.676,2.486,2.486,0,0,1-.691-1.863,2.183,2.183,0,0,1,.98-1.895,4.579,4.579,0,0,1,2.66-.684h1.672v-.836a1.551,1.551,0,0,0-.453-1.176A1.779,1.779,0,0,0,125.9-7.4a1.859,1.859,0,0,0-1.211.375,1.125,1.125,0,0,0-.461.9l-1.461.016-.016-.047a2.023,2.023,0,0,1,.863-1.687,3.578,3.578,0,0,1,2.371-.766,3.49,3.49,0,0,1,2.313.73,2.588,2.588,0,0,1,.875,2.105V-1.7a7.923,7.923,0,0,0,.047.875,4.5,4.5,0,0,0,.172.828ZM125.25-1.125a2.739,2.739,0,0,0,1.508-.43,2.042,2.042,0,0,0,.875-.984V-3.914h-1.727a2.24,2.24,0,0,0-1.488.469,1.4,1.4,0,0,0-.559,1.1,1.159,1.159,0,0,0,.352.891A1.472,1.472,0,0,0,125.25-1.125Zm5.8-2.945a5.641,5.641,0,0,1,.871-3.289,2.807,2.807,0,0,1,2.441-1.25,3.027,3.027,0,0,1,1.316.273,2.7,2.7,0,0,1,.98.8v-4.648H138.2V0h-1.18l-.234-1.07a2.743,2.743,0,0,1-1.023.922,3.058,3.058,0,0,1-1.414.313A2.9,2.9,0,0,1,131.93-.957a4.659,4.659,0,0,1-.875-2.949Zm1.539.164a3.588,3.588,0,0,0,.523,2.051,1.828,1.828,0,0,0,1.625.77A2.039,2.039,0,0,0,135.9-1.4a2.334,2.334,0,0,0,.766-.875V-6.219a2.37,2.37,0,0,0-.77-.832,2.033,2.033,0,0,0-1.137-.309,1.759,1.759,0,0,0-1.637.914,4.718,4.718,0,0,0-.527,2.375ZM145.7,0q-.078-.383-.121-.676a4.96,4.96,0,0,1-.051-.59A3.588,3.588,0,0,1,144.4-.246a2.867,2.867,0,0,1-1.488.41A2.763,2.763,0,0,1,140.9-.512a2.486,2.486,0,0,1-.691-1.863,2.183,2.183,0,0,1,.98-1.895,4.579,4.579,0,0,1,2.66-.684h1.672v-.836a1.551,1.551,0,0,0-.453-1.176,1.779,1.779,0,0,0-1.281-.434,1.859,1.859,0,0,0-1.211.375,1.125,1.125,0,0,0-.461.9l-1.461.016-.016-.047a2.023,2.023,0,0,1,.863-1.687,3.578,3.578,0,0,1,2.371-.766,3.49,3.49,0,0,1,2.313.73,2.588,2.588,0,0,1,.875,2.105V-1.7a7.923,7.923,0,0,0,.047.875,4.5,4.5,0,0,0,.172.828Zm-2.555-1.125a2.739,2.739,0,0,0,1.508-.43,2.042,2.042,0,0,0,.875-.984V-3.914H143.8a2.24,2.24,0,0,0-1.488.469,1.4,1.4,0,0,0-.559,1.1,1.159,1.159,0,0,0,.352.891A1.472,1.472,0,0,0,143.141-1.125Zm11.547-4.312-1.844-.523.383-1.2,1.844.7-.078-1.984h1.258l-.078,2.031,1.82-.7.375,1.219-1.891.531,1.2,1.563-1.031.75-1.094-1.7-1.055,1.641-1.039-.719Zm12.969,5.6A3.576,3.576,0,0,1,164.816-1a4.48,4.48,0,0,1-1.02-3.062v-.344a4.386,4.386,0,0,1,1.051-3.012,3.3,3.3,0,0,1,2.566-1.191,3.067,3.067,0,0,1,2.543,1.055,4.345,4.345,0,0,1,.848,2.8v.813H165.4l-.023.039a3.494,3.494,0,0,0,.563,2.066,1.965,1.965,0,0,0,1.719.793,3.872,3.872,0,0,0,1.371-.223,3.061,3.061,0,0,0,1.012-.613l.6,1a3.7,3.7,0,0,1-1.2.738A4.762,4.762,0,0,1,167.656.164ZM167.414-7.4a1.673,1.673,0,0,0-1.332.621,2.938,2.938,0,0,0-.645,1.59l.016.039h3.813v-.125a2.462,2.462,0,0,0-.453-1.523A1.638,1.638,0,0,0,167.414-7.4Zm6.492-1.055.109,1.258a3.069,3.069,0,0,1,1.059-1.043,2.824,2.824,0,0,1,1.449-.371,2.759,2.759,0,0,1,2.117.8,3.515,3.515,0,0,1,.75,2.473V0h-1.539V-5.3a2.287,2.287,0,0,0-.441-1.586,1.768,1.768,0,0,0-1.348-.469,2.386,2.386,0,0,0-1.207.285,2.072,2.072,0,0,0-.785.8V0h-1.539V-8.453Zm9.859-2.039v2.039h1.6v1.141h-1.6V-2.18a1.149,1.149,0,0,0,.246.836.89.89,0,0,0,.652.242,1.429,1.429,0,0,0,.3-.035,2.2,2.2,0,0,0,.273-.074l.211,1.055a1.36,1.36,0,0,1-.508.23,2.562,2.562,0,0,1-.664.09A1.993,1.993,0,0,1,182.781-.4a2.46,2.46,0,0,1-.555-1.777V-7.312h-1.344V-8.453h1.344v-2.039Zm7.25,3.4-.789-.047a1.762,1.762,0,0,0-1.027.289,1.855,1.855,0,0,0-.645.813V0h-1.539V-8.453h1.375l.148,1.234a2.934,2.934,0,0,1,.887-1.023,2.073,2.073,0,0,1,1.215-.367,1.9,1.9,0,0,1,.328.027,2.174,2.174,0,0,1,.258.059ZM197.813,0q-.078-.383-.121-.676a4.96,4.96,0,0,1-.051-.59,3.588,3.588,0,0,1-1.121,1.02,2.867,2.867,0,0,1-1.488.41,2.763,2.763,0,0,1-2.012-.676,2.486,2.486,0,0,1-.691-1.863,2.183,2.183,0,0,1,.98-1.895,4.579,4.579,0,0,1,2.66-.684h1.672v-.836a1.551,1.551,0,0,0-.453-1.176,1.779,1.779,0,0,0-1.281-.434,1.859,1.859,0,0,0-1.211.375,1.125,1.125,0,0,0-.461.9l-1.461.016-.016-.047a2.023,2.023,0,0,1,.863-1.687,3.578,3.578,0,0,1,2.371-.766,3.49,3.49,0,0,1,2.313.73,2.588,2.588,0,0,1,.875,2.105V-1.7a7.923,7.923,0,0,0,.047.875A4.5,4.5,0,0,0,199.4,0Zm-2.555-1.125a2.739,2.739,0,0,0,1.508-.43,2.042,2.042,0,0,0,.875-.984V-3.914h-1.727a2.24,2.24,0,0,0-1.488.469,1.4,1.4,0,0,0-.559,1.1,1.159,1.159,0,0,0,.352.891A1.472,1.472,0,0,0,195.258-1.125Zm5.8-2.945a5.641,5.641,0,0,1,.871-3.289,2.807,2.807,0,0,1,2.441-1.25,3.027,3.027,0,0,1,1.316.273,2.7,2.7,0,0,1,.98.8v-4.648h1.539V0h-1.18L206.8-1.07a2.743,2.743,0,0,1-1.023.922,3.058,3.058,0,0,1-1.414.313,2.9,2.9,0,0,1-2.422-1.121,4.659,4.659,0,0,1-.875-2.949Zm1.539.164a3.588,3.588,0,0,0,.523,2.051,1.828,1.828,0,0,0,1.625.77,2.039,2.039,0,0,0,1.156-.312,2.334,2.334,0,0,0,.766-.875V-6.219a2.37,2.37,0,0,0-.77-.832,2.033,2.033,0,0,0-1.137-.309,1.759,1.759,0,0,0-1.637.914A4.718,4.718,0,0,0,202.6-4.07ZM215.7,0q-.078-.383-.121-.676a4.96,4.96,0,0,1-.051-.59,3.588,3.588,0,0,1-1.121,1.02,2.867,2.867,0,0,1-1.488.41,2.763,2.763,0,0,1-2.012-.676,2.486,2.486,0,0,1-.691-1.863,2.183,2.183,0,0,1,.98-1.895,4.579,4.579,0,0,1,2.66-.684h1.672v-.836a1.551,1.551,0,0,0-.453-1.176A1.779,1.779,0,0,0,213.8-7.4a1.859,1.859,0,0,0-1.211.375,1.125,1.125,0,0,0-.461.9l-1.461.016-.016-.047a2.023,2.023,0,0,1,.863-1.687,3.578,3.578,0,0,1,2.371-.766,3.49,3.49,0,0,1,2.313.73,2.588,2.588,0,0,1,.875,2.105V-1.7a7.923,7.923,0,0,0,.047.875,4.5,4.5,0,0,0,.172.828Zm-2.555-1.125a2.739,2.739,0,0,0,1.508-.43,2.042,2.042,0,0,0,.875-.984V-3.914H213.8a2.24,2.24,0,0,0-1.488.469,1.4,1.4,0,0,0-.559,1.1,1.159,1.159,0,0,0,.352.891A1.472,1.472,0,0,0,213.148-1.125Zm7.844-5.719h-1.539V-8.422h1.539Zm.055,6.469-1.172,2.391h-.914l.547-2.469V-1.727h1.539Z" transform="translate(204 5971)" fill="#00104e"/>
    <path id="Trazado_29783" data-name="Trazado 29783" d="M7.539-5.273H2.867V-1.2H8.336V0H1.328V-11.375H8.25v1.211H2.867v3.68H7.539Zm8.68,2.406a1.711,1.711,0,0,0-.555-1.3,4.62,4.62,0,0,0-1.953-.891A6.5,6.5,0,0,1,11-6.32a2.655,2.655,0,0,1-.973-2.1,2.8,2.8,0,0,1,1.047-2.227,4.05,4.05,0,0,1,2.719-.891,3.971,3.971,0,0,1,2.863,1.02A3.088,3.088,0,0,1,17.7-8.141l-.023.047H16.2a2.1,2.1,0,0,0-.676-1.6,2.431,2.431,0,0,0-1.73-.633,2.37,2.37,0,0,0-1.652.523,1.754,1.754,0,0,0-.574,1.359A1.518,1.518,0,0,0,12.2-7.207a5.8,5.8,0,0,0,2.043.871,5.8,5.8,0,0,1,2.617,1.313,2.857,2.857,0,0,1,.9,2.141A2.657,2.657,0,0,1,16.676-.672a4.491,4.491,0,0,1-2.824.836,4.8,4.8,0,0,1-2.91-.922A2.81,2.81,0,0,1,9.719-3.227l.016-.047H11.2a1.912,1.912,0,0,0,.813,1.652,3.076,3.076,0,0,0,1.836.582,2.761,2.761,0,0,0,1.73-.492A1.6,1.6,0,0,0,16.219-2.867Zm11.836-.773.016.047a3.417,3.417,0,0,1-1.125,2.68A4.3,4.3,0,0,1,23.891.164,4.012,4.012,0,0,1,20.746-1.2a5.028,5.028,0,0,1-1.215-3.469V-6.7a5.043,5.043,0,0,1,1.215-3.473,4.006,4.006,0,0,1,3.145-1.371,4.416,4.416,0,0,1,3.07,1.027A3.4,3.4,0,0,1,28.07-7.789l-.016.047H26.578a2.539,2.539,0,0,0-.7-1.891,2.7,2.7,0,0,0-1.984-.7,2.424,2.424,0,0,0-2.055,1.039,4.227,4.227,0,0,0-.766,2.578v2.039a4.254,4.254,0,0,0,.766,2.594,2.424,2.424,0,0,0,2.055,1.039,2.71,2.71,0,0,0,1.984-.691,2.557,2.557,0,0,0,.7-1.91ZM31.609-4.93V0H30.07V-11.367h3.891a4.32,4.32,0,0,1,2.852.828A2.968,2.968,0,0,1,37.8-8.133a2.576,2.576,0,0,1-.457,1.523,3.1,3.1,0,0,1-1.332,1.031,2.331,2.331,0,0,1,1.348.988,3.236,3.236,0,0,1,.41,1.691v1.07a3.564,3.564,0,0,0,.117.953,1.429,1.429,0,0,0,.406.688V0H36.7a1.273,1.273,0,0,1-.391-.781,6.453,6.453,0,0,1-.086-1.062V-2.883a2.056,2.056,0,0,0-.539-1.484,1.908,1.908,0,0,0-1.445-.562Zm0-1.211h2.2a2.858,2.858,0,0,0,1.879-.5,1.89,1.89,0,0,0,.574-1.512A1.948,1.948,0,0,0,35.7-9.637a2.461,2.461,0,0,0-1.738-.527H31.609ZM41.953,0H40.406V-11.375h1.547Zm2.82,0V-11.375h3.711a4.5,4.5,0,0,1,2.789.77A2.722,2.722,0,0,1,52.281-8.3a2.087,2.087,0,0,1-.453,1.316,2.845,2.845,0,0,1-1.2.887,2.646,2.646,0,0,1,1.77.969,2.965,2.965,0,0,1,.652,1.914A2.9,2.9,0,0,1,52.031-.824,4.238,4.238,0,0,1,49.281,0Zm1.539-5.336V-1.2h2.969a2.374,2.374,0,0,0,1.637-.52A1.871,1.871,0,0,0,51.5-3.2a2.03,2.03,0,0,0-.594-1.523,2.334,2.334,0,0,0-1.6-.617H46.313Zm0-1.2H48.8a2.044,2.044,0,0,0,1.4-.473,1.659,1.659,0,0,0,.539-1.316,1.645,1.645,0,0,0-.582-1.379,2.664,2.664,0,0,0-1.676-.457H46.313ZM56.648,0H55.1V-11.375h1.547Zm4.359-4.93V0H59.469V-11.367h3.891a4.32,4.32,0,0,1,2.852.828A2.968,2.968,0,0,1,67.2-8.133a2.576,2.576,0,0,1-.457,1.523,3.1,3.1,0,0,1-1.332,1.031,2.331,2.331,0,0,1,1.348.988,3.236,3.236,0,0,1,.41,1.691v1.07a3.564,3.564,0,0,0,.117.953,1.429,1.429,0,0,0,.406.688V0H66.1a1.273,1.273,0,0,1-.391-.781,6.454,6.454,0,0,1-.086-1.062V-2.883a2.056,2.056,0,0,0-.539-1.484,1.908,1.908,0,0,0-1.445-.562Zm0-1.211h2.2a2.858,2.858,0,0,0,1.879-.5,1.89,1.89,0,0,0,.574-1.512A1.948,1.948,0,0,0,65.1-9.637a2.461,2.461,0,0,0-1.738-.527H61.008Zm8.344,1.523a10.458,10.458,0,0,1,1.242-5.258A7.19,7.19,0,0,1,73.2-12.781l.047.008.3.906a6.665,6.665,0,0,0-1.863,2.68,11.54,11.54,0,0,0-.793,4.555v.1A11.591,11.591,0,0,0,71.68.023a7.25,7.25,0,0,0,1.867,2.75l-.3.844H73.2a7.193,7.193,0,0,1-2.609-2.9,10.452,10.452,0,0,1-1.242-5.262ZM82.078-1.039a1.81,1.81,0,0,0,1.242-.473,1.494,1.494,0,0,0,.531-1.16h1.391l.023.047a2.428,2.428,0,0,1-.937,1.941,3.313,3.313,0,0,1-2.25.848,3.319,3.319,0,0,1-2.75-1.211,4.674,4.674,0,0,1-.969-3.016v-.328a4.654,4.654,0,0,1,.973-3,3.317,3.317,0,0,1,2.746-1.215,3.189,3.189,0,0,1,2.316.875,2.775,2.775,0,0,1,.871,2.148l-.016.047h-1.4a1.865,1.865,0,0,0-.5-1.316,1.658,1.658,0,0,0-1.27-.543,1.777,1.777,0,0,0-1.652.879,4.114,4.114,0,0,0-.52,2.129v.328a4.192,4.192,0,0,0,.512,2.148A1.776,1.776,0,0,0,82.078-1.039ZM92.461-1.25A2.863,2.863,0,0,1,91.438-.2a2.8,2.8,0,0,1-1.445.367,2.716,2.716,0,0,1-2.156-.883,4.1,4.1,0,0,1-.773-2.75V-8.453H88.6v5A3.147,3.147,0,0,0,89-1.594a1.481,1.481,0,0,0,1.242.508A2.531,2.531,0,0,0,91.6-1.418a2.077,2.077,0,0,0,.809-.941V-8.453h1.539V0H92.563ZM101.383,0q-.078-.383-.121-.676a4.96,4.96,0,0,1-.051-.59,3.589,3.589,0,0,1-1.121,1.02A2.867,2.867,0,0,1,98.6.164,2.763,2.763,0,0,1,96.59-.512,2.486,2.486,0,0,1,95.9-2.375a2.183,2.183,0,0,1,.98-1.895,4.579,4.579,0,0,1,2.66-.684h1.672v-.836a1.551,1.551,0,0,0-.453-1.176A1.779,1.779,0,0,0,99.477-7.4a1.859,1.859,0,0,0-1.211.375,1.125,1.125,0,0,0-.461.9l-1.461.016-.016-.047a2.023,2.023,0,0,1,.863-1.687,3.578,3.578,0,0,1,2.371-.766,3.49,3.49,0,0,1,2.313.73,2.588,2.588,0,0,1,.875,2.105V-1.7a7.923,7.923,0,0,0,.047.875,4.5,4.5,0,0,0,.172.828ZM98.828-1.125a2.739,2.739,0,0,0,1.508-.43,2.042,2.042,0,0,0,.875-.984V-3.914H99.484A2.24,2.24,0,0,0,98-3.445a1.4,1.4,0,0,0-.559,1.1,1.159,1.159,0,0,0,.352.891A1.472,1.472,0,0,0,98.828-1.125Zm5.8-2.945a5.641,5.641,0,0,1,.871-3.289,2.807,2.807,0,0,1,2.441-1.25,3.027,3.027,0,0,1,1.316.273,2.7,2.7,0,0,1,.98.8v-4.648h1.539V0H110.6l-.234-1.07a2.743,2.743,0,0,1-1.023.922,3.058,3.058,0,0,1-1.414.313,2.9,2.9,0,0,1-2.422-1.121,4.659,4.659,0,0,1-.875-2.949Zm1.539.164a3.588,3.588,0,0,0,.523,2.051,1.828,1.828,0,0,0,1.625.77,2.039,2.039,0,0,0,1.156-.312,2.334,2.334,0,0,0,.766-.875V-6.219a2.37,2.37,0,0,0-.77-.832,2.033,2.033,0,0,0-1.137-.309,1.759,1.759,0,0,0-1.637.914,4.718,4.718,0,0,0-.527,2.375Zm11.906-3.187-.789-.047a1.762,1.762,0,0,0-1.027.289,1.854,1.854,0,0,0-.645.813V0h-1.539V-8.453h1.375l.148,1.234a2.934,2.934,0,0,1,.887-1.023,2.073,2.073,0,0,1,1.215-.367,1.9,1.9,0,0,1,.328.027,2.175,2.175,0,0,1,.258.059ZM124.875,0q-.078-.383-.121-.676a4.96,4.96,0,0,1-.051-.59,3.589,3.589,0,0,1-1.121,1.02,2.867,2.867,0,0,1-1.488.41,2.763,2.763,0,0,1-2.012-.676,2.486,2.486,0,0,1-.691-1.863,2.183,2.183,0,0,1,.98-1.895,4.579,4.579,0,0,1,2.66-.684H124.7v-.836a1.551,1.551,0,0,0-.453-1.176,1.779,1.779,0,0,0-1.281-.434,1.859,1.859,0,0,0-1.211.375,1.125,1.125,0,0,0-.461.9l-1.461.016-.016-.047a2.023,2.023,0,0,1,.863-1.687,3.578,3.578,0,0,1,2.371-.766,3.49,3.49,0,0,1,2.313.73,2.588,2.588,0,0,1,.875,2.105V-1.7a7.923,7.923,0,0,0,.047.875,4.5,4.5,0,0,0,.172.828ZM122.32-1.125a2.739,2.739,0,0,0,1.508-.43,2.042,2.042,0,0,0,.875-.984V-3.914h-1.727a2.24,2.24,0,0,0-1.488.469,1.4,1.4,0,0,0-.559,1.1,1.159,1.159,0,0,0,.352.891A1.472,1.472,0,0,0,122.32-1.125Zm5.8-2.945A5.641,5.641,0,0,1,129-7.359a2.807,2.807,0,0,1,2.441-1.25,3.027,3.027,0,0,1,1.316.273,2.7,2.7,0,0,1,.98.8v-4.648h1.539V0h-1.18l-.234-1.07a2.743,2.743,0,0,1-1.023.922,3.058,3.058,0,0,1-1.414.313A2.9,2.9,0,0,1,129-.957a4.659,4.659,0,0,1-.875-2.949Zm1.539.164a3.588,3.588,0,0,0,.523,2.051,1.828,1.828,0,0,0,1.625.77,2.039,2.039,0,0,0,1.156-.312,2.334,2.334,0,0,0,.766-.875V-6.219a2.37,2.37,0,0,0-.77-.832,2.033,2.033,0,0,0-1.137-.309,1.759,1.759,0,0,0-1.637.914,4.718,4.718,0,0,0-.527,2.375Zm7.547-.4a4.654,4.654,0,0,1,1.016-3.09,3.406,3.406,0,0,1,2.758-1.215A3.439,3.439,0,0,1,143.762-7.4a4.639,4.639,0,0,1,1.02,3.094v.172a4.631,4.631,0,0,1-1.016,3.094A3.429,3.429,0,0,1,141,.164a3.436,3.436,0,0,1-2.77-1.207,4.623,4.623,0,0,1-1.02-3.09Zm1.539.172a4.009,4.009,0,0,0,.566,2.219A1.875,1.875,0,0,0,141-1.039a1.87,1.87,0,0,0,1.672-.875,3.988,3.988,0,0,0,.57-2.219V-4.3a3.976,3.976,0,0,0-.574-2.211,1.882,1.882,0,0,0-1.684-.883,1.856,1.856,0,0,0-1.668.883A4.018,4.018,0,0,0,138.75-4.3Zm15.016-.414A10.426,10.426,0,0,1,152.52.715a7.244,7.244,0,0,1-2.605,2.9h-.047l-.3-.844a6.653,6.653,0,0,0,1.855-2.7,11.749,11.749,0,0,0,.8-4.605v-.1a11.354,11.354,0,0,0-.824-4.559,7.532,7.532,0,0,0-1.832-2.746l.3-.844h.047a7.241,7.241,0,0,1,2.605,2.906,10.431,10.431,0,0,1,1.246,5.258Zm3.93-2.3h-1.539V-8.422H157.7Zm.055,6.469-1.172,2.391h-.914l.547-2.469V-1.727h1.539Z" transform="translate(204 6183)" fill="#00104e"/>
    <path id="Trazado_29779" data-name="Trazado 29779" d="M2.867-1.2H8.414V0H1.328V-11.375H2.867Zm13.469-4.07H11.664V-1.2h5.469V0H10.125V-11.375h6.922v1.211H11.664v3.68h4.672Zm8.828,0H20.492V-1.2h5.469V0H18.953V-11.375h6.922v1.211H20.492v3.68h4.672Zm4.156.344V0H27.781V-11.367h3.891a4.32,4.32,0,0,1,2.852.828,2.968,2.968,0,0,1,.984,2.406,2.576,2.576,0,0,1-.457,1.523,3.1,3.1,0,0,1-1.332,1.031,2.331,2.331,0,0,1,1.348.988,3.236,3.236,0,0,1,.41,1.691v1.07a3.564,3.564,0,0,0,.117.953A1.429,1.429,0,0,0,36-.187V0H34.414a1.273,1.273,0,0,1-.391-.781,6.453,6.453,0,0,1-.086-1.062V-2.883A2.056,2.056,0,0,0,33.4-4.367a1.908,1.908,0,0,0-1.445-.562Zm0-1.211h2.2a2.858,2.858,0,0,0,1.879-.5,1.89,1.89,0,0,0,.574-1.512,1.948,1.948,0,0,0-.559-1.488,2.461,2.461,0,0,0-1.738-.527H29.32Zm8.344,1.523a10.458,10.458,0,0,1,1.242-5.258,7.19,7.19,0,0,1,2.609-2.906l.047.008.3.906A6.665,6.665,0,0,0,40-9.187,11.54,11.54,0,0,0,39.2-4.633v.1A11.591,11.591,0,0,0,39.992.023a7.25,7.25,0,0,0,1.867,2.75l-.3.844h-.047a7.193,7.193,0,0,1-2.609-2.9,10.452,10.452,0,0,1-1.242-5.262ZM50.531.164A3.576,3.576,0,0,1,47.691-1a4.48,4.48,0,0,1-1.02-3.062v-.344a4.386,4.386,0,0,1,1.051-3.012,3.3,3.3,0,0,1,2.566-1.191,3.067,3.067,0,0,1,2.543,1.055,4.345,4.345,0,0,1,.848,2.8v.813H48.273L48.25-3.9a3.494,3.494,0,0,0,.563,2.066,1.965,1.965,0,0,0,1.719.793A3.872,3.872,0,0,0,51.9-1.262a3.061,3.061,0,0,0,1.012-.613l.6,1a3.7,3.7,0,0,1-1.2.738A4.762,4.762,0,0,1,50.531.164ZM50.289-7.4a1.673,1.673,0,0,0-1.332.621,2.938,2.938,0,0,0-.645,1.59l.016.039h3.813v-.125A2.462,2.462,0,0,0,51.688-6.8,1.638,1.638,0,0,0,50.289-7.4Zm6.492-1.055L56.891-7.2a3.069,3.069,0,0,1,1.059-1.043A2.824,2.824,0,0,1,59.4-8.609a2.759,2.759,0,0,1,2.117.8,3.515,3.515,0,0,1,.75,2.473V0H60.727V-5.3a2.287,2.287,0,0,0-.441-1.586,1.768,1.768,0,0,0-1.348-.469,2.386,2.386,0,0,0-1.207.285,2.072,2.072,0,0,0-.785.8V0H55.406V-8.453Zm9.859-2.039v2.039h1.6v1.141h-1.6V-2.18a1.149,1.149,0,0,0,.246.836.89.89,0,0,0,.652.242,1.43,1.43,0,0,0,.3-.035,2.2,2.2,0,0,0,.273-.074L68.32-.156a1.36,1.36,0,0,1-.508.23,2.562,2.562,0,0,1-.664.09A1.993,1.993,0,0,1,65.656-.4,2.46,2.46,0,0,1,65.1-2.18V-7.312H63.758V-8.453H65.1v-2.039Zm7.25,3.4L73.1-7.141a1.762,1.762,0,0,0-1.027.289,1.854,1.854,0,0,0-.645.813V0H69.891V-8.453h1.375l.148,1.234A2.934,2.934,0,0,1,72.3-8.242a2.073,2.073,0,0,1,1.215-.367,1.9,1.9,0,0,1,.328.027,2.175,2.175,0,0,1,.258.059ZM80.688,0q-.078-.383-.121-.676a4.96,4.96,0,0,1-.051-.59,3.589,3.589,0,0,1-1.121,1.02,2.867,2.867,0,0,1-1.488.41,2.763,2.763,0,0,1-2.012-.676A2.486,2.486,0,0,1,75.2-2.375a2.183,2.183,0,0,1,.98-1.895,4.579,4.579,0,0,1,2.66-.684h1.672v-.836a1.551,1.551,0,0,0-.453-1.176A1.779,1.779,0,0,0,78.781-7.4a1.859,1.859,0,0,0-1.211.375,1.125,1.125,0,0,0-.461.9l-1.461.016-.016-.047A2.023,2.023,0,0,1,76.5-7.844a3.578,3.578,0,0,1,2.371-.766,3.49,3.49,0,0,1,2.313.73,2.588,2.588,0,0,1,.875,2.105V-1.7a7.923,7.923,0,0,0,.047.875A4.5,4.5,0,0,0,82.273,0ZM78.133-1.125a2.739,2.739,0,0,0,1.508-.43,2.042,2.042,0,0,0,.875-.984V-3.914H78.789a2.24,2.24,0,0,0-1.488.469,1.4,1.4,0,0,0-.559,1.1,1.159,1.159,0,0,0,.352.891A1.472,1.472,0,0,0,78.133-1.125Zm5.8-2.945a5.641,5.641,0,0,1,.871-3.289,2.807,2.807,0,0,1,2.441-1.25,3.027,3.027,0,0,1,1.316.273,2.7,2.7,0,0,1,.98.8v-4.648h1.539V0h-1.18l-.234-1.07a2.743,2.743,0,0,1-1.023.922,3.058,3.058,0,0,1-1.414.313A2.9,2.9,0,0,1,84.813-.957a4.659,4.659,0,0,1-.875-2.949Zm1.539.164A3.588,3.588,0,0,0,86-1.855a1.828,1.828,0,0,0,1.625.77A2.039,2.039,0,0,0,88.781-1.4a2.334,2.334,0,0,0,.766-.875V-6.219a2.37,2.37,0,0,0-.77-.832,2.033,2.033,0,0,0-1.137-.309A1.759,1.759,0,0,0,86-6.445a4.718,4.718,0,0,0-.527,2.375ZM98.578,0q-.078-.383-.121-.676a4.96,4.96,0,0,1-.051-.59,3.589,3.589,0,0,1-1.121,1.02A2.867,2.867,0,0,1,95.8.164a2.763,2.763,0,0,1-2.012-.676,2.486,2.486,0,0,1-.691-1.863,2.183,2.183,0,0,1,.98-1.895,4.579,4.579,0,0,1,2.66-.684h1.672v-.836a1.551,1.551,0,0,0-.453-1.176A1.779,1.779,0,0,0,96.672-7.4a1.859,1.859,0,0,0-1.211.375,1.125,1.125,0,0,0-.461.9l-1.461.016-.016-.047a2.023,2.023,0,0,1,.863-1.687,3.578,3.578,0,0,1,2.371-.766,3.49,3.49,0,0,1,2.313.73,2.588,2.588,0,0,1,.875,2.105V-1.7a7.923,7.923,0,0,0,.047.875,4.5,4.5,0,0,0,.172.828ZM96.023-1.125a2.739,2.739,0,0,0,1.508-.43,2.042,2.042,0,0,0,.875-.984V-3.914H96.68a2.24,2.24,0,0,0-1.488.469,1.4,1.4,0,0,0-.559,1.1,1.159,1.159,0,0,0,.352.891A1.472,1.472,0,0,0,96.023-1.125Zm13.258-3.422A10.426,10.426,0,0,1,108.035.715a7.244,7.244,0,0,1-2.605,2.9h-.047l-.3-.844a6.653,6.653,0,0,0,1.855-2.7,11.749,11.749,0,0,0,.8-4.605v-.1a11.354,11.354,0,0,0-.824-4.559,7.532,7.532,0,0,0-1.832-2.746l.3-.844h.047a7.241,7.241,0,0,1,2.605,2.906,10.431,10.431,0,0,1,1.246,5.258Zm3.93-2.3h-1.539V-8.422h1.539Zm.055,6.469-1.172,2.391h-.914l.547-2.469V-1.727h1.539Z" transform="translate(696 5759)" fill="#00104e"/>
    <path id="Trazado_29782" data-name="Trazado 29782" d="M4.477-1.039a1.81,1.81,0,0,0,1.242-.473,1.494,1.494,0,0,0,.531-1.16H7.641l.023.047A2.428,2.428,0,0,1,6.727-.684a3.313,3.313,0,0,1-2.25.848,3.319,3.319,0,0,1-2.75-1.211A4.674,4.674,0,0,1,.758-4.062v-.328a4.654,4.654,0,0,1,.973-3A3.317,3.317,0,0,1,4.477-8.609a3.189,3.189,0,0,1,2.316.875,2.775,2.775,0,0,1,.871,2.148l-.016.047H6.25a1.865,1.865,0,0,0-.5-1.316A1.658,1.658,0,0,0,4.477-7.4a1.777,1.777,0,0,0-1.652.879A4.114,4.114,0,0,0,2.3-4.391v.328a4.192,4.192,0,0,0,.512,2.148A1.776,1.776,0,0,0,4.477-1.039ZM14.859-1.25A2.863,2.863,0,0,1,13.836-.2a2.8,2.8,0,0,1-1.445.367,2.716,2.716,0,0,1-2.156-.883,4.1,4.1,0,0,1-.773-2.75V-8.453H11v5a3.147,3.147,0,0,0,.4,1.859,1.481,1.481,0,0,0,1.242.508A2.531,2.531,0,0,0,14-1.418a2.077,2.077,0,0,0,.809-.941V-8.453h1.539V0H14.961ZM25.8-3.906a4.645,4.645,0,0,1-.879,2.949A2.9,2.9,0,0,1,22.508.164a3.064,3.064,0,0,1-1.465-.332,2.719,2.719,0,0,1-1.027-.98L19.766,0h-1.18V-12.187h1.539v4.734a2.671,2.671,0,0,1,.988-.859,3.03,3.03,0,0,1,1.379-.3,2.809,2.809,0,0,1,2.438,1.25A5.622,5.622,0,0,1,25.8-4.07ZM24.266-4.07a4.666,4.666,0,0,0-.535-2.371A1.762,1.762,0,0,0,22.1-7.359a2.014,2.014,0,0,0-1.2.348,2.452,2.452,0,0,0-.777.934v3.664a2.517,2.517,0,0,0,.777.977,2,2,0,0,0,1.215.352,1.829,1.829,0,0,0,1.617-.773,3.552,3.552,0,0,0,.531-2.047ZM27.32-4.3a4.654,4.654,0,0,1,1.016-3.09,3.406,3.406,0,0,1,2.758-1.215A3.439,3.439,0,0,1,33.871-7.4,4.639,4.639,0,0,1,34.891-4.3v.172a4.631,4.631,0,0,1-1.016,3.094,3.429,3.429,0,0,1-2.766,1.2,3.436,3.436,0,0,1-2.77-1.207,4.623,4.623,0,0,1-1.02-3.09Zm1.539.172a4.009,4.009,0,0,0,.566,2.219,1.875,1.875,0,0,0,1.684.875,1.87,1.87,0,0,0,1.672-.875,3.988,3.988,0,0,0,.57-2.219V-4.3a3.976,3.976,0,0,0-.574-2.211A1.882,1.882,0,0,0,31.094-7.4a1.856,1.856,0,0,0-1.668.883A4.018,4.018,0,0,0,28.859-4.3ZM42.2-4.523l-.664.141v.047l.664.148,4.367,1.781v1.57L40.188-3.8V-4.961l6.375-2.953v1.57ZM55.461-6.43H48.945V-7.711h6.516Zm0,3.25H48.945V-4.461h6.516Zm9.9,3.344A3.576,3.576,0,0,1,62.52-1,4.48,4.48,0,0,1,61.5-4.062v-.344a4.386,4.386,0,0,1,1.051-3.012,3.3,3.3,0,0,1,2.566-1.191A3.067,3.067,0,0,1,67.66-7.555a4.345,4.345,0,0,1,.848,2.8v.813H63.1l-.023.039a3.494,3.494,0,0,0,.563,2.066,1.965,1.965,0,0,0,1.719.793,3.872,3.872,0,0,0,1.371-.223,3.061,3.061,0,0,0,1.012-.613l.6,1a3.7,3.7,0,0,1-1.2.738A4.762,4.762,0,0,1,65.359.164ZM65.117-7.4a1.673,1.673,0,0,0-1.332.621,2.938,2.938,0,0,0-.645,1.59l.016.039h3.813v-.125A2.462,2.462,0,0,0,66.516-6.8,1.638,1.638,0,0,0,65.117-7.4Zm6.492-1.055L71.719-7.2a3.069,3.069,0,0,1,1.059-1.043,2.824,2.824,0,0,1,1.449-.371,2.759,2.759,0,0,1,2.117.8,3.515,3.515,0,0,1,.75,2.473V0H75.555V-5.3a2.287,2.287,0,0,0-.441-1.586,1.768,1.768,0,0,0-1.348-.469,2.386,2.386,0,0,0-1.207.285,2.072,2.072,0,0,0-.785.8V0H70.234V-8.453Zm9.859-2.039v2.039h1.6v1.141h-1.6V-2.18a1.149,1.149,0,0,0,.246.836.89.89,0,0,0,.652.242,1.43,1.43,0,0,0,.3-.035,2.2,2.2,0,0,0,.273-.074l.211,1.055a1.36,1.36,0,0,1-.508.23,2.562,2.562,0,0,1-.664.09A1.993,1.993,0,0,1,80.484-.4,2.46,2.46,0,0,1,79.93-2.18V-7.312H78.586V-8.453H79.93v-2.039Zm7.25,3.4-.789-.047a1.762,1.762,0,0,0-1.027.289,1.854,1.854,0,0,0-.645.813V0H84.719V-8.453h1.375l.148,1.234a2.934,2.934,0,0,1,.887-1.023,2.073,2.073,0,0,1,1.215-.367,1.9,1.9,0,0,1,.328.027,2.175,2.175,0,0,1,.258.059ZM95.516,0q-.078-.383-.121-.676a4.96,4.96,0,0,1-.051-.59,3.589,3.589,0,0,1-1.121,1.02,2.867,2.867,0,0,1-1.488.41,2.763,2.763,0,0,1-2.012-.676,2.486,2.486,0,0,1-.691-1.863,2.183,2.183,0,0,1,.98-1.895,4.579,4.579,0,0,1,2.66-.684h1.672v-.836a1.551,1.551,0,0,0-.453-1.176A1.779,1.779,0,0,0,93.609-7.4a1.859,1.859,0,0,0-1.211.375,1.125,1.125,0,0,0-.461.9l-1.461.016-.016-.047a2.023,2.023,0,0,1,.863-1.687A3.578,3.578,0,0,1,93.7-8.609a3.49,3.49,0,0,1,2.313.73,2.588,2.588,0,0,1,.875,2.105V-1.7a7.923,7.923,0,0,0,.047.875A4.5,4.5,0,0,0,97.1,0ZM92.961-1.125a2.739,2.739,0,0,0,1.508-.43,2.042,2.042,0,0,0,.875-.984V-3.914H93.617a2.24,2.24,0,0,0-1.488.469,1.4,1.4,0,0,0-.559,1.1,1.159,1.159,0,0,0,.352.891A1.472,1.472,0,0,0,92.961-1.125Zm5.8-2.945a5.641,5.641,0,0,1,.871-3.289,2.807,2.807,0,0,1,2.441-1.25,3.027,3.027,0,0,1,1.316.273,2.7,2.7,0,0,1,.98.8v-4.648h1.539V0h-1.18L104.5-1.07a2.743,2.743,0,0,1-1.023.922,3.058,3.058,0,0,1-1.414.313A2.9,2.9,0,0,1,99.641-.957a4.659,4.659,0,0,1-.875-2.949Zm1.539.164a3.588,3.588,0,0,0,.523,2.051,1.828,1.828,0,0,0,1.625.77,2.039,2.039,0,0,0,1.156-.312,2.334,2.334,0,0,0,.766-.875V-6.219a2.37,2.37,0,0,0-.77-.832,2.033,2.033,0,0,0-1.137-.309,1.759,1.759,0,0,0-1.637.914A4.718,4.718,0,0,0,100.3-4.07ZM113.406,0q-.078-.383-.121-.676a4.96,4.96,0,0,1-.051-.59,3.589,3.589,0,0,1-1.121,1.02,2.867,2.867,0,0,1-1.488.41,2.763,2.763,0,0,1-2.012-.676,2.486,2.486,0,0,1-.691-1.863,2.183,2.183,0,0,1,.98-1.895,4.579,4.579,0,0,1,2.66-.684h1.672v-.836a1.551,1.551,0,0,0-.453-1.176A1.779,1.779,0,0,0,111.5-7.4a1.859,1.859,0,0,0-1.211.375,1.125,1.125,0,0,0-.461.9l-1.461.016-.016-.047a2.023,2.023,0,0,1,.863-1.687,3.578,3.578,0,0,1,2.371-.766,3.49,3.49,0,0,1,2.313.73,2.588,2.588,0,0,1,.875,2.105V-1.7a7.923,7.923,0,0,0,.047.875,4.5,4.5,0,0,0,.172.828Zm-2.555-1.125a2.739,2.739,0,0,0,1.508-.43,2.042,2.042,0,0,0,.875-.984V-3.914h-1.727a2.24,2.24,0,0,0-1.488.469,1.4,1.4,0,0,0-.559,1.1,1.159,1.159,0,0,0,.352.891A1.472,1.472,0,0,0,110.852-1.125ZM122.4-5.437l-1.844-.523.383-1.2,1.844.7L122.7-8.445h1.258l-.078,2.031,1.82-.7.375,1.219-1.891.531,1.2,1.563-1.031.75-1.094-1.7L122.2-3.109l-1.039-.719Zm12.969,5.6A3.576,3.576,0,0,1,132.527-1a4.48,4.48,0,0,1-1.02-3.062v-.344a4.386,4.386,0,0,1,1.051-3.012,3.3,3.3,0,0,1,2.566-1.191,3.067,3.067,0,0,1,2.543,1.055,4.345,4.345,0,0,1,.848,2.8v.813h-5.406l-.023.039a3.494,3.494,0,0,0,.563,2.066,1.965,1.965,0,0,0,1.719.793,3.872,3.872,0,0,0,1.371-.223,3.061,3.061,0,0,0,1.012-.613l.6,1a3.7,3.7,0,0,1-1.2.738A4.762,4.762,0,0,1,135.367.164ZM135.125-7.4a1.673,1.673,0,0,0-1.332.621,2.938,2.938,0,0,0-.645,1.59l.016.039h3.813v-.125a2.462,2.462,0,0,0-.453-1.523A1.638,1.638,0,0,0,135.125-7.4Zm6.492-1.055.109,1.258a3.069,3.069,0,0,1,1.059-1.043,2.824,2.824,0,0,1,1.449-.371,2.759,2.759,0,0,1,2.117.8,3.515,3.515,0,0,1,.75,2.473V0h-1.539V-5.3a2.287,2.287,0,0,0-.441-1.586,1.768,1.768,0,0,0-1.348-.469,2.386,2.386,0,0,0-1.207.285,2.072,2.072,0,0,0-.785.8V0h-1.539V-8.453Zm9.859-2.039v2.039h1.6v1.141h-1.6V-2.18a1.149,1.149,0,0,0,.246.836.89.89,0,0,0,.652.242,1.429,1.429,0,0,0,.3-.035,2.2,2.2,0,0,0,.273-.074l.211,1.055a1.36,1.36,0,0,1-.508.23,2.562,2.562,0,0,1-.664.09A1.993,1.993,0,0,1,150.492-.4a2.46,2.46,0,0,1-.555-1.777V-7.312h-1.344V-8.453h1.344v-2.039Zm7.25,3.4-.789-.047a1.762,1.762,0,0,0-1.027.289,1.855,1.855,0,0,0-.645.813V0h-1.539V-8.453H156.1l.148,1.234a2.934,2.934,0,0,1,.887-1.023,2.073,2.073,0,0,1,1.215-.367,1.9,1.9,0,0,1,.328.027,2.174,2.174,0,0,1,.258.059ZM165.523,0q-.078-.383-.121-.676a4.96,4.96,0,0,1-.051-.59,3.588,3.588,0,0,1-1.121,1.02,2.867,2.867,0,0,1-1.488.41,2.763,2.763,0,0,1-2.012-.676,2.486,2.486,0,0,1-.691-1.863,2.183,2.183,0,0,1,.98-1.895,4.579,4.579,0,0,1,2.66-.684h1.672v-.836a1.551,1.551,0,0,0-.453-1.176,1.779,1.779,0,0,0-1.281-.434,1.859,1.859,0,0,0-1.211.375,1.125,1.125,0,0,0-.461.9l-1.461.016-.016-.047a2.023,2.023,0,0,1,.863-1.687,3.578,3.578,0,0,1,2.371-.766,3.49,3.49,0,0,1,2.313.73,2.588,2.588,0,0,1,.875,2.105V-1.7a7.923,7.923,0,0,0,.047.875,4.5,4.5,0,0,0,.172.828Zm-2.555-1.125a2.739,2.739,0,0,0,1.508-.43,2.042,2.042,0,0,0,.875-.984V-3.914h-1.727a2.24,2.24,0,0,0-1.488.469,1.4,1.4,0,0,0-.559,1.1,1.159,1.159,0,0,0,.352.891A1.472,1.472,0,0,0,162.969-1.125Zm5.8-2.945a5.641,5.641,0,0,1,.871-3.289,2.807,2.807,0,0,1,2.441-1.25,3.027,3.027,0,0,1,1.316.273,2.7,2.7,0,0,1,.98.8v-4.648h1.539V0h-1.18l-.234-1.07a2.743,2.743,0,0,1-1.023.922,3.058,3.058,0,0,1-1.414.313,2.9,2.9,0,0,1-2.422-1.121,4.659,4.659,0,0,1-.875-2.949Zm1.539.164a3.588,3.588,0,0,0,.523,2.051,1.828,1.828,0,0,0,1.625.77,2.039,2.039,0,0,0,1.156-.312,2.334,2.334,0,0,0,.766-.875V-6.219a2.37,2.37,0,0,0-.77-.832,2.033,2.033,0,0,0-1.137-.309,1.759,1.759,0,0,0-1.637.914,4.718,4.718,0,0,0-.527,2.375ZM183.414,0q-.078-.383-.121-.676a4.96,4.96,0,0,1-.051-.59,3.588,3.588,0,0,1-1.121,1.02,2.867,2.867,0,0,1-1.488.41,2.763,2.763,0,0,1-2.012-.676,2.486,2.486,0,0,1-.691-1.863,2.183,2.183,0,0,1,.98-1.895,4.579,4.579,0,0,1,2.66-.684h1.672v-.836a1.551,1.551,0,0,0-.453-1.176,1.779,1.779,0,0,0-1.281-.434,1.859,1.859,0,0,0-1.211.375,1.125,1.125,0,0,0-.461.9l-1.461.016-.016-.047a2.023,2.023,0,0,1,.863-1.687,3.578,3.578,0,0,1,2.371-.766,3.49,3.49,0,0,1,2.313.73,2.588,2.588,0,0,1,.875,2.105V-1.7a7.923,7.923,0,0,0,.047.875A4.5,4.5,0,0,0,185,0Zm-2.555-1.125a2.739,2.739,0,0,0,1.508-.43,2.042,2.042,0,0,0,.875-.984V-3.914h-1.727a2.24,2.24,0,0,0-1.488.469,1.4,1.4,0,0,0-.559,1.1,1.159,1.159,0,0,0,.352.891A1.472,1.472,0,0,0,180.859-1.125Zm11.547-4.312-1.844-.523.383-1.2,1.844.7-.078-1.984h1.258l-.078,2.031,1.82-.7.375,1.219-1.891.531,1.2,1.563-1.031.75-1.094-1.7-1.055,1.641-1.039-.719Zm12.969,5.6A3.576,3.576,0,0,1,202.535-1a4.48,4.48,0,0,1-1.02-3.062v-.344a4.386,4.386,0,0,1,1.051-3.012,3.3,3.3,0,0,1,2.566-1.191,3.067,3.067,0,0,1,2.543,1.055,4.345,4.345,0,0,1,.848,2.8v.813h-5.406l-.023.039a3.494,3.494,0,0,0,.563,2.066,1.965,1.965,0,0,0,1.719.793,3.872,3.872,0,0,0,1.371-.223,3.061,3.061,0,0,0,1.012-.613l.6,1a3.7,3.7,0,0,1-1.2.738A4.762,4.762,0,0,1,205.375.164ZM205.133-7.4a1.673,1.673,0,0,0-1.332.621,2.938,2.938,0,0,0-.645,1.59l.016.039h3.813v-.125a2.462,2.462,0,0,0-.453-1.523A1.638,1.638,0,0,0,205.133-7.4Zm6.492-1.055.109,1.258a3.069,3.069,0,0,1,1.059-1.043,2.824,2.824,0,0,1,1.449-.371,2.759,2.759,0,0,1,2.117.8,3.515,3.515,0,0,1,.75,2.473V0H215.57V-5.3a2.287,2.287,0,0,0-.441-1.586,1.768,1.768,0,0,0-1.348-.469,2.386,2.386,0,0,0-1.207.285,2.072,2.072,0,0,0-.785.8V0H210.25V-8.453Zm9.859-2.039v2.039h1.6v1.141h-1.6V-2.18a1.149,1.149,0,0,0,.246.836.89.89,0,0,0,.652.242,1.429,1.429,0,0,0,.3-.035,2.2,2.2,0,0,0,.273-.074l.211,1.055a1.36,1.36,0,0,1-.508.23,2.562,2.562,0,0,1-.664.09A1.993,1.993,0,0,1,220.5-.4a2.46,2.46,0,0,1-.555-1.777V-7.312H218.6V-8.453h1.344v-2.039Zm7.25,3.4-.789-.047a1.762,1.762,0,0,0-1.027.289,1.855,1.855,0,0,0-.645.813V0h-1.539V-8.453h1.375l.148,1.234a2.934,2.934,0,0,1,.887-1.023,2.073,2.073,0,0,1,1.215-.367,1.9,1.9,0,0,1,.328.027,2.174,2.174,0,0,1,.258.059ZM235.531,0q-.078-.383-.121-.676a4.96,4.96,0,0,1-.051-.59,3.588,3.588,0,0,1-1.121,1.02,2.867,2.867,0,0,1-1.488.41,2.763,2.763,0,0,1-2.012-.676,2.486,2.486,0,0,1-.691-1.863,2.183,2.183,0,0,1,.98-1.895,4.579,4.579,0,0,1,2.66-.684h1.672v-.836a1.551,1.551,0,0,0-.453-1.176,1.779,1.779,0,0,0-1.281-.434,1.859,1.859,0,0,0-1.211.375,1.125,1.125,0,0,0-.461.9l-1.461.016-.016-.047a2.023,2.023,0,0,1,.863-1.687,3.578,3.578,0,0,1,2.371-.766,3.49,3.49,0,0,1,2.313.73,2.588,2.588,0,0,1,.875,2.105V-1.7a7.923,7.923,0,0,0,.047.875,4.5,4.5,0,0,0,.172.828Zm-2.555-1.125a2.739,2.739,0,0,0,1.508-.43,2.042,2.042,0,0,0,.875-.984V-3.914h-1.727a2.24,2.24,0,0,0-1.488.469,1.4,1.4,0,0,0-.559,1.1,1.159,1.159,0,0,0,.352.891A1.472,1.472,0,0,0,232.977-1.125Zm5.8-2.945a5.641,5.641,0,0,1,.871-3.289,2.807,2.807,0,0,1,2.441-1.25,3.027,3.027,0,0,1,1.316.273,2.7,2.7,0,0,1,.98.8v-4.648h1.539V0h-1.18l-.234-1.07a2.743,2.743,0,0,1-1.023.922,3.058,3.058,0,0,1-1.414.313,2.9,2.9,0,0,1-2.422-1.121,4.659,4.659,0,0,1-.875-2.949Zm1.539.164a3.588,3.588,0,0,0,.523,2.051,1.828,1.828,0,0,0,1.625.77,2.039,2.039,0,0,0,1.156-.312,2.334,2.334,0,0,0,.766-.875V-6.219a2.37,2.37,0,0,0-.77-.832,2.033,2.033,0,0,0-1.137-.309,1.759,1.759,0,0,0-1.637.914,4.718,4.718,0,0,0-.527,2.375ZM253.422,0q-.078-.383-.121-.676a4.96,4.96,0,0,1-.051-.59,3.588,3.588,0,0,1-1.121,1.02,2.867,2.867,0,0,1-1.488.41,2.763,2.763,0,0,1-2.012-.676,2.486,2.486,0,0,1-.691-1.863,2.183,2.183,0,0,1,.98-1.895,4.579,4.579,0,0,1,2.66-.684h1.672v-.836a1.551,1.551,0,0,0-.453-1.176,1.779,1.779,0,0,0-1.281-.434,1.859,1.859,0,0,0-1.211.375,1.125,1.125,0,0,0-.461.9l-1.461.016-.016-.047a2.023,2.023,0,0,1,.863-1.687,3.578,3.578,0,0,1,2.371-.766,3.49,3.49,0,0,1,2.313.73,2.588,2.588,0,0,1,.875,2.105V-1.7a7.923,7.923,0,0,0,.047.875,4.5,4.5,0,0,0,.172.828Zm-2.555-1.125a2.739,2.739,0,0,0,1.508-.43,2.042,2.042,0,0,0,.875-.984V-3.914h-1.727a2.24,2.24,0,0,0-1.488.469,1.4,1.4,0,0,0-.559,1.1,1.159,1.159,0,0,0,.352.891A1.472,1.472,0,0,0,250.867-1.125Zm7.844-5.719h-1.539V-8.422h1.539Zm.055,6.469-1.172,2.391h-.914l.547-2.469V-1.727h1.539Z" transform="translate(696 5971)" fill="#00104e"/>
    <path id="Trazado_29784" data-name="Trazado 29784" d="M4.477-1.039a1.81,1.81,0,0,0,1.242-.473,1.494,1.494,0,0,0,.531-1.16H7.641l.023.047A2.428,2.428,0,0,1,6.727-.684a3.313,3.313,0,0,1-2.25.848,3.319,3.319,0,0,1-2.75-1.211A4.674,4.674,0,0,1,.758-4.062v-.328a4.654,4.654,0,0,1,.973-3A3.317,3.317,0,0,1,4.477-8.609a3.189,3.189,0,0,1,2.316.875,2.775,2.775,0,0,1,.871,2.148l-.016.047H6.25a1.865,1.865,0,0,0-.5-1.316A1.658,1.658,0,0,0,4.477-7.4a1.777,1.777,0,0,0-1.652.879A4.114,4.114,0,0,0,2.3-4.391v.328a4.192,4.192,0,0,0,.512,2.148A1.776,1.776,0,0,0,4.477-1.039ZM14.859-1.25A2.863,2.863,0,0,1,13.836-.2a2.8,2.8,0,0,1-1.445.367,2.716,2.716,0,0,1-2.156-.883,4.1,4.1,0,0,1-.773-2.75V-8.453H11v5a3.147,3.147,0,0,0,.4,1.859,1.481,1.481,0,0,0,1.242.508A2.531,2.531,0,0,0,14-1.418a2.077,2.077,0,0,0,.809-.941V-8.453h1.539V0H14.961ZM25.8-3.906a4.645,4.645,0,0,1-.879,2.949A2.9,2.9,0,0,1,22.508.164a3.064,3.064,0,0,1-1.465-.332,2.719,2.719,0,0,1-1.027-.98L19.766,0h-1.18V-12.187h1.539v4.734a2.671,2.671,0,0,1,.988-.859,3.03,3.03,0,0,1,1.379-.3,2.809,2.809,0,0,1,2.438,1.25A5.622,5.622,0,0,1,25.8-4.07ZM24.266-4.07a4.666,4.666,0,0,0-.535-2.371A1.762,1.762,0,0,0,22.1-7.359a2.014,2.014,0,0,0-1.2.348,2.452,2.452,0,0,0-.777.934v3.664a2.517,2.517,0,0,0,.777.977,2,2,0,0,0,1.215.352,1.829,1.829,0,0,0,1.617-.773,3.552,3.552,0,0,0,.531-2.047ZM27.32-4.3a4.654,4.654,0,0,1,1.016-3.09,3.406,3.406,0,0,1,2.758-1.215A3.439,3.439,0,0,1,33.871-7.4,4.639,4.639,0,0,1,34.891-4.3v.172a4.631,4.631,0,0,1-1.016,3.094,3.429,3.429,0,0,1-2.766,1.2,3.436,3.436,0,0,1-2.77-1.207,4.623,4.623,0,0,1-1.02-3.09Zm1.539.172a4.009,4.009,0,0,0,.566,2.219,1.875,1.875,0,0,0,1.684.875,1.87,1.87,0,0,0,1.672-.875,3.988,3.988,0,0,0,.57-2.219V-4.3a3.976,3.976,0,0,0-.574-2.211A1.882,1.882,0,0,0,31.094-7.4a1.856,1.856,0,0,0-1.668.883A4.018,4.018,0,0,0,28.859-4.3ZM42.2-4.523l-.664.141v.047l.664.148,4.367,1.781v1.57L40.188-3.8V-4.961l6.375-2.953v1.57ZM55.461-6.43H48.945V-7.711h6.516Zm0,3.25H48.945V-4.461h6.516Zm9.9,3.344A3.576,3.576,0,0,1,62.52-1,4.48,4.48,0,0,1,61.5-4.062v-.344a4.386,4.386,0,0,1,1.051-3.012,3.3,3.3,0,0,1,2.566-1.191A3.067,3.067,0,0,1,67.66-7.555a4.345,4.345,0,0,1,.848,2.8v.813H63.1l-.023.039a3.494,3.494,0,0,0,.563,2.066,1.965,1.965,0,0,0,1.719.793,3.872,3.872,0,0,0,1.371-.223,3.061,3.061,0,0,0,1.012-.613l.6,1a3.7,3.7,0,0,1-1.2.738A4.762,4.762,0,0,1,65.359.164ZM65.117-7.4a1.673,1.673,0,0,0-1.332.621,2.938,2.938,0,0,0-.645,1.59l.016.039h3.813v-.125A2.462,2.462,0,0,0,66.516-6.8,1.638,1.638,0,0,0,65.117-7.4Zm6.492-1.055L71.719-7.2a3.069,3.069,0,0,1,1.059-1.043,2.824,2.824,0,0,1,1.449-.371,2.759,2.759,0,0,1,2.117.8,3.515,3.515,0,0,1,.75,2.473V0H75.555V-5.3a2.287,2.287,0,0,0-.441-1.586,1.768,1.768,0,0,0-1.348-.469,2.386,2.386,0,0,0-1.207.285,2.072,2.072,0,0,0-.785.8V0H70.234V-8.453Zm9.859-2.039v2.039h1.6v1.141h-1.6V-2.18a1.149,1.149,0,0,0,.246.836.89.89,0,0,0,.652.242,1.43,1.43,0,0,0,.3-.035,2.2,2.2,0,0,0,.273-.074l.211,1.055a1.36,1.36,0,0,1-.508.23,2.562,2.562,0,0,1-.664.09A1.993,1.993,0,0,1,80.484-.4,2.46,2.46,0,0,1,79.93-2.18V-7.312H78.586V-8.453H79.93v-2.039Zm7.25,3.4-.789-.047a1.762,1.762,0,0,0-1.027.289,1.854,1.854,0,0,0-.645.813V0H84.719V-8.453h1.375l.148,1.234a2.934,2.934,0,0,1,.887-1.023,2.073,2.073,0,0,1,1.215-.367,1.9,1.9,0,0,1,.328.027,2.175,2.175,0,0,1,.258.059ZM95.516,0q-.078-.383-.121-.676a4.96,4.96,0,0,1-.051-.59,3.589,3.589,0,0,1-1.121,1.02,2.867,2.867,0,0,1-1.488.41,2.763,2.763,0,0,1-2.012-.676,2.486,2.486,0,0,1-.691-1.863,2.183,2.183,0,0,1,.98-1.895,4.579,4.579,0,0,1,2.66-.684h1.672v-.836a1.551,1.551,0,0,0-.453-1.176A1.779,1.779,0,0,0,93.609-7.4a1.859,1.859,0,0,0-1.211.375,1.125,1.125,0,0,0-.461.9l-1.461.016-.016-.047a2.023,2.023,0,0,1,.863-1.687A3.578,3.578,0,0,1,93.7-8.609a3.49,3.49,0,0,1,2.313.73,2.588,2.588,0,0,1,.875,2.105V-1.7a7.923,7.923,0,0,0,.047.875A4.5,4.5,0,0,0,97.1,0ZM92.961-1.125a2.739,2.739,0,0,0,1.508-.43,2.042,2.042,0,0,0,.875-.984V-3.914H93.617a2.24,2.24,0,0,0-1.488.469,1.4,1.4,0,0,0-.559,1.1,1.159,1.159,0,0,0,.352.891A1.472,1.472,0,0,0,92.961-1.125Zm5.8-2.945a5.641,5.641,0,0,1,.871-3.289,2.807,2.807,0,0,1,2.441-1.25,3.027,3.027,0,0,1,1.316.273,2.7,2.7,0,0,1,.98.8v-4.648h1.539V0h-1.18L104.5-1.07a2.743,2.743,0,0,1-1.023.922,3.058,3.058,0,0,1-1.414.313A2.9,2.9,0,0,1,99.641-.957a4.659,4.659,0,0,1-.875-2.949Zm1.539.164a3.588,3.588,0,0,0,.523,2.051,1.828,1.828,0,0,0,1.625.77,2.039,2.039,0,0,0,1.156-.312,2.334,2.334,0,0,0,.766-.875V-6.219a2.37,2.37,0,0,0-.77-.832,2.033,2.033,0,0,0-1.137-.309,1.759,1.759,0,0,0-1.637.914A4.718,4.718,0,0,0,100.3-4.07ZM113.406,0q-.078-.383-.121-.676a4.96,4.96,0,0,1-.051-.59,3.589,3.589,0,0,1-1.121,1.02,2.867,2.867,0,0,1-1.488.41,2.763,2.763,0,0,1-2.012-.676,2.486,2.486,0,0,1-.691-1.863,2.183,2.183,0,0,1,.98-1.895,4.579,4.579,0,0,1,2.66-.684h1.672v-.836a1.551,1.551,0,0,0-.453-1.176A1.779,1.779,0,0,0,111.5-7.4a1.859,1.859,0,0,0-1.211.375,1.125,1.125,0,0,0-.461.9l-1.461.016-.016-.047a2.023,2.023,0,0,1,.863-1.687,3.578,3.578,0,0,1,2.371-.766,3.49,3.49,0,0,1,2.313.73,2.588,2.588,0,0,1,.875,2.105V-1.7a7.923,7.923,0,0,0,.047.875,4.5,4.5,0,0,0,.172.828Zm-2.555-1.125a2.739,2.739,0,0,0,1.508-.43,2.042,2.042,0,0,0,.875-.984V-3.914h-1.727a2.24,2.24,0,0,0-1.488.469,1.4,1.4,0,0,0-.559,1.1,1.159,1.159,0,0,0,.352.891A1.472,1.472,0,0,0,110.852-1.125ZM122.4-5.437l-1.844-.523.383-1.2,1.844.7L122.7-8.445h1.258l-.078,2.031,1.82-.7.375,1.219-1.891.531,1.2,1.563-1.031.75-1.094-1.7L122.2-3.109l-1.039-.719Zm12.969,5.6A3.576,3.576,0,0,1,132.527-1a4.48,4.48,0,0,1-1.02-3.062v-.344a4.386,4.386,0,0,1,1.051-3.012,3.3,3.3,0,0,1,2.566-1.191,3.067,3.067,0,0,1,2.543,1.055,4.345,4.345,0,0,1,.848,2.8v.813h-5.406l-.023.039a3.494,3.494,0,0,0,.563,2.066,1.965,1.965,0,0,0,1.719.793,3.872,3.872,0,0,0,1.371-.223,3.061,3.061,0,0,0,1.012-.613l.6,1a3.7,3.7,0,0,1-1.2.738A4.762,4.762,0,0,1,135.367.164ZM135.125-7.4a1.673,1.673,0,0,0-1.332.621,2.938,2.938,0,0,0-.645,1.59l.016.039h3.813v-.125a2.462,2.462,0,0,0-.453-1.523A1.638,1.638,0,0,0,135.125-7.4Zm6.492-1.055.109,1.258a3.069,3.069,0,0,1,1.059-1.043,2.824,2.824,0,0,1,1.449-.371,2.759,2.759,0,0,1,2.117.8,3.515,3.515,0,0,1,.75,2.473V0h-1.539V-5.3a2.287,2.287,0,0,0-.441-1.586,1.768,1.768,0,0,0-1.348-.469,2.386,2.386,0,0,0-1.207.285,2.072,2.072,0,0,0-.785.8V0h-1.539V-8.453Zm9.859-2.039v2.039h1.6v1.141h-1.6V-2.18a1.149,1.149,0,0,0,.246.836.89.89,0,0,0,.652.242,1.429,1.429,0,0,0,.3-.035,2.2,2.2,0,0,0,.273-.074l.211,1.055a1.36,1.36,0,0,1-.508.23,2.562,2.562,0,0,1-.664.09A1.993,1.993,0,0,1,150.492-.4a2.46,2.46,0,0,1-.555-1.777V-7.312h-1.344V-8.453h1.344v-2.039Zm7.25,3.4-.789-.047a1.762,1.762,0,0,0-1.027.289,1.855,1.855,0,0,0-.645.813V0h-1.539V-8.453H156.1l.148,1.234a2.934,2.934,0,0,1,.887-1.023,2.073,2.073,0,0,1,1.215-.367,1.9,1.9,0,0,1,.328.027,2.174,2.174,0,0,1,.258.059ZM165.523,0q-.078-.383-.121-.676a4.96,4.96,0,0,1-.051-.59,3.588,3.588,0,0,1-1.121,1.02,2.867,2.867,0,0,1-1.488.41,2.763,2.763,0,0,1-2.012-.676,2.486,2.486,0,0,1-.691-1.863,2.183,2.183,0,0,1,.98-1.895,4.579,4.579,0,0,1,2.66-.684h1.672v-.836a1.551,1.551,0,0,0-.453-1.176,1.779,1.779,0,0,0-1.281-.434,1.859,1.859,0,0,0-1.211.375,1.125,1.125,0,0,0-.461.9l-1.461.016-.016-.047a2.023,2.023,0,0,1,.863-1.687,3.578,3.578,0,0,1,2.371-.766,3.49,3.49,0,0,1,2.313.73,2.588,2.588,0,0,1,.875,2.105V-1.7a7.923,7.923,0,0,0,.047.875,4.5,4.5,0,0,0,.172.828Zm-2.555-1.125a2.739,2.739,0,0,0,1.508-.43,2.042,2.042,0,0,0,.875-.984V-3.914h-1.727a2.24,2.24,0,0,0-1.488.469,1.4,1.4,0,0,0-.559,1.1,1.159,1.159,0,0,0,.352.891A1.472,1.472,0,0,0,162.969-1.125Zm5.8-2.945a5.641,5.641,0,0,1,.871-3.289,2.807,2.807,0,0,1,2.441-1.25,3.027,3.027,0,0,1,1.316.273,2.7,2.7,0,0,1,.98.8v-4.648h1.539V0h-1.18l-.234-1.07a2.743,2.743,0,0,1-1.023.922,3.058,3.058,0,0,1-1.414.313,2.9,2.9,0,0,1-2.422-1.121,4.659,4.659,0,0,1-.875-2.949Zm1.539.164a3.588,3.588,0,0,0,.523,2.051,1.828,1.828,0,0,0,1.625.77,2.039,2.039,0,0,0,1.156-.312,2.334,2.334,0,0,0,.766-.875V-6.219a2.37,2.37,0,0,0-.77-.832,2.033,2.033,0,0,0-1.137-.309,1.759,1.759,0,0,0-1.637.914,4.718,4.718,0,0,0-.527,2.375ZM183.414,0q-.078-.383-.121-.676a4.96,4.96,0,0,1-.051-.59,3.588,3.588,0,0,1-1.121,1.02,2.867,2.867,0,0,1-1.488.41,2.763,2.763,0,0,1-2.012-.676,2.486,2.486,0,0,1-.691-1.863,2.183,2.183,0,0,1,.98-1.895,4.579,4.579,0,0,1,2.66-.684h1.672v-.836a1.551,1.551,0,0,0-.453-1.176,1.779,1.779,0,0,0-1.281-.434,1.859,1.859,0,0,0-1.211.375,1.125,1.125,0,0,0-.461.9l-1.461.016-.016-.047a2.023,2.023,0,0,1,.863-1.687,3.578,3.578,0,0,1,2.371-.766,3.49,3.49,0,0,1,2.313.73,2.588,2.588,0,0,1,.875,2.105V-1.7a7.923,7.923,0,0,0,.047.875A4.5,4.5,0,0,0,185,0Zm-2.555-1.125a2.739,2.739,0,0,0,1.508-.43,2.042,2.042,0,0,0,.875-.984V-3.914h-1.727a2.24,2.24,0,0,0-1.488.469,1.4,1.4,0,0,0-.559,1.1,1.159,1.159,0,0,0,.352.891A1.472,1.472,0,0,0,180.859-1.125Zm11.547-4.312-1.844-.523.383-1.2,1.844.7-.078-1.984h1.258l-.078,2.031,1.82-.7.375,1.219-1.891.531,1.2,1.563-1.031.75-1.094-1.7-1.055,1.641-1.039-.719Zm12.969,5.6A3.576,3.576,0,0,1,202.535-1a4.48,4.48,0,0,1-1.02-3.062v-.344a4.386,4.386,0,0,1,1.051-3.012,3.3,3.3,0,0,1,2.566-1.191,3.067,3.067,0,0,1,2.543,1.055,4.345,4.345,0,0,1,.848,2.8v.813h-5.406l-.023.039a3.494,3.494,0,0,0,.563,2.066,1.965,1.965,0,0,0,1.719.793,3.872,3.872,0,0,0,1.371-.223,3.061,3.061,0,0,0,1.012-.613l.6,1a3.7,3.7,0,0,1-1.2.738A4.762,4.762,0,0,1,205.375.164ZM205.133-7.4a1.673,1.673,0,0,0-1.332.621,2.938,2.938,0,0,0-.645,1.59l.016.039h3.813v-.125a2.462,2.462,0,0,0-.453-1.523A1.638,1.638,0,0,0,205.133-7.4Zm6.492-1.055.109,1.258a3.069,3.069,0,0,1,1.059-1.043,2.824,2.824,0,0,1,1.449-.371,2.759,2.759,0,0,1,2.117.8,3.515,3.515,0,0,1,.75,2.473V0H215.57V-5.3a2.287,2.287,0,0,0-.441-1.586,1.768,1.768,0,0,0-1.348-.469,2.386,2.386,0,0,0-1.207.285,2.072,2.072,0,0,0-.785.8V0H210.25V-8.453Zm9.859-2.039v2.039h1.6v1.141h-1.6V-2.18a1.149,1.149,0,0,0,.246.836.89.89,0,0,0,.652.242,1.429,1.429,0,0,0,.3-.035,2.2,2.2,0,0,0,.273-.074l.211,1.055a1.36,1.36,0,0,1-.508.23,2.562,2.562,0,0,1-.664.09A1.993,1.993,0,0,1,220.5-.4a2.46,2.46,0,0,1-.555-1.777V-7.312H218.6V-8.453h1.344v-2.039Zm7.25,3.4-.789-.047a1.762,1.762,0,0,0-1.027.289,1.855,1.855,0,0,0-.645.813V0h-1.539V-8.453h1.375l.148,1.234a2.934,2.934,0,0,1,.887-1.023,2.073,2.073,0,0,1,1.215-.367,1.9,1.9,0,0,1,.328.027,2.174,2.174,0,0,1,.258.059ZM235.531,0q-.078-.383-.121-.676a4.96,4.96,0,0,1-.051-.59,3.588,3.588,0,0,1-1.121,1.02,2.867,2.867,0,0,1-1.488.41,2.763,2.763,0,0,1-2.012-.676,2.486,2.486,0,0,1-.691-1.863,2.183,2.183,0,0,1,.98-1.895,4.579,4.579,0,0,1,2.66-.684h1.672v-.836a1.551,1.551,0,0,0-.453-1.176,1.779,1.779,0,0,0-1.281-.434,1.859,1.859,0,0,0-1.211.375,1.125,1.125,0,0,0-.461.9l-1.461.016-.016-.047a2.023,2.023,0,0,1,.863-1.687,3.578,3.578,0,0,1,2.371-.766,3.49,3.49,0,0,1,2.313.73,2.588,2.588,0,0,1,.875,2.105V-1.7a7.923,7.923,0,0,0,.047.875,4.5,4.5,0,0,0,.172.828Zm-2.555-1.125a2.739,2.739,0,0,0,1.508-.43,2.042,2.042,0,0,0,.875-.984V-3.914h-1.727a2.24,2.24,0,0,0-1.488.469,1.4,1.4,0,0,0-.559,1.1,1.159,1.159,0,0,0,.352.891A1.472,1.472,0,0,0,232.977-1.125Zm5.8-2.945a5.641,5.641,0,0,1,.871-3.289,2.807,2.807,0,0,1,2.441-1.25,3.027,3.027,0,0,1,1.316.273,2.7,2.7,0,0,1,.98.8v-4.648h1.539V0h-1.18l-.234-1.07a2.743,2.743,0,0,1-1.023.922,3.058,3.058,0,0,1-1.414.313,2.9,2.9,0,0,1-2.422-1.121,4.659,4.659,0,0,1-.875-2.949Zm1.539.164a3.588,3.588,0,0,0,.523,2.051,1.828,1.828,0,0,0,1.625.77,2.039,2.039,0,0,0,1.156-.312,2.334,2.334,0,0,0,.766-.875V-6.219a2.37,2.37,0,0,0-.77-.832,2.033,2.033,0,0,0-1.137-.309,1.759,1.759,0,0,0-1.637.914,4.718,4.718,0,0,0-.527,2.375ZM253.422,0q-.078-.383-.121-.676a4.96,4.96,0,0,1-.051-.59,3.588,3.588,0,0,1-1.121,1.02,2.867,2.867,0,0,1-1.488.41,2.763,2.763,0,0,1-2.012-.676,2.486,2.486,0,0,1-.691-1.863,2.183,2.183,0,0,1,.98-1.895,4.579,4.579,0,0,1,2.66-.684h1.672v-.836a1.551,1.551,0,0,0-.453-1.176,1.779,1.779,0,0,0-1.281-.434,1.859,1.859,0,0,0-1.211.375,1.125,1.125,0,0,0-.461.9l-1.461.016-.016-.047a2.023,2.023,0,0,1,.863-1.687,3.578,3.578,0,0,1,2.371-.766,3.49,3.49,0,0,1,2.313.73,2.588,2.588,0,0,1,.875,2.105V-1.7a7.923,7.923,0,0,0,.047.875,4.5,4.5,0,0,0,.172.828Zm-2.555-1.125a2.739,2.739,0,0,0,1.508-.43,2.042,2.042,0,0,0,.875-.984V-3.914h-1.727a2.24,2.24,0,0,0-1.488.469,1.4,1.4,0,0,0-.559,1.1,1.159,1.159,0,0,0,.352.891A1.472,1.472,0,0,0,250.867-1.125Zm7.844-5.719h-1.539V-8.422h1.539Zm.055,6.469-1.172,2.391h-.914l.547-2.469V-1.727h1.539Z" transform="translate(696 6183)" fill="#00104e"/>
  </g>
</svg>
