<svg xmlns="http://www.w3.org/2000/svg" width="466" height="876" viewBox="0 0 466 876">
  <g id="Grupo_31024" data-name="Grupo 31024" transform="translate(7014 9147)">
    <path id="Trazado_29894" data-name="Trazado 29894" d="M10,0H456a10,10,0,0,1,10,10V866a10,10,0,0,1-10,10H10A10,10,0,0,1,0,866V10A10,10,0,0,1,10,0Z" transform="translate(-7014 -9147)" fill="#ecfafc"/>
    <g id="Grupo_30464" data-name="Grupo 30464" transform="translate(-7107.54 -12125.037)">
      <rect id="Rectángulo_6696" data-name="Rectángulo 6696" width="222.056" height="38" transform="translate(245.796 3140)" fill="#4dd0e1"/>
      <rect id="Rectángulo_6697" data-name="Rectángulo 6697" width="26.869" height="26.87" transform="translate(448.648 3159) rotate(-45)" fill="#4dd0e1"/>
      <rect id="Rectángulo_6698" data-name="Rectángulo 6698" width="26.869" height="26.87" transform="translate(227.002 3159) rotate(-45)" fill="#4dd0e1"/>
    </g>
    <g id="Grupo_30544" data-name="Grupo 30544" transform="translate(-7107.54 -11835.279)">
      <rect id="Rectángulo_6696-2" data-name="Rectángulo 6696" width="222.056" height="38" transform="translate(245.796 3140)" fill="#4dd0e1"/>
      <rect id="Rectángulo_6697-2" data-name="Rectángulo 6697" width="26.869" height="26.87" transform="translate(448.648 3159) rotate(-45)" fill="#4dd0e1"/>
      <rect id="Rectángulo_6698-2" data-name="Rectángulo 6698" width="26.869" height="26.87" transform="translate(227.002 3159) rotate(-45)" fill="#4dd0e1"/>
    </g>
    <path id="Trazado_29899" data-name="Trazado 29899" d="M8.32,11.094a4.659,4.659,0,0,1-.875,2.949,2.893,2.893,0,0,1-2.414,1.121A3.354,3.354,0,0,1,3.66,14.9a2.622,2.622,0,0,1-1-.785V18.25H1.117V6.547H2.3l.242,1.094a2.792,2.792,0,0,1,1.031-.93,3.078,3.078,0,0,1,1.438-.32A2.809,2.809,0,0,1,7.449,7.637,5.638,5.638,0,0,1,8.32,10.93ZM6.781,10.93a4.467,4.467,0,0,0-.566-2.363,1.835,1.835,0,0,0-1.668-.926,2.054,2.054,0,0,0-1.133.3,2.25,2.25,0,0,0-.758.824v4.086a2.186,2.186,0,0,0,.758.816,2.126,2.126,0,0,0,1.148.293,1.894,1.894,0,0,0,1.656-.8,3.516,3.516,0,0,0,.563-2.066ZM15.406,15q-.078-.383-.121-.676a4.96,4.96,0,0,1-.051-.59,3.589,3.589,0,0,1-1.121,1.02,2.867,2.867,0,0,1-1.488.41,2.763,2.763,0,0,1-2.012-.676,2.486,2.486,0,0,1-.691-1.863,2.183,2.183,0,0,1,.98-1.895,4.579,4.579,0,0,1,2.66-.684h1.672V9.211a1.551,1.551,0,0,0-.453-1.176A1.779,1.779,0,0,0,13.5,7.6a1.859,1.859,0,0,0-1.211.375,1.125,1.125,0,0,0-.461.9l-1.461.016-.016-.047a2.023,2.023,0,0,1,.863-1.687,3.578,3.578,0,0,1,2.371-.766,3.49,3.49,0,0,1,2.313.73,2.588,2.588,0,0,1,.875,2.105V13.3a7.923,7.923,0,0,0,.047.875,4.5,4.5,0,0,0,.172.828Zm-2.555-1.125a2.739,2.739,0,0,0,1.508-.43,2.042,2.042,0,0,0,.875-.984V11.086H13.508a2.24,2.24,0,0,0-1.488.469,1.4,1.4,0,0,0-.559,1.1,1.159,1.159,0,0,0,.352.891A1.472,1.472,0,0,0,12.852,13.875ZM23.008,7.906l-.789-.047a1.762,1.762,0,0,0-1.027.289,1.854,1.854,0,0,0-.645.813V15H19.008V6.547h1.375l.148,1.234a2.934,2.934,0,0,1,.887-1.023,2.073,2.073,0,0,1,1.215-.367,1.9,1.9,0,0,1,.328.027,2.175,2.175,0,0,1,.258.059ZM29.8,15q-.078-.383-.121-.676a4.96,4.96,0,0,1-.051-.59,3.589,3.589,0,0,1-1.121,1.02,2.867,2.867,0,0,1-1.488.41,2.763,2.763,0,0,1-2.012-.676,2.486,2.486,0,0,1-.691-1.863,2.183,2.183,0,0,1,.98-1.895,4.579,4.579,0,0,1,2.66-.684h1.672V9.211a1.551,1.551,0,0,0-.453-1.176A1.779,1.779,0,0,0,27.9,7.6a1.859,1.859,0,0,0-1.211.375,1.125,1.125,0,0,0-.461.9l-1.461.016-.016-.047a2.023,2.023,0,0,1,.863-1.687,3.578,3.578,0,0,1,2.371-.766,3.49,3.49,0,0,1,2.313.73,2.588,2.588,0,0,1,.875,2.105V13.3a7.923,7.923,0,0,0,.047.875,4.5,4.5,0,0,0,.172.828ZM27.25,13.875a2.739,2.739,0,0,0,1.508-.43,2.042,2.042,0,0,0,.875-.984V11.086H27.906a2.24,2.24,0,0,0-1.488.469,1.4,1.4,0,0,0-.559,1.1,1.159,1.159,0,0,0,.352.891A1.472,1.472,0,0,0,27.25,13.875ZM39.047,15H37.508V6.547h1.539Zm0-10.617H37.508V2.813h1.539Zm5.992,6.547a5.641,5.641,0,0,1,.871-3.289,2.807,2.807,0,0,1,2.441-1.25,3.027,3.027,0,0,1,1.316.273,2.7,2.7,0,0,1,.98.8V2.813h1.539V15h-1.18l-.234-1.07a2.743,2.743,0,0,1-1.023.922,3.058,3.058,0,0,1-1.414.313,2.9,2.9,0,0,1-2.422-1.121,4.659,4.659,0,0,1-.875-2.949Zm1.539.164a3.588,3.588,0,0,0,.523,2.051,1.828,1.828,0,0,0,1.625.77,2.039,2.039,0,0,0,1.156-.312,2.334,2.334,0,0,0,.766-.875V8.781a2.37,2.37,0,0,0-.77-.832,2.033,2.033,0,0,0-1.137-.309,1.759,1.759,0,0,0-1.637.914,4.718,4.718,0,0,0-.527,2.375Zm11.406,4.07A3.576,3.576,0,0,1,55.145,14a4.48,4.48,0,0,1-1.02-3.062v-.344a4.386,4.386,0,0,1,1.051-3.012,3.3,3.3,0,0,1,2.566-1.191,3.067,3.067,0,0,1,2.543,1.055,4.345,4.345,0,0,1,.848,2.8v.813H55.727L55.7,11.1a3.494,3.494,0,0,0,.563,2.066,1.965,1.965,0,0,0,1.719.793,3.872,3.872,0,0,0,1.371-.223,3.061,3.061,0,0,0,1.012-.613l.6,1a3.7,3.7,0,0,1-1.2.738A4.762,4.762,0,0,1,57.984,15.164ZM57.742,7.6a1.673,1.673,0,0,0-1.332.621,2.938,2.938,0,0,0-.645,1.59l.016.039h3.813V9.727A2.462,2.462,0,0,0,59.141,8.2,1.638,1.638,0,0,0,57.742,7.6Zm10.031,5.125a1.026,1.026,0,0,0-.387-.828,3.732,3.732,0,0,0-1.465-.562,6.146,6.146,0,0,1-2.293-.9,1.814,1.814,0,0,1-.8-1.547,2.229,2.229,0,0,1,.879-1.766,3.879,3.879,0,0,1,4.605.047,2.239,2.239,0,0,1,.852,1.82l-.016.047H67.68a1.331,1.331,0,0,0-.48-.992A1.717,1.717,0,0,0,65.984,7.6a1.751,1.751,0,0,0-1.215.367,1.146,1.146,0,0,0-.4.875.927.927,0,0,0,.348.773,3.848,3.848,0,0,0,1.434.5,6.058,6.058,0,0,1,2.359.93,1.872,1.872,0,0,1,.8,1.57,2.226,2.226,0,0,1-.91,1.836,3.754,3.754,0,0,1-2.379.711,3.715,3.715,0,0,1-2.547-.82,2.341,2.341,0,0,1-.883-1.914l.016-.047h1.469a1.424,1.424,0,0,0,.609,1.2,2.358,2.358,0,0,0,1.336.379,2.1,2.1,0,0,0,1.285-.348A1.063,1.063,0,0,0,67.773,12.727Zm3.1-1.8a5.641,5.641,0,0,1,.871-3.289,2.807,2.807,0,0,1,2.441-1.25,3.027,3.027,0,0,1,1.316.273,2.7,2.7,0,0,1,.98.8V2.813h1.539V15h-1.18l-.234-1.07a2.743,2.743,0,0,1-1.023.922,3.058,3.058,0,0,1-1.414.313,2.9,2.9,0,0,1-2.422-1.121,4.659,4.659,0,0,1-.875-2.949Zm1.539.164a3.588,3.588,0,0,0,.523,2.051,1.828,1.828,0,0,0,1.625.77,2.039,2.039,0,0,0,1.156-.312,2.334,2.334,0,0,0,.766-.875V8.781a2.37,2.37,0,0,0-.77-.832,2.033,2.033,0,0,0-1.137-.309,1.759,1.759,0,0,0-1.637.914,4.718,4.718,0,0,0-.527,2.375Zm11.406,4.07A3.576,3.576,0,0,1,80.98,14a4.48,4.48,0,0,1-1.02-3.062v-.344a4.386,4.386,0,0,1,1.051-3.012,3.3,3.3,0,0,1,2.566-1.191,3.067,3.067,0,0,1,2.543,1.055,4.345,4.345,0,0,1,.848,2.8v.813H81.563l-.023.039a3.494,3.494,0,0,0,.563,2.066,1.965,1.965,0,0,0,1.719.793,3.872,3.872,0,0,0,1.371-.223,3.061,3.061,0,0,0,1.012-.613l.6,1a3.7,3.7,0,0,1-1.2.738A4.762,4.762,0,0,1,83.82,15.164ZM83.578,7.6a1.673,1.673,0,0,0-1.332.621,2.938,2.938,0,0,0-.645,1.59l.016.039H85.43V9.727A2.462,2.462,0,0,0,84.977,8.2,1.638,1.638,0,0,0,83.578,7.6Zm16.1,3.383a4.489,4.489,0,0,1-.98,3.055,3.652,3.652,0,0,1-5.273,0,4.466,4.466,0,0,1-.988-3.055V7.641a4.5,4.5,0,0,1,.98-3.047,3.635,3.635,0,0,1,5.273,0,4.472,4.472,0,0,1,.988,3.047ZM98.141,7.32a3.1,3.1,0,0,0-.547-1.937,1.838,1.838,0,0,0-1.547-.711,1.808,1.808,0,0,0-1.531.711,3.135,3.135,0,0,0-.539,1.938V11.3a3.122,3.122,0,0,0,.551,1.945,2.006,2.006,0,0,0,3.074,0,3.167,3.167,0,0,0,.539-1.949Zm9.055.359a3.119,3.119,0,0,1,1.074-.949,2.947,2.947,0,0,1,1.41-.34,2.73,2.73,0,0,1,2.105.813,3.575,3.575,0,0,1,.754,2.5V15H111V9.688a2.263,2.263,0,0,0-.449-1.547,1.709,1.709,0,0,0-1.34-.5,2.514,2.514,0,0,0-1.2.27,2.174,2.174,0,0,0-.82.754V15h-1.539V2.813H107.2ZM119.945,15q-.078-.383-.121-.676a4.96,4.96,0,0,1-.051-.59,3.589,3.589,0,0,1-1.121,1.02,2.867,2.867,0,0,1-1.488.41,2.763,2.763,0,0,1-2.012-.676,2.486,2.486,0,0,1-.691-1.863,2.183,2.183,0,0,1,.98-1.895,4.579,4.579,0,0,1,2.66-.684h1.672V9.211a1.551,1.551,0,0,0-.453-1.176,1.779,1.779,0,0,0-1.281-.434,1.859,1.859,0,0,0-1.211.375,1.125,1.125,0,0,0-.461.9l-1.461.016-.016-.047a2.023,2.023,0,0,1,.863-1.687,3.578,3.578,0,0,1,2.371-.766,3.49,3.49,0,0,1,2.313.73,2.588,2.588,0,0,1,.875,2.105V13.3a7.923,7.923,0,0,0,.047.875,4.5,4.5,0,0,0,.172.828Zm-2.555-1.125a2.739,2.739,0,0,0,1.508-.43,2.042,2.042,0,0,0,.875-.984V11.086h-1.727a2.24,2.24,0,0,0-1.488.469,1.4,1.4,0,0,0-.559,1.1,1.159,1.159,0,0,0,.352.891A1.472,1.472,0,0,0,117.391,13.875Zm11.07-1.148a1.026,1.026,0,0,0-.387-.828,3.732,3.732,0,0,0-1.465-.562,6.146,6.146,0,0,1-2.293-.9,1.814,1.814,0,0,1-.8-1.547,2.229,2.229,0,0,1,.879-1.766A3.879,3.879,0,0,1,129,7.172a2.239,2.239,0,0,1,.852,1.82l-.016.047h-1.469a1.331,1.331,0,0,0-.48-.992,1.717,1.717,0,0,0-1.215-.445,1.751,1.751,0,0,0-1.215.367,1.146,1.146,0,0,0-.4.875.927.927,0,0,0,.348.773,3.848,3.848,0,0,0,1.434.5,6.058,6.058,0,0,1,2.359.93,1.872,1.872,0,0,1,.8,1.57,2.226,2.226,0,0,1-.91,1.836,3.754,3.754,0,0,1-2.379.711,3.715,3.715,0,0,1-2.547-.82,2.341,2.341,0,0,1-.883-1.914l.016-.047h1.469a1.424,1.424,0,0,0,.609,1.2,2.358,2.358,0,0,0,1.336.379A2.1,2.1,0,0,0,128,13.613,1.063,1.063,0,0,0,128.461,12.727Zm5.594-8.219V6.547h1.6V7.688h-1.6V12.82a1.149,1.149,0,0,0,.246.836.89.89,0,0,0,.652.242,1.429,1.429,0,0,0,.3-.035,2.2,2.2,0,0,0,.273-.074l.211,1.055a1.36,1.36,0,0,1-.508.23,2.562,2.562,0,0,1-.664.09,1.993,1.993,0,0,1-1.492-.566,2.46,2.46,0,0,1-.555-1.777V7.688h-1.344V6.547h1.344V4.508ZM142.5,15q-.078-.383-.121-.676a4.96,4.96,0,0,1-.051-.59,3.588,3.588,0,0,1-1.121,1.02,2.867,2.867,0,0,1-1.488.41,2.763,2.763,0,0,1-2.012-.676,2.486,2.486,0,0,1-.691-1.863A2.183,2.183,0,0,1,138,10.73a4.579,4.579,0,0,1,2.66-.684h1.672V9.211a1.551,1.551,0,0,0-.453-1.176,1.779,1.779,0,0,0-1.281-.434,1.859,1.859,0,0,0-1.211.375,1.125,1.125,0,0,0-.461.9l-1.461.016-.016-.047a2.023,2.023,0,0,1,.863-1.687,3.578,3.578,0,0,1,2.371-.766,3.49,3.49,0,0,1,2.313.73,2.588,2.588,0,0,1,.875,2.105V13.3a7.923,7.923,0,0,0,.047.875,4.5,4.5,0,0,0,.172.828Zm-2.555-1.125a2.739,2.739,0,0,0,1.508-.43,2.042,2.042,0,0,0,.875-.984V11.086H140.6a2.24,2.24,0,0,0-1.488.469,1.4,1.4,0,0,0-.559,1.1,1.159,1.159,0,0,0,.352.891A1.472,1.472,0,0,0,139.945,13.875Zm12.273-9.367V6.547h1.6V7.688h-1.6V12.82a1.149,1.149,0,0,0,.246.836.89.89,0,0,0,.652.242,1.429,1.429,0,0,0,.3-.035,2.2,2.2,0,0,0,.273-.074l.211,1.055a1.36,1.36,0,0,1-.508.23,2.562,2.562,0,0,1-.664.09,1.993,1.993,0,0,1-1.492-.566,2.46,2.46,0,0,1-.555-1.777V7.688h-1.344V6.547h1.344V4.508ZM160.664,15q-.078-.383-.121-.676a4.96,4.96,0,0,1-.051-.59,3.588,3.588,0,0,1-1.121,1.02,2.867,2.867,0,0,1-1.488.41,2.763,2.763,0,0,1-2.012-.676,2.486,2.486,0,0,1-.691-1.863,2.183,2.183,0,0,1,.98-1.895,4.579,4.579,0,0,1,2.66-.684h1.672V9.211a1.551,1.551,0,0,0-.453-1.176,1.779,1.779,0,0,0-1.281-.434,1.859,1.859,0,0,0-1.211.375,1.125,1.125,0,0,0-.461.9l-1.461.016-.016-.047a2.023,2.023,0,0,1,.863-1.687,3.578,3.578,0,0,1,2.371-.766,3.49,3.49,0,0,1,2.313.73,2.588,2.588,0,0,1,.875,2.105V13.3a7.923,7.923,0,0,0,.047.875,4.5,4.5,0,0,0,.172.828Zm-2.555-1.125a2.739,2.739,0,0,0,1.508-.43,2.042,2.042,0,0,0,.875-.984V11.086h-1.727a2.24,2.24,0,0,0-1.488.469,1.4,1.4,0,0,0-.559,1.1,1.159,1.159,0,0,0,.352.891A1.472,1.472,0,0,0,158.109,13.875Zm7.531-7.328.109,1.109a2.871,2.871,0,0,1,1.051-.934,3.158,3.158,0,0,1,1.48-.332,2.615,2.615,0,0,1,1.449.391,2.363,2.363,0,0,1,.91,1.172A3.162,3.162,0,0,1,171.7,6.809a2.769,2.769,0,0,1,1.527-.418,2.531,2.531,0,0,1,2.039.887,4.051,4.051,0,0,1,.75,2.668V15h-1.539V9.93a2.81,2.81,0,0,0-.43-1.77,1.567,1.567,0,0,0-1.281-.52,1.631,1.631,0,0,0-1.277.547,2.381,2.381,0,0,0-.574,1.383V15h-1.547V9.93a2.772,2.772,0,0,0-.441-1.738,1.532,1.532,0,0,0-1.27-.551,2.115,2.115,0,0,0-1.156.289,1.867,1.867,0,0,0-.7.813V15h-1.539V6.547ZM183.445,15q-.078-.383-.121-.676a4.96,4.96,0,0,1-.051-.59,3.588,3.588,0,0,1-1.121,1.02,2.867,2.867,0,0,1-1.488.41,2.763,2.763,0,0,1-2.012-.676,2.486,2.486,0,0,1-.691-1.863,2.183,2.183,0,0,1,.98-1.895,4.579,4.579,0,0,1,2.66-.684h1.672V9.211a1.551,1.551,0,0,0-.453-1.176,1.779,1.779,0,0,0-1.281-.434,1.859,1.859,0,0,0-1.211.375,1.125,1.125,0,0,0-.461.9l-1.461.016-.016-.047a2.023,2.023,0,0,1,.863-1.687,3.578,3.578,0,0,1,2.371-.766,3.49,3.49,0,0,1,2.313.73,2.588,2.588,0,0,1,.875,2.105V13.3a7.923,7.923,0,0,0,.047.875,4.5,4.5,0,0,0,.172.828Zm-2.555-1.125a2.739,2.739,0,0,0,1.508-.43,2.042,2.042,0,0,0,.875-.984V11.086h-1.727a2.24,2.24,0,0,0-1.488.469,1.4,1.4,0,0,0-.559,1.1,1.159,1.159,0,0,0,.352.891A1.472,1.472,0,0,0,180.891,13.875Zm7.531-7.328.109,1.258a3.069,3.069,0,0,1,1.059-1.043,2.824,2.824,0,0,1,1.449-.371,2.759,2.759,0,0,1,2.117.8,3.515,3.515,0,0,1,.75,2.473V15h-1.539V9.7a2.287,2.287,0,0,0-.441-1.586,1.768,1.768,0,0,0-1.348-.469,2.386,2.386,0,0,0-1.207.285,2.072,2.072,0,0,0-.785.8V15h-1.539V6.547Zm4.734-3.437a1.772,1.772,0,0,1-.465,1.242,1.516,1.516,0,0,1-1.168.508,2.242,2.242,0,0,1-1.156-.363,2.07,2.07,0,0,0-1-.363.723.723,0,0,0-.562.254.889.889,0,0,0-.227.613l-.844-.2a1.872,1.872,0,0,1,.461-1.262A1.479,1.479,0,0,1,189.367,3a2.379,2.379,0,0,1,1.094.367,2.356,2.356,0,0,0,1.063.367.731.731,0,0,0,.555-.254.882.882,0,0,0,.234-.621Zm2.625,7.586a4.654,4.654,0,0,1,1.016-3.09,3.764,3.764,0,0,1,5.535,0,4.639,4.639,0,0,1,1.02,3.094v.172a4.631,4.631,0,0,1-1.016,3.094,3.781,3.781,0,0,1-5.535,0,4.623,4.623,0,0,1-1.02-3.09Zm1.539.172a4.009,4.009,0,0,0,.566,2.219,2.046,2.046,0,0,0,3.355,0,3.988,3.988,0,0,0,.57-2.219V10.7a3.976,3.976,0,0,0-.574-2.211,1.882,1.882,0,0,0-1.684-.883,1.856,1.856,0,0,0-1.668.883,4.018,4.018,0,0,0-.566,2.211Zm16.688-.07H209.4v-1.2h4.609Zm6.844,4.2H219.3V5.047l-2.477.023V3.883l4.023-.422Z" transform="translate(-6863.538 -8975.537)" fill="#00104e"/>
    <path id="Trazado_29907" data-name="Trazado 29907" d="M12.733,10.438V15H11.194V3.625h4.352a4.009,4.009,0,0,1,2.832.938A3.207,3.207,0,0,1,19.39,7.031a3.2,3.2,0,0,1-1.012,2.477,4.031,4.031,0,0,1-2.832.93Zm0-1.2h2.813a2.231,2.231,0,0,0,1.727-.621,2.227,2.227,0,0,0,.57-1.566,2.26,2.26,0,0,0-.574-1.578,2.21,2.21,0,0,0-1.723-.633H12.733ZM26.265,15q-.078-.383-.121-.676a4.96,4.96,0,0,1-.051-.59,3.589,3.589,0,0,1-1.121,1.02,2.867,2.867,0,0,1-1.488.41,2.763,2.763,0,0,1-2.012-.676,2.486,2.486,0,0,1-.691-1.863,2.183,2.183,0,0,1,.98-1.895,4.579,4.579,0,0,1,2.66-.684h1.672V9.211a1.551,1.551,0,0,0-.453-1.176A1.779,1.779,0,0,0,24.358,7.6a1.859,1.859,0,0,0-1.211.375,1.125,1.125,0,0,0-.461.9l-1.461.016-.016-.047a2.023,2.023,0,0,1,.863-1.687,3.578,3.578,0,0,1,2.371-.766,3.49,3.49,0,0,1,2.313.73,2.588,2.588,0,0,1,.875,2.105V13.3a7.923,7.923,0,0,0,.047.875,4.5,4.5,0,0,0,.172.828ZM23.71,13.875a2.739,2.739,0,0,0,1.508-.43,2.042,2.042,0,0,0,.875-.984V11.086H24.366a2.24,2.24,0,0,0-1.488.469,1.4,1.4,0,0,0-.559,1.1,1.159,1.159,0,0,0,.352.891A1.472,1.472,0,0,0,23.71,13.875ZM33.866,7.906l-.789-.047a1.762,1.762,0,0,0-1.027.289,1.854,1.854,0,0,0-.645.813V15H29.866V6.547h1.375l.148,1.234a2.934,2.934,0,0,1,.887-1.023,2.073,2.073,0,0,1,1.215-.367,1.9,1.9,0,0,1,.328.027,2.174,2.174,0,0,1,.258.059ZM40.663,15q-.078-.383-.121-.676a4.96,4.96,0,0,1-.051-.59,3.589,3.589,0,0,1-1.121,1.02,2.867,2.867,0,0,1-1.488.41,2.763,2.763,0,0,1-2.012-.676,2.486,2.486,0,0,1-.691-1.863,2.183,2.183,0,0,1,.98-1.895,4.579,4.579,0,0,1,2.66-.684h1.672V9.211a1.551,1.551,0,0,0-.453-1.176A1.779,1.779,0,0,0,38.757,7.6a1.859,1.859,0,0,0-1.211.375,1.125,1.125,0,0,0-.461.9l-1.461.016-.016-.047a2.023,2.023,0,0,1,.863-1.687,3.578,3.578,0,0,1,2.371-.766,3.49,3.49,0,0,1,2.313.73,2.588,2.588,0,0,1,.875,2.105V13.3a7.923,7.923,0,0,0,.047.875,4.5,4.5,0,0,0,.172.828Zm-2.555-1.125a2.739,2.739,0,0,0,1.508-.43,2.042,2.042,0,0,0,.875-.984V11.086H38.765a2.24,2.24,0,0,0-1.488.469,1.4,1.4,0,0,0-.559,1.1,1.159,1.159,0,0,0,.352.891A1.472,1.472,0,0,0,38.108,13.875ZM49.905,15H48.366V6.547h1.539Zm0-10.617H48.366V2.813h1.539ZM55.9,10.93a5.641,5.641,0,0,1,.871-3.289,2.807,2.807,0,0,1,2.441-1.25,3.027,3.027,0,0,1,1.316.273,2.7,2.7,0,0,1,.98.8V2.813h1.539V15h-1.18l-.234-1.07a2.743,2.743,0,0,1-1.023.922,3.058,3.058,0,0,1-1.414.313,2.9,2.9,0,0,1-2.422-1.121,4.659,4.659,0,0,1-.875-2.949Zm1.539.164a3.588,3.588,0,0,0,.523,2.051,1.828,1.828,0,0,0,1.625.77,2.039,2.039,0,0,0,1.156-.312,2.334,2.334,0,0,0,.766-.875V8.781a2.37,2.37,0,0,0-.77-.832A2.033,2.033,0,0,0,59.6,7.641a1.759,1.759,0,0,0-1.637.914,4.718,4.718,0,0,0-.527,2.375Zm11.406,4.07A3.576,3.576,0,0,1,66,14a4.48,4.48,0,0,1-1.02-3.062v-.344a4.386,4.386,0,0,1,1.051-3.012A3.3,3.3,0,0,1,68.6,6.391a3.067,3.067,0,0,1,2.543,1.055,4.345,4.345,0,0,1,.848,2.8v.813H66.585l-.023.039a3.494,3.494,0,0,0,.563,2.066,1.965,1.965,0,0,0,1.719.793,3.872,3.872,0,0,0,1.371-.223,3.061,3.061,0,0,0,1.012-.613l.6,1a3.7,3.7,0,0,1-1.2.738A4.762,4.762,0,0,1,68.843,15.164ZM68.6,7.6a1.673,1.673,0,0,0-1.332.621,2.938,2.938,0,0,0-.645,1.59l.016.039h3.813V9.727A2.462,2.462,0,0,0,70,8.2,1.638,1.638,0,0,0,68.6,7.6Zm10.031,5.125a1.026,1.026,0,0,0-.387-.828,3.732,3.732,0,0,0-1.465-.562,6.146,6.146,0,0,1-2.293-.9,1.814,1.814,0,0,1-.8-1.547,2.229,2.229,0,0,1,.879-1.766,3.879,3.879,0,0,1,4.605.047,2.239,2.239,0,0,1,.852,1.82l-.016.047H78.538a1.331,1.331,0,0,0-.48-.992A1.717,1.717,0,0,0,76.843,7.6a1.751,1.751,0,0,0-1.215.367,1.146,1.146,0,0,0-.4.875.927.927,0,0,0,.348.773,3.848,3.848,0,0,0,1.434.5,6.058,6.058,0,0,1,2.359.93,1.872,1.872,0,0,1,.8,1.57,2.226,2.226,0,0,1-.91,1.836,3.754,3.754,0,0,1-2.379.711,3.715,3.715,0,0,1-2.547-.82,2.341,2.341,0,0,1-.883-1.914l.016-.047h1.469a1.424,1.424,0,0,0,.609,1.2,2.358,2.358,0,0,0,1.336.379,2.1,2.1,0,0,0,1.285-.348A1.063,1.063,0,0,0,78.632,12.727Zm3.1-1.8A5.641,5.641,0,0,1,82.6,7.641a2.807,2.807,0,0,1,2.441-1.25,3.027,3.027,0,0,1,1.316.273,2.7,2.7,0,0,1,.98.8V2.813h1.539V15H87.7l-.234-1.07a2.743,2.743,0,0,1-1.023.922,3.058,3.058,0,0,1-1.414.313,2.9,2.9,0,0,1-2.422-1.121,4.659,4.659,0,0,1-.875-2.949Zm1.539.164a3.588,3.588,0,0,0,.523,2.051,1.828,1.828,0,0,0,1.625.77,2.039,2.039,0,0,0,1.156-.312,2.334,2.334,0,0,0,.766-.875V8.781a2.37,2.37,0,0,0-.77-.832,2.033,2.033,0,0,0-1.137-.309,1.759,1.759,0,0,0-1.637.914,4.718,4.718,0,0,0-.527,2.375Zm11.406,4.07A3.576,3.576,0,0,1,91.839,14a4.48,4.48,0,0,1-1.02-3.062v-.344A4.386,4.386,0,0,1,91.87,7.582a3.3,3.3,0,0,1,2.566-1.191,3.067,3.067,0,0,1,2.543,1.055,4.345,4.345,0,0,1,.848,2.8v.813H92.421L92.4,11.1a3.494,3.494,0,0,0,.563,2.066,1.965,1.965,0,0,0,1.719.793,3.872,3.872,0,0,0,1.371-.223,3.061,3.061,0,0,0,1.012-.613l.6,1a3.7,3.7,0,0,1-1.2.738A4.762,4.762,0,0,1,94.679,15.164ZM94.437,7.6a1.673,1.673,0,0,0-1.332.621,2.938,2.938,0,0,0-.645,1.59l.016.039h3.813V9.727A2.462,2.462,0,0,0,95.835,8.2,1.638,1.638,0,0,0,94.437,7.6Zm16.1,3.383a4.489,4.489,0,0,1-.98,3.055,3.652,3.652,0,0,1-5.273,0,4.466,4.466,0,0,1-.988-3.055V7.641a4.5,4.5,0,0,1,.98-3.047,3.635,3.635,0,0,1,5.273,0,4.472,4.472,0,0,1,.988,3.047ZM109,7.32a3.1,3.1,0,0,0-.547-1.937,1.838,1.838,0,0,0-1.547-.711,1.808,1.808,0,0,0-1.531.711,3.135,3.135,0,0,0-.539,1.938V11.3a3.122,3.122,0,0,0,.551,1.945,2.006,2.006,0,0,0,3.074,0A3.167,3.167,0,0,0,109,11.3Zm9.055.359a3.119,3.119,0,0,1,1.074-.949,2.947,2.947,0,0,1,1.41-.34,2.73,2.73,0,0,1,2.105.813,3.575,3.575,0,0,1,.754,2.5V15h-1.539V9.688a2.263,2.263,0,0,0-.449-1.547,1.709,1.709,0,0,0-1.34-.5,2.514,2.514,0,0,0-1.2.27,2.174,2.174,0,0,0-.82.754V15h-1.539V2.813h1.539ZM130.8,15q-.078-.383-.121-.676a4.96,4.96,0,0,1-.051-.59,3.588,3.588,0,0,1-1.121,1.02,2.867,2.867,0,0,1-1.488.41,2.763,2.763,0,0,1-2.012-.676,2.486,2.486,0,0,1-.691-1.863,2.183,2.183,0,0,1,.98-1.895,4.579,4.579,0,0,1,2.66-.684h1.672V9.211a1.551,1.551,0,0,0-.453-1.176A1.779,1.779,0,0,0,128.9,7.6a1.859,1.859,0,0,0-1.211.375,1.125,1.125,0,0,0-.461.9l-1.461.016-.016-.047a2.023,2.023,0,0,1,.863-1.687,3.578,3.578,0,0,1,2.371-.766,3.49,3.49,0,0,1,2.313.73,2.588,2.588,0,0,1,.875,2.105V13.3a7.923,7.923,0,0,0,.047.875,4.5,4.5,0,0,0,.172.828Zm-2.555-1.125a2.739,2.739,0,0,0,1.508-.43,2.042,2.042,0,0,0,.875-.984V11.086h-1.727a2.24,2.24,0,0,0-1.488.469,1.4,1.4,0,0,0-.559,1.1,1.159,1.159,0,0,0,.352.891A1.472,1.472,0,0,0,128.249,13.875Zm11.07-1.148a1.026,1.026,0,0,0-.387-.828,3.732,3.732,0,0,0-1.465-.562,6.146,6.146,0,0,1-2.293-.9,1.814,1.814,0,0,1-.8-1.547,2.229,2.229,0,0,1,.879-1.766,3.879,3.879,0,0,1,4.605.047,2.239,2.239,0,0,1,.852,1.82l-.016.047h-1.469a1.331,1.331,0,0,0-.48-.992A1.717,1.717,0,0,0,137.53,7.6a1.751,1.751,0,0,0-1.215.367,1.146,1.146,0,0,0-.4.875.927.927,0,0,0,.348.773,3.848,3.848,0,0,0,1.434.5,6.058,6.058,0,0,1,2.359.93,1.872,1.872,0,0,1,.8,1.57,2.226,2.226,0,0,1-.91,1.836,3.754,3.754,0,0,1-2.379.711,3.715,3.715,0,0,1-2.547-.82,2.341,2.341,0,0,1-.883-1.914l.016-.047h1.469a1.424,1.424,0,0,0,.609,1.2,2.358,2.358,0,0,0,1.336.379,2.1,2.1,0,0,0,1.285-.348A1.063,1.063,0,0,0,139.319,12.727Zm5.594-8.219V6.547h1.6V7.688h-1.6V12.82a1.149,1.149,0,0,0,.246.836.89.89,0,0,0,.652.242,1.429,1.429,0,0,0,.3-.035,2.2,2.2,0,0,0,.273-.074l.211,1.055a1.36,1.36,0,0,1-.508.23,2.562,2.562,0,0,1-.664.09,1.993,1.993,0,0,1-1.492-.566,2.46,2.46,0,0,1-.555-1.777V7.688H142.03V6.547h1.344V4.508ZM153.358,15q-.078-.383-.121-.676a4.96,4.96,0,0,1-.051-.59,3.588,3.588,0,0,1-1.121,1.02,2.867,2.867,0,0,1-1.488.41,2.763,2.763,0,0,1-2.012-.676,2.486,2.486,0,0,1-.691-1.863,2.183,2.183,0,0,1,.98-1.895,4.579,4.579,0,0,1,2.66-.684h1.672V9.211a1.551,1.551,0,0,0-.453-1.176,1.779,1.779,0,0,0-1.281-.434,1.859,1.859,0,0,0-1.211.375,1.125,1.125,0,0,0-.461.9l-1.461.016-.016-.047a2.023,2.023,0,0,1,.863-1.687,3.578,3.578,0,0,1,2.371-.766,3.49,3.49,0,0,1,2.313.73,2.588,2.588,0,0,1,.875,2.105V13.3a7.923,7.923,0,0,0,.047.875,4.5,4.5,0,0,0,.172.828ZM150.8,13.875a2.739,2.739,0,0,0,1.508-.43,2.042,2.042,0,0,0,.875-.984V11.086H151.46a2.24,2.24,0,0,0-1.488.469,1.4,1.4,0,0,0-.559,1.1,1.159,1.159,0,0,0,.352.891A1.472,1.472,0,0,0,150.8,13.875Zm12.273-9.367V6.547h1.6V7.688h-1.6V12.82a1.149,1.149,0,0,0,.246.836.89.89,0,0,0,.652.242,1.429,1.429,0,0,0,.3-.035,2.2,2.2,0,0,0,.273-.074l.211,1.055a1.36,1.36,0,0,1-.508.23,2.562,2.562,0,0,1-.664.09,1.993,1.993,0,0,1-1.492-.566,2.46,2.46,0,0,1-.555-1.777V7.688h-1.344V6.547h1.344V4.508ZM171.522,15q-.078-.383-.121-.676a4.96,4.96,0,0,1-.051-.59,3.588,3.588,0,0,1-1.121,1.02,2.867,2.867,0,0,1-1.488.41,2.763,2.763,0,0,1-2.012-.676,2.486,2.486,0,0,1-.691-1.863,2.183,2.183,0,0,1,.98-1.895,4.579,4.579,0,0,1,2.66-.684h1.672V9.211a1.551,1.551,0,0,0-.453-1.176,1.779,1.779,0,0,0-1.281-.434,1.859,1.859,0,0,0-1.211.375,1.125,1.125,0,0,0-.461.9l-1.461.016-.016-.047a2.023,2.023,0,0,1,.863-1.687,3.578,3.578,0,0,1,2.371-.766,3.49,3.49,0,0,1,2.313.73,2.588,2.588,0,0,1,.875,2.105V13.3a7.923,7.923,0,0,0,.047.875,4.5,4.5,0,0,0,.172.828Zm-2.555-1.125a2.739,2.739,0,0,0,1.508-.43,2.042,2.042,0,0,0,.875-.984V11.086h-1.727a2.24,2.24,0,0,0-1.488.469,1.4,1.4,0,0,0-.559,1.1,1.159,1.159,0,0,0,.352.891A1.472,1.472,0,0,0,168.968,13.875ZM176.5,6.547l.109,1.109a2.871,2.871,0,0,1,1.051-.934,3.158,3.158,0,0,1,1.48-.332,2.615,2.615,0,0,1,1.449.391,2.363,2.363,0,0,1,.91,1.172,3.162,3.162,0,0,1,1.059-1.145,2.769,2.769,0,0,1,1.527-.418,2.531,2.531,0,0,1,2.039.887,4.051,4.051,0,0,1,.75,2.668V15h-1.539V9.93a2.81,2.81,0,0,0-.43-1.77,1.567,1.567,0,0,0-1.281-.52,1.631,1.631,0,0,0-1.277.547,2.381,2.381,0,0,0-.574,1.383V15h-1.547V9.93a2.772,2.772,0,0,0-.441-1.738,1.532,1.532,0,0,0-1.27-.551,2.115,2.115,0,0,0-1.156.289,1.867,1.867,0,0,0-.7.813V15h-1.539V6.547ZM194.3,15q-.078-.383-.121-.676a4.96,4.96,0,0,1-.051-.59,3.588,3.588,0,0,1-1.121,1.02,2.867,2.867,0,0,1-1.488.41,2.763,2.763,0,0,1-2.012-.676,2.486,2.486,0,0,1-.691-1.863,2.183,2.183,0,0,1,.98-1.895,4.579,4.579,0,0,1,2.66-.684h1.672V9.211a1.551,1.551,0,0,0-.453-1.176A1.779,1.779,0,0,0,192.4,7.6a1.859,1.859,0,0,0-1.211.375,1.125,1.125,0,0,0-.461.9l-1.461.016-.016-.047a2.023,2.023,0,0,1,.863-1.687,3.578,3.578,0,0,1,2.371-.766,3.49,3.49,0,0,1,2.313.73,2.588,2.588,0,0,1,.875,2.105V13.3a7.923,7.923,0,0,0,.047.875,4.5,4.5,0,0,0,.172.828Zm-2.555-1.125a2.739,2.739,0,0,0,1.508-.43,2.042,2.042,0,0,0,.875-.984V11.086h-1.727a2.24,2.24,0,0,0-1.488.469,1.4,1.4,0,0,0-.559,1.1,1.159,1.159,0,0,0,.352.891A1.472,1.472,0,0,0,191.749,13.875Zm7.531-7.328L199.39,7.8a3.069,3.069,0,0,1,1.059-1.043,2.824,2.824,0,0,1,1.449-.371,2.759,2.759,0,0,1,2.117.8,3.515,3.515,0,0,1,.75,2.473V15h-1.539V9.7a2.287,2.287,0,0,0-.441-1.586,1.768,1.768,0,0,0-1.348-.469,2.386,2.386,0,0,0-1.207.285,2.072,2.072,0,0,0-.785.8V15h-1.539V6.547ZM206.64,10.7a4.654,4.654,0,0,1,1.016-3.09,3.764,3.764,0,0,1,5.535,0,4.639,4.639,0,0,1,1.02,3.094v.172a4.631,4.631,0,0,1-1.016,3.094,3.781,3.781,0,0,1-5.535,0,4.623,4.623,0,0,1-1.02-3.09Zm1.539.172a4.009,4.009,0,0,0,.566,2.219,2.046,2.046,0,0,0,3.355,0,3.988,3.988,0,0,0,.57-2.219V10.7a3.976,3.976,0,0,0-.574-2.211,1.882,1.882,0,0,0-1.684-.883,1.856,1.856,0,0,0-1.668.883,4.018,4.018,0,0,0-.566,2.211Z" transform="translate(-6863.538 -8685.778)" fill="#00104e"/>
    <path id="Icon_awesome-long-arrow-alt-down" data-name="Icon awesome-long-arrow-alt-down" d="M11.812,14.324V-6.906a.844.844,0,0,0-.844-.844H7.031a.844.844,0,0,0-.844.844v21.23H2.949A1.688,1.688,0,0,0,1.756,17.2l6.051,6.051a1.687,1.687,0,0,0,2.386,0L16.244,17.2a1.688,1.688,0,0,0-1.193-2.881Z" transform="translate(-6759.442 -8719.244)" fill="#26a69a"/>
    <path id="Icon_awesome-long-arrow-alt-down-2" data-name="Icon awesome-long-arrow-alt-down" d="M11.812,14.324V-6.906a.844.844,0,0,0-.844-.844H7.031a.844.844,0,0,0-.844.844v21.23H2.949A1.688,1.688,0,0,0,1.756,17.2l6.051,6.051a1.687,1.687,0,0,0,2.386,0L16.244,17.2a1.688,1.688,0,0,0-1.193-2.881Z" transform="translate(-6925.018 -8557.243)" fill="#26a69a"/>
    <path id="Trazado_29438" data-name="Trazado 29438" d="M11.907,11.907,128.488-14.142,102.439,102.439-14.142,128.488Z" transform="translate(-6750.683 -8642.848) rotate(45)" fill="#4dd0e1"/>
    <path id="Trazado_29910" data-name="Trazado 29910" d="M2.781,0H1.242V-12.187H2.781ZM6.813,0H5.273V-8.453H6.813Zm0-10.617H5.273v-1.57H6.813Zm7.281,8.344a1.026,1.026,0,0,0-.387-.828,3.732,3.732,0,0,0-1.465-.562,6.146,6.146,0,0,1-2.293-.9,1.814,1.814,0,0,1-.8-1.547,2.229,2.229,0,0,1,.879-1.766A3.433,3.433,0,0,1,12.3-8.609a3.4,3.4,0,0,1,2.328.781,2.239,2.239,0,0,1,.852,1.82l-.016.047H14a1.331,1.331,0,0,0-.48-.992A1.717,1.717,0,0,0,12.3-7.4a1.751,1.751,0,0,0-1.215.367,1.146,1.146,0,0,0-.4.875.927.927,0,0,0,.348.773,3.848,3.848,0,0,0,1.434.5,6.058,6.058,0,0,1,2.359.93,1.872,1.872,0,0,1,.8,1.57,2.226,2.226,0,0,1-.91,1.836,3.754,3.754,0,0,1-2.379.711A3.715,3.715,0,0,1,9.8-.656,2.341,2.341,0,0,1,8.914-2.57l.016-.047H10.4a1.424,1.424,0,0,0,.609,1.2,2.358,2.358,0,0,0,1.336.379,2.1,2.1,0,0,0,1.285-.348A1.063,1.063,0,0,0,14.094-2.273Zm5.594-8.219v2.039h1.6v1.141h-1.6V-2.18a1.149,1.149,0,0,0,.246.836.89.89,0,0,0,.652.242,1.429,1.429,0,0,0,.3-.035,2.2,2.2,0,0,0,.273-.074l.211,1.055a1.36,1.36,0,0,1-.508.23,2.562,2.562,0,0,1-.664.09A1.993,1.993,0,0,1,18.7-.4a2.46,2.46,0,0,1-.555-1.777V-7.312H16.8V-8.453h1.344v-2.039ZM28.133,0q-.078-.383-.121-.676a4.96,4.96,0,0,1-.051-.59A3.589,3.589,0,0,1,26.84-.246a2.867,2.867,0,0,1-1.488.41A2.763,2.763,0,0,1,23.34-.512a2.486,2.486,0,0,1-.691-1.863,2.183,2.183,0,0,1,.98-1.895,4.579,4.579,0,0,1,2.66-.684h1.672v-.836a1.551,1.551,0,0,0-.453-1.176A1.779,1.779,0,0,0,26.227-7.4a1.859,1.859,0,0,0-1.211.375,1.125,1.125,0,0,0-.461.9l-1.461.016-.016-.047a2.023,2.023,0,0,1,.863-1.687,3.578,3.578,0,0,1,2.371-.766,3.49,3.49,0,0,1,2.313.73A2.588,2.588,0,0,1,29.5-5.773V-1.7a7.923,7.923,0,0,0,.047.875A4.5,4.5,0,0,0,29.719,0ZM25.578-1.125a2.739,2.739,0,0,0,1.508-.43,2.042,2.042,0,0,0,.875-.984V-3.914H26.234a2.24,2.24,0,0,0-1.488.469,1.4,1.4,0,0,0-.559,1.1,1.159,1.159,0,0,0,.352.891A1.472,1.472,0,0,0,25.578-1.125Zm9.164-10.664H33.273V1.227h1.469V2.438H31.734V-13h3.008ZM41.688,0H40.148V-8.453h1.539Zm0-10.617H40.148v-1.57h1.539ZM47-13h3.016V2.438H47V1.227h1.477V-11.789H47Zm9.266,6.766V-7.758L62.953-4.8v1.164L56.266-.68V-2.211L60.938-4.07,61.6-4.2V-4.25l-.664-.156ZM73.1,0H71.555V-9.953l-2.477.023v-1.187l4.023-.422ZM84.688-4.016a4.489,4.489,0,0,1-.98,3.055A3.321,3.321,0,0,1,81.07.164,3.335,3.335,0,0,1,78.434-.961a4.466,4.466,0,0,1-.988-3.055V-7.359a4.5,4.5,0,0,1,.98-3.047,3.3,3.3,0,0,1,2.629-1.133A3.333,3.333,0,0,1,83.7-10.406a4.472,4.472,0,0,1,.988,3.047ZM83.148-7.68A3.1,3.1,0,0,0,82.6-9.617a1.838,1.838,0,0,0-1.547-.711,1.808,1.808,0,0,0-1.531.711,3.135,3.135,0,0,0-.539,1.938V-3.7a3.121,3.121,0,0,0,.551,1.945,1.824,1.824,0,0,0,1.535.719,1.813,1.813,0,0,0,1.539-.715A3.167,3.167,0,0,0,83.148-3.7ZM93.7-4.016a4.489,4.489,0,0,1-.98,3.055A3.321,3.321,0,0,1,90.078.164,3.335,3.335,0,0,1,87.441-.961a4.466,4.466,0,0,1-.988-3.055V-7.359a4.5,4.5,0,0,1,.98-3.047,3.3,3.3,0,0,1,2.629-1.133,3.333,3.333,0,0,1,2.645,1.133A4.472,4.472,0,0,1,93.7-7.359ZM92.156-7.68a3.1,3.1,0,0,0-.547-1.937,1.838,1.838,0,0,0-1.547-.711,1.808,1.808,0,0,0-1.531.711,3.135,3.135,0,0,0-.539,1.938V-3.7a3.121,3.121,0,0,0,.551,1.945,1.824,1.824,0,0,0,1.535.719,1.813,1.813,0,0,0,1.539-.715A3.167,3.167,0,0,0,92.156-3.7Z" transform="translate(-6797.538 -8557.801)" fill="#00104e"/>
    <path id="Trazado_29911" data-name="Trazado 29911" d="M2,0H37.828a2,2,0,0,1,2,2V4a2,2,0,0,1-2,2H2A2,2,0,0,1,0,4V2A2,2,0,0,1,2,0Z" transform="translate(-6649.828 -8564.993)" fill="#26a69a"/>
    <path id="Trazado_29900" data-name="Trazado 29900" d="M2,0H50a2,2,0,0,1,2,2V4a2,2,0,0,1-2,2H2A2,2,0,0,1,0,4V2A2,2,0,0,1,2,0Z" transform="translate(-6620.893 -8969.395)" fill="#26a69a"/>
    <path id="Trazado_29908" data-name="Trazado 29908" d="M2,0H50a2,2,0,0,1,2,2V4a2,2,0,0,1-2,2H2A2,2,0,0,1,0,4V2A2,2,0,0,1,2,0Z" transform="translate(-6620.893 -8678.001)" fill="#26a69a"/>
    <path id="Trazado_29916" data-name="Trazado 29916" d="M2,0H306.261a2,2,0,0,1,2,2V4a2,2,0,0,1-2,2H2A2,2,0,0,1,0,4V2A2,2,0,0,1,2,0Z" transform="translate(-6919.018 -8437.133)" fill="#26a69a"/>
    <path id="Trazado_29906" data-name="Trazado 29906" d="M2,0H178.108a2,2,0,0,1,2,2V4a2,2,0,0,1-2,2H2A2,2,0,0,1,0,4V2A2,2,0,0,1,2,0Z" transform="translate(-6753.538 -8726.994)" fill="#26a69a"/>
    <path id="Trazado_29921" data-name="Trazado 29921" d="M2,0H182.387a2,2,0,0,1,2,2V4a2,2,0,0,1-2,2H2A2,2,0,0,1,0,4V2A2,2,0,0,1,2,0Z" transform="translate(-6753.538 -8358.6)" fill="#26a69a"/>
    <path id="Trazado_29912" data-name="Trazado 29912" d="M2,0H62.48a2,2,0,0,1,2,2V4a2,2,0,0,1-2,2H2A2,2,0,0,1,0,4V2A2,2,0,0,1,2,0Z" transform="translate(-6916.018 -8564.993)" fill="#26a69a"/>
    <path id="Trazado_29913" data-name="Trazado 29913" d="M2,0H128.14a2,2,0,0,1,2,2V4a2,2,0,0,1-2,2H2A2,2,0,0,1,0,4V2A2,2,0,0,1,2,0Z" transform="translate(-6610 -8562.195) rotate(90)" fill="#26a69a"/>
    <path id="Trazado_29914" data-name="Trazado 29914" d="M2,0H90.145a2,2,0,0,1,2,2V4a2,2,0,0,1-2,2H2A2,2,0,0,1,0,4V2A2,2,0,0,1,2,0Z" transform="translate(-6913.018 -8524.2) rotate(90)" fill="#26a69a"/>
    <path id="Trazado_29919" data-name="Trazado 29919" d="M2,0H243.6a2,2,0,0,1,2,2V4a2,2,0,0,1-2,2H2A2,2,0,0,1,0,4V2A2,2,0,0,1,2,0Z" transform="translate(-6569.15 -8966.596) rotate(90)" fill="#26a69a"/>
    <path id="Trazado_29920" data-name="Trazado 29920" d="M2,0H320.6a2,2,0,0,1,2,2V4a2,2,0,0,1-2,2H2A2,2,0,0,1,0,4V2A2,2,0,0,1,2,0Z" transform="translate(-6569.15 -8675.202) rotate(90)" fill="#26a69a"/>
    <path id="Trazado_29897" data-name="Trazado 29897" d="M0,0H148V52H0Z" transform="translate(-6824.538 -9068.537)" fill="#4dd0e1"/>
    <path id="Trazado_29898" data-name="Trazado 29898" d="M20.791,4.508V6.547h1.6V7.688h-1.6V12.82a1.149,1.149,0,0,0,.246.836.89.89,0,0,0,.652.242,1.429,1.429,0,0,0,.3-.035,2.2,2.2,0,0,0,.273-.074l.211,1.055a1.36,1.36,0,0,1-.508.23,2.562,2.562,0,0,1-.664.09,1.993,1.993,0,0,1-1.492-.566,2.46,2.46,0,0,1-.555-1.777V7.688H17.908V6.547h1.344V4.508ZM29.236,15q-.078-.383-.121-.676a4.96,4.96,0,0,1-.051-.59,3.589,3.589,0,0,1-1.121,1.02,2.867,2.867,0,0,1-1.488.41,2.763,2.763,0,0,1-2.012-.676,2.486,2.486,0,0,1-.691-1.863,2.183,2.183,0,0,1,.98-1.895,4.579,4.579,0,0,1,2.66-.684h1.672V9.211a1.551,1.551,0,0,0-.453-1.176A1.779,1.779,0,0,0,27.33,7.6a1.859,1.859,0,0,0-1.211.375,1.125,1.125,0,0,0-.461.9L24.2,8.891l-.016-.047a2.023,2.023,0,0,1,.863-1.687,3.578,3.578,0,0,1,2.371-.766,3.49,3.49,0,0,1,2.313.73A2.588,2.588,0,0,1,30.6,9.227V13.3a7.923,7.923,0,0,0,.047.875,4.5,4.5,0,0,0,.172.828Zm-2.555-1.125a2.739,2.739,0,0,0,1.508-.43,2.042,2.042,0,0,0,.875-.984V11.086H27.338a2.24,2.24,0,0,0-1.488.469,1.4,1.4,0,0,0-.559,1.1,1.159,1.159,0,0,0,.352.891A1.472,1.472,0,0,0,26.682,13.875Zm7.531-7.328.109,1.109a2.871,2.871,0,0,1,1.051-.934,3.158,3.158,0,0,1,1.48-.332,2.615,2.615,0,0,1,1.449.391,2.363,2.363,0,0,1,.91,1.172,3.162,3.162,0,0,1,1.059-1.145A2.769,2.769,0,0,1,41.8,6.391a2.531,2.531,0,0,1,2.039.887,4.051,4.051,0,0,1,.75,2.668V15H43.049V9.93a2.81,2.81,0,0,0-.43-1.77,1.567,1.567,0,0,0-1.281-.52,1.631,1.631,0,0,0-1.277.547,2.381,2.381,0,0,0-.574,1.383V15H37.939V9.93A2.772,2.772,0,0,0,37.5,8.191a1.532,1.532,0,0,0-1.27-.551,2.115,2.115,0,0,0-1.156.289,1.867,1.867,0,0,0-.7.813V15H32.838V6.547ZM52.018,15q-.078-.383-.121-.676a4.96,4.96,0,0,1-.051-.59,3.589,3.589,0,0,1-1.121,1.02,2.867,2.867,0,0,1-1.488.41,2.763,2.763,0,0,1-2.012-.676,2.486,2.486,0,0,1-.691-1.863,2.183,2.183,0,0,1,.98-1.895,4.579,4.579,0,0,1,2.66-.684h1.672V9.211a1.551,1.551,0,0,0-.453-1.176A1.779,1.779,0,0,0,50.111,7.6a1.859,1.859,0,0,0-1.211.375,1.125,1.125,0,0,0-.461.9l-1.461.016-.016-.047a2.023,2.023,0,0,1,.863-1.687A3.578,3.578,0,0,1,50.2,6.391a3.49,3.49,0,0,1,2.313.73,2.588,2.588,0,0,1,.875,2.105V13.3a7.923,7.923,0,0,0,.047.875A4.5,4.5,0,0,0,53.6,15Zm-2.555-1.125a2.739,2.739,0,0,0,1.508-.43,2.042,2.042,0,0,0,.875-.984V11.086H50.119a2.24,2.24,0,0,0-1.488.469,1.4,1.4,0,0,0-.559,1.1,1.159,1.159,0,0,0,.352.891A1.472,1.472,0,0,0,49.463,13.875Zm7.531-7.328L57.1,7.8a3.069,3.069,0,0,1,1.059-1.043,2.824,2.824,0,0,1,1.449-.371,2.759,2.759,0,0,1,2.117.8,3.515,3.515,0,0,1,.75,2.473V15H60.939V9.7A2.287,2.287,0,0,0,60.5,8.109a1.768,1.768,0,0,0-1.348-.469,2.386,2.386,0,0,0-1.207.285,2.072,2.072,0,0,0-.785.8V15H55.619V6.547Zm4.734-3.437a1.772,1.772,0,0,1-.465,1.242,1.516,1.516,0,0,1-1.168.508A2.242,2.242,0,0,1,58.939,4.5a2.07,2.07,0,0,0-1-.363.723.723,0,0,0-.562.254A.889.889,0,0,0,57.15,5l-.844-.2a1.872,1.872,0,0,1,.461-1.262A1.479,1.479,0,0,1,57.939,3a2.379,2.379,0,0,1,1.094.367,2.356,2.356,0,0,0,1.063.367.731.731,0,0,0,.555-.254.882.882,0,0,0,.234-.621ZM64.354,10.7a4.654,4.654,0,0,1,1.016-3.09,3.764,3.764,0,0,1,5.535,0,4.639,4.639,0,0,1,1.02,3.094v.172a4.631,4.631,0,0,1-1.016,3.094,3.781,3.781,0,0,1-5.535,0,4.623,4.623,0,0,1-1.02-3.09Zm1.539.172a4.009,4.009,0,0,0,.566,2.219,2.046,2.046,0,0,0,3.355,0,3.988,3.988,0,0,0,.57-2.219V10.7a3.976,3.976,0,0,0-.574-2.211A1.882,1.882,0,0,0,68.127,7.6a1.856,1.856,0,0,0-1.668.883,4.018,4.018,0,0,0-.566,2.211Zm18.477-2.3H77.854V7.289h6.516Zm0,3.25H77.854V10.539h6.516Zm6.648-1.875.656-6.32h5.7V4.992h-4.4L92.6,8.266a3.511,3.511,0,0,1,.813-.449,2.858,2.858,0,0,1,1.016-.184,3.1,3.1,0,0,1,2.473.988,3.992,3.992,0,0,1,.895,2.754,4,4,0,0,1-.918,2.75,3.382,3.382,0,0,1-2.676,1.039,3.666,3.666,0,0,1-2.406-.789,2.731,2.731,0,0,1-.922-2.32l.016-.047h1.391a1.9,1.9,0,0,0,.535,1.441,1.924,1.924,0,0,0,1.387.512,1.816,1.816,0,0,0,1.516-.687,2.976,2.976,0,0,0,.539-1.883,2.71,2.71,0,0,0-.543-1.758,1.835,1.835,0,0,0-1.512-.672,2.416,2.416,0,0,0-1.312.273,1.6,1.6,0,0,0-.6.844Z" transform="translate(-6808.538 -9053.537)" fill="#12263f"/>
    <path id="Trazado_29437" data-name="Trazado 29437" d="M0-20,57.863,3.447V115.99L0,92.544Z" transform="translate(-6702.547 -8831.494) rotate(90)" fill="#4dd0e1"/>
    <path id="Trazado_29903" data-name="Trazado 29903" d="M2.781,0H1.242V-12.187H2.781ZM6.813,0H5.273V-8.453H6.813Zm0-10.617H5.273v-1.57H6.813Zm7.281,8.344a1.026,1.026,0,0,0-.387-.828,3.732,3.732,0,0,0-1.465-.562,6.146,6.146,0,0,1-2.293-.9,1.814,1.814,0,0,1-.8-1.547,2.229,2.229,0,0,1,.879-1.766A3.433,3.433,0,0,1,12.3-8.609a3.4,3.4,0,0,1,2.328.781,2.239,2.239,0,0,1,.852,1.82l-.016.047H14a1.331,1.331,0,0,0-.48-.992A1.717,1.717,0,0,0,12.3-7.4a1.751,1.751,0,0,0-1.215.367,1.146,1.146,0,0,0-.4.875.927.927,0,0,0,.348.773,3.848,3.848,0,0,0,1.434.5,6.058,6.058,0,0,1,2.359.93,1.872,1.872,0,0,1,.8,1.57,2.226,2.226,0,0,1-.91,1.836,3.754,3.754,0,0,1-2.379.711A3.715,3.715,0,0,1,9.8-.656,2.341,2.341,0,0,1,8.914-2.57l.016-.047H10.4a1.424,1.424,0,0,0,.609,1.2,2.358,2.358,0,0,0,1.336.379,2.1,2.1,0,0,0,1.285-.348A1.063,1.063,0,0,0,14.094-2.273Zm5.594-8.219v2.039h1.6v1.141h-1.6V-2.18a1.149,1.149,0,0,0,.246.836.89.89,0,0,0,.652.242,1.429,1.429,0,0,0,.3-.035,2.2,2.2,0,0,0,.273-.074l.211,1.055a1.36,1.36,0,0,1-.508.23,2.562,2.562,0,0,1-.664.09A1.993,1.993,0,0,1,18.7-.4a2.46,2.46,0,0,1-.555-1.777V-7.312H16.8V-8.453h1.344v-2.039ZM28.133,0q-.078-.383-.121-.676a4.96,4.96,0,0,1-.051-.59A3.589,3.589,0,0,1,26.84-.246a2.867,2.867,0,0,1-1.488.41A2.763,2.763,0,0,1,23.34-.512a2.486,2.486,0,0,1-.691-1.863,2.183,2.183,0,0,1,.98-1.895,4.579,4.579,0,0,1,2.66-.684h1.672v-.836a1.551,1.551,0,0,0-.453-1.176A1.779,1.779,0,0,0,26.227-7.4a1.859,1.859,0,0,0-1.211.375,1.125,1.125,0,0,0-.461.9l-1.461.016-.016-.047a2.023,2.023,0,0,1,.863-1.687,3.578,3.578,0,0,1,2.371-.766,3.49,3.49,0,0,1,2.313.73A2.588,2.588,0,0,1,29.5-5.773V-1.7a7.923,7.923,0,0,0,.047.875A4.5,4.5,0,0,0,29.719,0ZM25.578-1.125a2.739,2.739,0,0,0,1.508-.43,2.042,2.042,0,0,0,.875-.984V-3.914H26.234a2.24,2.24,0,0,0-1.488.469,1.4,1.4,0,0,0-.559,1.1,1.159,1.159,0,0,0,.352.891A1.472,1.472,0,0,0,25.578-1.125Zm9.164-10.664H33.273V1.227h1.469V2.438H31.734V-13h3.008ZM41.688,0H40.148V-8.453h1.539Zm0-10.617H40.148v-1.57h1.539ZM47-13h3.016V2.438H47V1.227h1.477V-11.789H47Z" transform="translate(-6775.538 -8796.494)" fill="#00104e"/>
    <path id="Icon_awesome-long-arrow-alt-down-3" data-name="Icon awesome-long-arrow-alt-down" d="M11.812,24.273V-6.946a.824.824,0,0,0-.844-.8H7.031a.824.824,0,0,0-.844.8V24.273H2.949a1.6,1.6,0,0,0-1.193,2.744l6.051,5.763a1.748,1.748,0,0,0,2.386,0l6.051-5.763a1.6,1.6,0,0,0-1.193-2.744Z" transform="translate(-6914.268 -8957.295) rotate(-90)" fill="#26a69a"/>
    <path id="Icon_awesome-long-arrow-alt-down-4" data-name="Icon awesome-long-arrow-alt-down" d="M10.554,114.211V.734A.8.8,0,0,0,9.711,0H5.773a.8.8,0,0,0-.844.734V114.211H1.691c-1.5,0-2.256,1.581-1.193,2.506l6.051,5.265a1.87,1.87,0,0,0,2.386,0l6.051-5.265c1.063-.925.31-2.506-1.193-2.506Z" transform="translate(-6991 -8668.287) rotate(-90)" fill="#26a69a"/>
    <path id="Trazado_29905" data-name="Trazado 29905" d="M2,0H171.48a2,2,0,0,1,2,2V4a2,2,0,0,1-2,2H2A2,2,0,0,1,0,4V2A2,2,0,0,1,2,0Z" transform="translate(-6921.018 -8754.576)" fill="#26a69a"/>
    <path id="Trazado_29918" data-name="Trazado 29918" d="M2,0H240.049a2,2,0,0,1,2,2V4a2,2,0,0,1-2,2H2A2,2,0,0,1,0,4V2A2,2,0,0,1,2,0Z" transform="translate(-6990.086 -8396.07)" fill="#26a69a"/>
    <path id="Trazado_29901" data-name="Trazado 29901" d="M2,0H216.481a2,2,0,0,1,2,2V4a2,2,0,0,1-2,2H2A2,2,0,0,1,0,4V2A2,2,0,0,1,2,0Z" transform="translate(-6916.018 -8967.057) rotate(90)" fill="#26a69a"/>
    <path id="Trazado_29909" data-name="Trazado 29909" d="M2,0H286.481a2,2,0,0,1,2,2V4a2,2,0,0,1-2,2H2A2,2,0,0,1,0,4V2A2,2,0,0,1,2,0Z" transform="translate(-6988 -8678.551) rotate(90)" fill="#26a69a"/>
    <path id="Trazado_29904" data-name="Trazado 29904" d="M2,0H23.055a2,2,0,0,1,2,2V4a2,2,0,0,1-2,2H2A2,2,0,0,1,0,4V2A2,2,0,0,1,2,0Z" transform="translate(-6747.538 -8773.631) rotate(90)" fill="#26a69a"/>
    <path id="Trazado_29917" data-name="Trazado 29917" d="M2,0H42.064a2,2,0,0,1,2,2V4a2,2,0,0,1-2,2H2A2,2,0,0,1,0,4V2A2,2,0,0,1,2,0Z" transform="translate(-6748.038 -8434.133) rotate(90)" fill="#26a69a"/>
    <path id="Trazado_29895" data-name="Trazado 29895" d="M15,0H52a15,15,0,0,1,0,30H15A15,15,0,0,1,15,0Z" transform="translate(-6784.538 -9130.041)" fill="#4dd0e1"/>
    <path id="Trazado_29922" data-name="Trazado 29922" d="M15,0H52a15,15,0,0,1,0,30H15A15,15,0,0,1,15,0Z" transform="translate(-6784.538 -8327.1)" fill="#4dd0e1"/>
    <path id="Trazado_29896" data-name="Trazado 29896" d="M3.031,0H1.484V-11.375H3.031ZM7.016-8.453,7.125-7.2A3.069,3.069,0,0,1,8.184-8.238a2.824,2.824,0,0,1,1.449-.371,2.759,2.759,0,0,1,2.117.8,3.515,3.515,0,0,1,.75,2.473V0H10.961V-5.3a2.287,2.287,0,0,0-.441-1.586,1.768,1.768,0,0,0-1.348-.469,2.386,2.386,0,0,0-1.207.285,2.072,2.072,0,0,0-.785.8V0H5.641V-8.453ZM16.4,0H14.859V-8.453H16.4Zm0-10.617H14.859v-1.57H16.4Zm5.727,9.578a1.81,1.81,0,0,0,1.242-.473,1.494,1.494,0,0,0,.531-1.16h1.391l.023.047a2.428,2.428,0,0,1-.937,1.941,3.313,3.313,0,0,1-2.25.848,3.319,3.319,0,0,1-2.75-1.211,4.674,4.674,0,0,1-.969-3.016v-.328a4.654,4.654,0,0,1,.973-3,3.317,3.317,0,0,1,2.746-1.215,3.189,3.189,0,0,1,2.316.875,2.775,2.775,0,0,1,.871,2.148l-.016.047H23.9a1.865,1.865,0,0,0-.5-1.316,1.658,1.658,0,0,0-1.27-.543,1.777,1.777,0,0,0-1.652.879,4.114,4.114,0,0,0-.52,2.129v.328a4.192,4.192,0,0,0,.512,2.148A1.776,1.776,0,0,0,22.125-1.039ZM28.8,0H27.266V-8.453H28.8Zm0-10.617H27.266v-1.57H28.8ZM30.813-4.3a4.654,4.654,0,0,1,1.016-3.09,3.406,3.406,0,0,1,2.758-1.215A3.439,3.439,0,0,1,37.363-7.4,4.639,4.639,0,0,1,38.383-4.3v.172a4.631,4.631,0,0,1-1.016,3.094A3.429,3.429,0,0,1,34.6.164a3.436,3.436,0,0,1-2.77-1.207,4.623,4.623,0,0,1-1.02-3.09Zm1.539.172a4.009,4.009,0,0,0,.566,2.219,1.875,1.875,0,0,0,1.684.875,1.87,1.87,0,0,0,1.672-.875,3.988,3.988,0,0,0,.57-2.219V-4.3a3.976,3.976,0,0,0-.574-2.211A1.882,1.882,0,0,0,34.586-7.4a1.856,1.856,0,0,0-1.668.883A4.018,4.018,0,0,0,32.352-4.3Z" transform="translate(-6769.538 -9109.041)" fill="#00104e"/>
    <path id="Trazado_29923" data-name="Trazado 29923" d="M-3.312-5.031h-4.8V0H-9.648V-11.375h7.133v1.211H-8.109v3.922h4.8ZM.633,0H-.906V-8.453H.633Zm0-10.617H-.906v-1.57H.633ZM4.375-8.453,4.484-7.2A3.069,3.069,0,0,1,5.543-8.238a2.824,2.824,0,0,1,1.449-.371,2.759,2.759,0,0,1,2.117.8,3.515,3.515,0,0,1,.75,2.473V0H8.32V-5.3a2.287,2.287,0,0,0-.441-1.586,1.768,1.768,0,0,0-1.348-.469,2.386,2.386,0,0,0-1.207.285,2.072,2.072,0,0,0-.785.8V0H3V-8.453Z" transform="translate(-6750.538 -8307.1)" fill="#00104e"/>
    <path id="Icon_awesome-long-arrow-alt-down-5" data-name="Icon awesome-long-arrow-alt-down" d="M11.812,14.324V-6.906a.844.844,0,0,0-.844-.844H7.031a.844.844,0,0,0-.844.844v21.23H2.949A1.688,1.688,0,0,0,1.756,17.2l6.051,6.051a1.687,1.687,0,0,0,2.386,0L16.244,17.2a1.688,1.688,0,0,0-1.193-2.881Z" transform="translate(-6759.796 -9092.287)" fill="#26a69a"/>
    <path id="Icon_awesome-long-arrow-alt-down-6" data-name="Icon awesome-long-arrow-alt-down" d="M11.812,14.324V-6.906a.844.844,0,0,0-.844-.844H7.031a.844.844,0,0,0-.844.844v21.23H2.949A1.688,1.688,0,0,0,1.756,17.2l6.051,6.051a1.687,1.687,0,0,0,2.386,0L16.244,17.2a1.688,1.688,0,0,0-1.193-2.881Z" transform="translate(-6759.796 -9008.787)" fill="#26a69a"/>
    <path id="Icon_awesome-long-arrow-alt-down-7" data-name="Icon awesome-long-arrow-alt-down" d="M11.812,14.324V-6.906a.844.844,0,0,0-.844-.844H7.031a.844.844,0,0,0-.844.844v21.23H2.949A1.688,1.688,0,0,0,1.756,17.2l6.051,6.051a1.687,1.687,0,0,0,2.386,0L16.244,17.2a1.688,1.688,0,0,0-1.193-2.881Z" transform="translate(-6759.796 -8939.287)" fill="#26a69a"/>
    <path id="Icon_awesome-long-arrow-alt-down-8" data-name="Icon awesome-long-arrow-alt-down" d="M11.812,14.324V-6.906a.844.844,0,0,0-.844-.844H7.031a.844.844,0,0,0-.844.844v21.23H2.949A1.688,1.688,0,0,0,1.756,17.2l6.051,6.051a1.687,1.687,0,0,0,2.386,0L16.244,17.2a1.688,1.688,0,0,0-1.193-2.881Z" transform="translate(-6759.796 -8855.244)" fill="#26a69a"/>
    <path id="Icon_awesome-long-arrow-alt-down-9" data-name="Icon awesome-long-arrow-alt-down" d="M11.812,14.324V-6.906a.844.844,0,0,0-.844-.844H7.031a.844.844,0,0,0-.844.844v21.23H2.949A1.688,1.688,0,0,0,1.756,17.2l6.051,6.051a1.687,1.687,0,0,0,2.386,0L16.244,17.2a1.688,1.688,0,0,0-1.193-2.881Z" transform="translate(-6760.273 -8649.458)" fill="#26a69a"/>
    <path id="Icon_awesome-long-arrow-alt-down-10" data-name="Icon awesome-long-arrow-alt-down" d="M11.812,14.324V-6.906a.844.844,0,0,0-.844-.844H7.031a.844.844,0,0,0-.844.844v21.23H2.949A1.688,1.688,0,0,0,1.756,17.2l6.051,6.051a1.687,1.687,0,0,0,2.386,0L16.244,17.2a1.688,1.688,0,0,0-1.193-2.881Z" transform="translate(-6760.795 -8350.85)" fill="#26a69a"/>
    <path id="Trazado_29439" data-name="Trazado 29439" d="M267.519,405.619H398.273v55.956s-23.391,18.27-65.377,0-65.377-.588-65.377-.588Z" transform="translate(-7241.915 -8939.112)" fill="#4dd0e1"/>
    <path id="Trazado_29436" data-name="Trazado 29436" d="M267.519,405.619H398.273v55.956s-23.391,18.27-65.377,0-65.377-.588-65.377-.588Z" transform="translate(-7084.057 -9321.156)" fill="#4dd0e1"/>
    <path id="Trazado_29915" data-name="Trazado 29915" d="M15.18,15H13.641V2.813H15.18Zm4.031,0H17.672V6.547h1.539Zm0-10.617H17.672V2.813h1.539Zm7.281,8.344a1.026,1.026,0,0,0-.387-.828,3.732,3.732,0,0,0-1.465-.562,6.146,6.146,0,0,1-2.293-.9,1.814,1.814,0,0,1-.8-1.547,2.229,2.229,0,0,1,.879-1.766A3.433,3.433,0,0,1,24.7,6.391a3.4,3.4,0,0,1,2.328.781,2.239,2.239,0,0,1,.852,1.82l-.016.047H26.4a1.331,1.331,0,0,0-.48-.992A1.717,1.717,0,0,0,24.7,7.6a1.751,1.751,0,0,0-1.215.367,1.146,1.146,0,0,0-.4.875.927.927,0,0,0,.348.773,3.848,3.848,0,0,0,1.434.5,6.058,6.058,0,0,1,2.359.93,1.872,1.872,0,0,1,.8,1.57,2.226,2.226,0,0,1-.91,1.836,3.754,3.754,0,0,1-2.379.711,3.715,3.715,0,0,1-2.547-.82,2.341,2.341,0,0,1-.883-1.914l.016-.047H22.8a1.424,1.424,0,0,0,.609,1.2,2.358,2.358,0,0,0,1.336.379,2.1,2.1,0,0,0,1.285-.348A1.063,1.063,0,0,0,26.492,12.727Zm5.594-8.219V6.547h1.6V7.688h-1.6V12.82a1.149,1.149,0,0,0,.246.836.89.89,0,0,0,.652.242,1.429,1.429,0,0,0,.3-.035,2.2,2.2,0,0,0,.273-.074l.211,1.055a1.36,1.36,0,0,1-.508.23,2.562,2.562,0,0,1-.664.09A1.993,1.993,0,0,1,31.1,14.6a2.46,2.46,0,0,1-.555-1.777V7.688H29.2V6.547h1.344V4.508ZM40.531,15q-.078-.383-.121-.676a4.96,4.96,0,0,1-.051-.59,3.589,3.589,0,0,1-1.121,1.02,2.867,2.867,0,0,1-1.488.41,2.763,2.763,0,0,1-2.012-.676,2.486,2.486,0,0,1-.691-1.863,2.183,2.183,0,0,1,.98-1.895,4.579,4.579,0,0,1,2.66-.684h1.672V9.211a1.551,1.551,0,0,0-.453-1.176A1.779,1.779,0,0,0,38.625,7.6a1.859,1.859,0,0,0-1.211.375,1.125,1.125,0,0,0-.461.9l-1.461.016-.016-.047a2.023,2.023,0,0,1,.863-1.687,3.578,3.578,0,0,1,2.371-.766,3.49,3.49,0,0,1,2.313.73A2.588,2.588,0,0,1,41.9,9.227V13.3a7.923,7.923,0,0,0,.047.875,4.5,4.5,0,0,0,.172.828Zm-2.555-1.125a2.739,2.739,0,0,0,1.508-.43,2.042,2.042,0,0,0,.875-.984V11.086H38.633a2.24,2.24,0,0,0-1.488.469,1.4,1.4,0,0,0-.559,1.1,1.159,1.159,0,0,0,.352.891A1.472,1.472,0,0,0,37.977,13.875ZM51.117,3.211H49.648V16.227h1.469v1.211H48.109V2h3.008ZM58.063,15H56.523V6.547h1.539Zm0-10.617H56.523V2.813h1.539ZM63.375,2h3.016V17.438H63.375V16.227h1.477V3.211H63.375Z" transform="translate(-6949.396 -8516.949)" fill="#00104e"/>
    <path id="Trazado_29902" data-name="Trazado 29902" d="M4.945,5.734,4.156,7.688H3.4V3.625H4.945Zm-2.414,0L1.742,7.688H.984L.992,5.813V3.625H2.531ZM8.758,15H7.211V3.625H8.758Zm3.984-8.453L12.852,7.8A3.069,3.069,0,0,1,13.91,6.762a2.824,2.824,0,0,1,1.449-.371,2.759,2.759,0,0,1,2.117.8,3.515,3.515,0,0,1,.75,2.473V15H16.688V9.7a2.287,2.287,0,0,0-.441-1.586A1.768,1.768,0,0,0,14.9,7.641a2.386,2.386,0,0,0-1.207.285,2.072,2.072,0,0,0-.785.8V15H11.367V6.547Zm7.445,4.383a5.641,5.641,0,0,1,.871-3.289,2.8,2.8,0,0,1,2.434-1.25,2.966,2.966,0,0,1,1.414.324,2.845,2.845,0,0,1,1.023.934l.188-1.1h1.227v8.5a3.225,3.225,0,0,1-.945,2.5,3.884,3.884,0,0,1-2.727.871,5.717,5.717,0,0,1-1.316-.168,5.147,5.147,0,0,1-1.246-.457l.234-1.2a4.45,4.45,0,0,0,1.074.379,5.517,5.517,0,0,0,1.238.145,2.242,2.242,0,0,0,1.637-.512,2.12,2.12,0,0,0,.512-1.559v-.961a2.725,2.725,0,0,1-.992.8,3.091,3.091,0,0,1-1.336.273,2.89,2.89,0,0,1-2.418-1.121,4.674,4.674,0,0,1-.871-2.949Zm1.539.164a3.592,3.592,0,0,0,.523,2.047,1.817,1.817,0,0,0,1.617.773,2.034,2.034,0,0,0,1.164-.316A2.4,2.4,0,0,0,25.8,12.7V8.813a2.388,2.388,0,0,0-.773-.855,2.029,2.029,0,0,0-1.148-.316,1.752,1.752,0,0,0-1.629.914,4.718,4.718,0,0,0-.527,2.375ZM33.555,7.906l-.789-.047a1.762,1.762,0,0,0-1.027.289,1.854,1.854,0,0,0-.645.813V15H29.555V6.547H30.93l.148,1.234a2.934,2.934,0,0,1,.887-1.023,2.073,2.073,0,0,1,1.215-.367,1.9,1.9,0,0,1,.328.027,2.174,2.174,0,0,1,.258.059Zm4.953,7.258A3.576,3.576,0,0,1,35.668,14a4.48,4.48,0,0,1-1.02-3.062v-.344A4.386,4.386,0,0,1,35.7,7.582a3.3,3.3,0,0,1,2.566-1.191,3.067,3.067,0,0,1,2.543,1.055,4.345,4.345,0,0,1,.848,2.8v.813H36.25l-.023.039a3.494,3.494,0,0,0,.563,2.066,1.965,1.965,0,0,0,1.719.793,3.872,3.872,0,0,0,1.371-.223,3.061,3.061,0,0,0,1.012-.613l.6,1a3.7,3.7,0,0,1-1.2.738A4.762,4.762,0,0,1,38.508,15.164ZM38.266,7.6a1.673,1.673,0,0,0-1.332.621,2.938,2.938,0,0,0-.645,1.59l.016.039h3.813V9.727A2.462,2.462,0,0,0,39.664,8.2,1.638,1.638,0,0,0,38.266,7.6ZM48.3,12.727a1.026,1.026,0,0,0-.387-.828,3.732,3.732,0,0,0-1.465-.562,6.146,6.146,0,0,1-2.293-.9,1.814,1.814,0,0,1-.8-1.547,2.229,2.229,0,0,1,.879-1.766,3.879,3.879,0,0,1,4.605.047,2.239,2.239,0,0,1,.852,1.82l-.016.047H48.2a1.331,1.331,0,0,0-.48-.992A1.717,1.717,0,0,0,46.508,7.6a1.751,1.751,0,0,0-1.215.367,1.146,1.146,0,0,0-.4.875.927.927,0,0,0,.348.773,3.848,3.848,0,0,0,1.434.5,6.058,6.058,0,0,1,2.359.93,1.872,1.872,0,0,1,.8,1.57,2.226,2.226,0,0,1-.91,1.836,3.754,3.754,0,0,1-2.379.711A3.715,3.715,0,0,1,44,14.344a2.341,2.341,0,0,1-.883-1.914l.016-.047H44.6a1.424,1.424,0,0,0,.609,1.2,2.358,2.358,0,0,0,1.336.379,2.1,2.1,0,0,0,1.285-.348A1.063,1.063,0,0,0,48.3,12.727Zm6.953,2.438A3.576,3.576,0,0,1,52.41,14a4.48,4.48,0,0,1-1.02-3.062v-.344a4.386,4.386,0,0,1,1.051-3.012,3.3,3.3,0,0,1,2.566-1.191,3.067,3.067,0,0,1,2.543,1.055,4.345,4.345,0,0,1,.848,2.8v.813H52.992l-.023.039a3.494,3.494,0,0,0,.563,2.066,1.965,1.965,0,0,0,1.719.793,3.872,3.872,0,0,0,1.371-.223,3.061,3.061,0,0,0,1.012-.613l.6,1a3.7,3.7,0,0,1-1.2.738A4.762,4.762,0,0,1,55.25,15.164ZM55.008,7.6a1.673,1.673,0,0,0-1.332.621,2.938,2.938,0,0,0-.645,1.59l.016.039h3.813V9.727A2.462,2.462,0,0,0,56.406,8.2,1.638,1.638,0,0,0,55.008,7.6ZM69.469,13.75A2.863,2.863,0,0,1,68.445,14.8,2.8,2.8,0,0,1,67,15.164a2.716,2.716,0,0,1-2.156-.883,4.1,4.1,0,0,1-.773-2.75V6.547h1.539v5a3.147,3.147,0,0,0,.4,1.859,1.481,1.481,0,0,0,1.242.508,2.531,2.531,0,0,0,1.355-.332,2.077,2.077,0,0,0,.809-.941V6.547h1.539V15H69.57Zm5.1-7.2L74.68,7.8a3.069,3.069,0,0,1,1.059-1.043,2.824,2.824,0,0,1,1.449-.371,2.759,2.759,0,0,1,2.117.8,3.515,3.515,0,0,1,.75,2.473V15H78.516V9.7a2.287,2.287,0,0,0-.441-1.586,1.768,1.768,0,0,0-1.348-.469,2.386,2.386,0,0,0-1.207.285,2.072,2.072,0,0,0-.785.8V15H73.2V6.547Zm-72.078,17L2.6,24.8A3.069,3.069,0,0,1,3.66,23.762a2.824,2.824,0,0,1,1.449-.371,2.759,2.759,0,0,1,2.117.8,3.515,3.515,0,0,1,.75,2.473V32H6.438V26.7A2.287,2.287,0,0,0,6,25.109a1.768,1.768,0,0,0-1.348-.469,2.386,2.386,0,0,0-1.207.285,2.072,2.072,0,0,0-.785.8V32H1.117V23.547Zm13.086,7.2A2.863,2.863,0,0,1,14.555,31.8a2.8,2.8,0,0,1-1.445.367,2.716,2.716,0,0,1-2.156-.883,4.1,4.1,0,0,1-.773-2.75V23.547h1.539v5a3.147,3.147,0,0,0,.4,1.859,1.481,1.481,0,0,0,1.242.508,2.531,2.531,0,0,0,1.355-.332,2.077,2.077,0,0,0,.809-.941V23.547h1.539V32H15.68ZM14.367,20.125h1.8l.016.047-2.1,2.031H12.922Zm6.313,3.422.109,1.109a2.871,2.871,0,0,1,1.051-.934,3.158,3.158,0,0,1,1.48-.332,2.615,2.615,0,0,1,1.449.391,2.363,2.363,0,0,1,.91,1.172,3.162,3.162,0,0,1,1.059-1.145,2.769,2.769,0,0,1,1.527-.418,2.531,2.531,0,0,1,2.039.887,4.051,4.051,0,0,1,.75,2.668V32H29.516V26.93a2.81,2.81,0,0,0-.43-1.77,1.567,1.567,0,0,0-1.281-.52,1.631,1.631,0,0,0-1.277.547,2.381,2.381,0,0,0-.574,1.383V32H24.406V26.93a2.772,2.772,0,0,0-.441-1.738,1.532,1.532,0,0,0-1.27-.551,2.115,2.115,0,0,0-1.156.289,1.867,1.867,0,0,0-.7.813V32H19.3V23.547Zm16.109,8.617A3.576,3.576,0,0,1,33.949,31a4.48,4.48,0,0,1-1.02-3.062v-.344a4.386,4.386,0,0,1,1.051-3.012,3.3,3.3,0,0,1,2.566-1.191,3.067,3.067,0,0,1,2.543,1.055,4.345,4.345,0,0,1,.848,2.8v.813H34.531l-.023.039a3.494,3.494,0,0,0,.563,2.066,1.965,1.965,0,0,0,1.719.793,3.872,3.872,0,0,0,1.371-.223,3.061,3.061,0,0,0,1.012-.613l.6,1a3.7,3.7,0,0,1-1.2.738A4.762,4.762,0,0,1,36.789,32.164ZM36.547,24.6a1.673,1.673,0,0,0-1.332.621,2.938,2.938,0,0,0-.645,1.59l.016.039H38.4v-.125a2.462,2.462,0,0,0-.453-1.523A1.638,1.638,0,0,0,36.547,24.6Zm9.117.3-.789-.047a1.762,1.762,0,0,0-1.027.289,1.855,1.855,0,0,0-.645.813V32H41.664V23.547h1.375l.148,1.234a2.934,2.934,0,0,1,.887-1.023,2.073,2.073,0,0,1,1.215-.367,1.9,1.9,0,0,1,.328.027,2.174,2.174,0,0,1,.258.059ZM46.75,27.7a4.654,4.654,0,0,1,1.016-3.09,3.764,3.764,0,0,1,5.535,0A4.639,4.639,0,0,1,54.32,27.7v.172A4.631,4.631,0,0,1,53.3,30.961a3.781,3.781,0,0,1-5.535,0,4.623,4.623,0,0,1-1.02-3.09Zm1.539.172a4.009,4.009,0,0,0,.566,2.219,2.046,2.046,0,0,0,3.355,0,3.988,3.988,0,0,0,.57-2.219V27.7a3.976,3.976,0,0,0-.574-2.211,1.882,1.882,0,0,0-1.684-.883,1.856,1.856,0,0,0-1.668.883,4.018,4.018,0,0,0-.566,2.211Z" transform="translate(-6805.538 -8909.994)" fill="#00104e"/>
  </g>
</svg>
